AC-JadeDesignSpace.glyphspackage
{
glyphname = ampersand;
layers = (
{
layerId = master01;
shapes = (
{
closed = 1;
nodes = (
(500,598,o),
(513,623,o),
(529,644,c),
(528,648,o),
(528,649,o),
(527,654,c),
(499,672,o),
(427,686,o),
(355,686,cs),
(321,686,o),
(288,683,o),
(259,675,cs),
(181,654,o),
(101,613,o),
(101,506,cs),
(101,422,o),
(172,365,o),
(284,358,c),
(282,365,l),
(143,364,o),
(55,294,o),
(55,184,cs),
(55,64,o),
(155,-11,o),
(315,-11,cs),
(435,-11,o),
(549,39,o),
(542,137,cs),
(539,183,o),
(537,229,o),
(537,276,cs),
(537,302,o),
(538,329,o),
(539,356,c),
(447,356,l),
(451,297,o),
(452,237,o),
(452,177,cs),
(452,137,o),
(452,98,o),
(450,58,c),
(459,115,l),
(436,92,o),
(375,77,o),
(315,77,cs),
(204,77,o),
(155,113,o),
(155,196,cs),
(155,309,o),
(241,319,o),
(351,319,cs),
(523,319,o),
(569,318,o),
(639,310,c),
(647,314,l),
(647,386,l),
(639,390,l),
(607,386,o),
(565,386,o),
(416,386,cs),
(322,386,o),
(201,398,o),
(201,503,cs),
(201,574,o),
(237,588,o),
(259,599,cs),
(272,605,o),
(289,608,o),
(308,608,cs),
(367,608,o),
(445,585,o),
(470,575,c),
(473,575,o),
(478,575,o),
(480,575,c)
);
}
);
width = 667;
},
{
layerId = m002;
shapes = (
{
closed = 1;
nodes = (
(500,598,o),
(513,623,o),
(529,644,c),
(528,648,o),
(528,649,o),
(527,654,c),
(499,672,o),
(427,686,o),
(355,686,cs),
(321,686,o),
(288,683,o),
(259,675,cs),
(181,654,o),
(101,613,o),
(101,506,cs),
(101,422,o),
(172,365,o),
(284,358,c),
(282,365,l),
(143,364,o),
(55,294,o),
(55,184,cs),
(55,64,o),
(155,-11,o),
(315,-11,cs),
(435,-11,o),
(549,39,o),
(542,137,cs),
(539,183,o),
(537,229,o),
(537,276,cs),
(537,302,o),
(538,329,o),
(539,356,c),
(447,356,l),
(451,297,o),
(452,237,o),
(452,177,cs),
(452,137,o),
(452,98,o),
(450,58,c),
(459,115,l),
(436,92,o),
(375,77,o),
(315,77,cs),
(204,77,o),
(155,113,o),
(155,196,cs),
(155,309,o),
(241,319,o),
(351,319,cs),
(523,319,o),
(569,318,o),
(639,310,c),
(647,314,l),
(647,386,l),
(639,390,l),
(607,386,o),
(565,386,o),
(416,386,cs),
(322,386,o),
(201,398,o),
(201,503,cs),
(201,574,o),
(237,588,o),
(259,599,cs),
(272,605,o),
(289,608,o),
(308,608,cs),
(367,608,o),
(445,585,o),
(470,575,c),
(473,575,o),
(478,575,o),
(480,575,c)
);
}
);
width = 667;
},
{
layerId = m003;
shapes = (
{
closed = 1;
nodes = (
(500,598,o),
(513,623,o),
(529,644,c),
(528,648,o),
(528,649,o),
(527,654,c),
(499,672,o),
(427,686,o),
(355,686,cs),
(321,686,o),
(288,683,o),
(259,675,cs),
(181,654,o),
(101,613,o),
(101,506,cs),
(101,422,o),
(172,365,o),
(284,358,c),
(282,365,l),
(143,364,o),
(55,294,o),
(55,184,cs),
(55,64,o),
(155,-11,o),
(315,-11,cs),
(435,-11,o),
(549,39,o),
(542,137,cs),
(539,183,o),
(537,229,o),
(537,276,cs),
(537,302,o),
(538,329,o),
(539,356,c),
(447,356,l),
(451,297,o),
(452,237,o),
(452,177,cs),
(452,137,o),
(452,98,o),
(450,58,c),
(459,115,l),
(436,92,o),
(375,77,o),
(315,77,cs),
(204,77,o),
(155,113,o),
(155,196,cs),
(155,309,o),
(241,319,o),
(351,319,cs),
(523,319,o),
(569,318,o),
(639,310,c),
(647,314,l),
(647,386,l),
(639,390,l),
(607,386,o),
(565,386,o),
(416,386,cs),
(322,386,o),
(201,398,o),
(201,503,cs),
(201,574,o),
(237,588,o),
(259,599,cs),
(272,605,o),
(289,608,o),
(308,608,cs),
(367,608,o),
(445,585,o),
(470,575,c),
(473,575,o),
(478,575,o),
(480,575,c)
);
}
);
width = 667;
},
{
layerId = m004;
shapes = (
{
closed = 1;
nodes = (
(500,598,o),
(513,623,o),
(529,644,c),
(528,648,o),
(528,649,o),
(527,654,c),
(499,672,o),
(427,686,o),
(355,686,cs),
(321,686,o),
(288,683,o),
(259,675,cs),
(181,654,o),
(101,613,o),
(101,506,cs),
(101,422,o),
(172,365,o),
(284,358,c),
(282,365,l),
(143,364,o),
(55,294,o),
(55,184,cs),
(55,64,o),
(155,-11,o),
(315,-11,cs),
(435,-11,o),
(549,39,o),
(542,137,cs),
(539,183,o),
(537,229,o),
(537,276,cs),
(537,302,o),
(538,329,o),
(539,356,c),
(447,356,l),
(451,297,o),
(452,237,o),
(452,177,cs),
(452,137,o),
(452,98,o),
(450,58,c),
(459,115,l),
(436,92,o),
(375,77,o),
(315,77,cs),
(204,77,o),
(155,113,o),
(155,196,cs),
(155,309,o),
(241,319,o),
(351,319,cs),
(523,319,o),
(569,318,o),
(639,310,c),
(647,314,l),
(647,386,l),
(639,390,l),
(607,386,o),
(565,386,o),
(416,386,cs),
(322,386,o),
(201,398,o),
(201,503,cs),
(201,574,o),
(237,588,o),
(259,599,cs),
(272,605,o),
(289,608,o),
(308,608,cs),
(367,608,o),
(445,585,o),
(470,575,c),
(473,575,o),
(478,575,o),
(480,575,c)
);
}
);
width = 667;
}
);
unicode = 38;
}
{
glyphname = hyphen;
layers = (
{
layerId = master01;
shapes = (
{
closed = 1;
nodes = (
(269,268,o),
(249,268,o),
(180,268,cs),
(110,268,o),
(90,268,o),
(47,266,c),
(40,272,l),
(40,346,l),
(48,351,l),
(91,350,o),
(111,349,o),
(180,349,cs),
(250,349,o),
(269,350,o),
(310,351,c),
(320,346,l),
(320,271,l),
(310,266,l)
);
}
);
width = 360;
},
{
layerId = m002;
shapes = (
{
closed = 1;
nodes = (
(269,268,o),
(249,268,o),
(180,268,cs),
(110,268,o),
(90,268,o),
(47,266,c),
(40,272,l),
(40,346,l),
(48,351,l),
(91,350,o),
(111,349,o),
(180,349,cs),
(250,349,o),
(269,350,o),
(310,351,c),
(320,346,l),
(320,271,l),
(310,266,l)
);
}
);
width = 360;
},
{
layerId = m003;
shapes = (
{
closed = 1;
nodes = (
(269,268,o),
(249,268,o),
(180,268,cs),
(110,268,o),
(90,268,o),
(47,266,c),
(40,272,l),
(40,346,l),
(48,351,l),
(91,350,o),
(111,349,o),
(180,349,cs),
(250,349,o),
(269,350,o),
(310,351,c),
(320,346,l),
(320,271,l),
(310,266,l)
);
}
);
width = 360;
},
{
layerId = m004;
shapes = (
{
closed = 1;
nodes = (
(269,268,o),
(249,268,o),
(180,268,cs),
(110,268,o),
(90,268,o),
(47,266,c),
(40,272,l),
(40,346,l),
(48,351,l),
(91,350,o),
(111,349,o),
(180,349,cs),
(250,349,o),
(269,350,o),
(310,351,c),
(320,346,l),
(320,271,l),
(310,266,l)
);
}
);
width = 360;
}
);
unicode = 45;
}
{
glyphname = slash;
layers = (
{
layerId = master01;
shapes = (
{
closed = 1;
nodes = (
(87,0,l),
(95,10,l),
(297,692,l),
(293,700,l),
(219,700,l),
(212,693,l),
(10,10,l),
(12,0,l)
);
}
);
width = 337;
},
{
layerId = m002;
shapes = (
{
closed = 1;
nodes = (
(87,0,l),
(95,10,l),
(297,692,l),
(293,700,l),
(219,700,l),
(212,693,l),
(10,10,l),
(12,0,l)
);
}
);
width = 337;
},
{
layerId = m003;
shapes = (
{
closed = 1;
nodes = (
(87,0,l),
(95,10,l),
(297,692,l),
(293,700,l),
(219,700,l),
(212,693,l),
(10,10,l),
(12,0,l)
);
}
);
width = 337;
},
{
layerId = m004;
shapes = (
{
closed = 1;
nodes = (
(87,0,l),
(95,10,l),
(297,692,l),
(293,700,l),
(219,700,l),
(212,693,l),
(10,10,l),
(12,0,l)
);
}
);
width = 337;
}
);
unicode = 47;
}
{
color = 9;
glyphname = one;
layers = (
{
layerId = master01;
shapes = (
{
closed = 1;
nodes = (
(322,0,l),
(327,10,l),
(323,69,o),
(317,199,o),
(317,335,cs),
(317,470,o),
(323,614,o),
(327,690,c),
(322,700,l),
(229,700,l),
(172,656,o),
(112,615,o),
(45,579,c),
(40,569,l),
(84,502,l),
(93,499,l),
(143,537,o),
(231,593,o),
(267,609,c),
(226,647,l),
(229,598,o),
(233,504,o),
(233,337,cs),
(233,200,o),
(230,59,o),
(225,10,c),
(230,0,l)
);
}
);
width = 412;
},
{
layerId = m002;
shapes = (
{
closed = 1;
nodes = (
(322,0,l),
(327,10,l),
(323,69,o),
(317,199,o),
(317,335,cs),
(317,470,o),
(323,614,o),
(327,690,c),
(322,700,l),
(229,700,l),
(172,656,o),
(112,615,o),
(45,579,c),
(40,569,l),
(84,502,l),
(93,499,l),
(143,537,o),
(231,593,o),
(267,609,c),
(226,647,l),
(229,598,o),
(233,504,o),
(233,337,cs),
(233,200,o),
(230,59,o),
(225,10,c),
(230,0,l)
);
}
);
width = 412;
},
{
layerId = m003;
shapes = (
{
closed = 1;
nodes = (
(322,0,l),
(327,10,l),
(323,69,o),
(317,199,o),
(317,335,cs),
(317,470,o),
(323,614,o),
(327,690,c),
(322,700,l),
(229,700,l),
(172,656,o),
(112,615,o),
(45,579,c),
(40,569,l),
(84,502,l),
(93,499,l),
(143,537,o),
(231,593,o),
(267,609,c),
(226,647,l),
(229,598,o),
(233,504,o),
(233,337,cs),
(233,200,o),
(230,59,o),
(225,10,c),
(230,0,l)
);
}
);
width = 412;
},
{
layerId = m004;
shapes = (
{
closed = 1;
nodes = (
(322,0,l),
(327,10,l),
(323,69,o),
(317,199,o),
(317,335,cs),
(317,470,o),
(323,614,o),
(327,690,c),
(322,700,l),
(229,700,l),
(172,656,o),
(112,615,o),
(45,579,c),
(40,569,l),
(84,502,l),
(93,499,l),
(143,537,o),
(231,593,o),
(267,609,c),
(226,647,l),
(229,598,o),
(233,504,o),
(233,337,cs),
(233,200,o),
(230,59,o),
(225,10,c),
(230,0,l)
);
}
);
width = 412;
}
);
metricRight = "=H";
unicode = 49;
}
{
color = (38,219,207,255);
glyphname = two;
layers = (
{
background = {
shapes = (
{
closed = 1;
nodes = (
(84,628,l),
(111,558,l),
(115,556,l),
(147,571,o),
(223,590,o),
(258,590,qs),
(304,590,o),
(368,550,o),
(368,502,qs),
(368,452,o),
(301,398,o),
(239,398,qs),
(200,398,l),
(200,316,l),
(243,318,ls),
(324,322,o),
(412,262,o),
(412,203,qs),
(412,145,o),
(329,78,o),
(253,78,qs),
(212,78,o),
(124,97,o),
(85,108,q),
(81,106,l),
(53,44,l),
(56,39,l),
(99,14,o),
(204,-12,o),
(257,-12,qs),
(355,-12,o),
(512,86,o),
(512,191,qs),
(512,273,o),
(396,363,o),
(290,363,q),
(290,360,l),
(374,365,o),
(466,447,o),
(466,516,qs),
(466,600,o),
(346,680,o),
(266,680,qs),
(221,680,o),
(128,656,o),
(87,633,q)
);
}
);
};
layerId = master01;
shapes = (
{
closed = 1;
nodes = (
(462,0,ls),
(483,0,o),
(495,17,o),
(498,51,cs),
(500,86,o),
(501,122,o),
(501,161,c),
(434,168,l),
(415,65,l),
(480,90,l),
(135,90,l),
(143,62,l),
(215,128,o),
(471,301,o),
(471,528,cs),
(471,645,o),
(381,711,o),
(275,711,cs),
(213,711,o),
(145,689,o),
(86,638,c),
(84,633,l),
(114,583,l),
(120,581,l),
(165,604,o),
(216,618,o),
(260,618,cs),
(322,618,o),
(371,590,o),
(371,498,cs),
(371,323,o),
(152,159,o),
(78,86,cs),
(72,80,o),
(70,70,o),
(70,58,cs),
(70,32,o),
(82,0,o),
(92,0,cs)
);
}
);
width = 571;
},
{
background = {
shapes = (
{
closed = 1;
nodes = (
(84,628,l),
(111,558,l),
(115,556,l),
(147,571,o),
(223,590,o),
(258,590,qs),
(304,590,o),
(368,550,o),
(368,502,qs),
(368,452,o),
(301,398,o),
(239,398,qs),
(200,398,l),
(200,316,l),
(243,318,ls),
(324,322,o),
(412,262,o),
(412,203,qs),
(412,145,o),
(329,78,o),
(253,78,qs),
(212,78,o),
(124,97,o),
(85,108,q),
(81,106,l),
(53,44,l),
(56,39,l),
(99,14,o),
(204,-12,o),
(257,-12,qs),
(355,-12,o),
(512,86,o),
(512,191,qs),
(512,273,o),
(396,363,o),
(290,363,q),
(290,360,l),
(374,365,o),
(466,447,o),
(466,516,qs),
(466,600,o),
(346,680,o),
(266,680,qs),
(221,680,o),
(128,656,o),
(87,633,q)
);
}
);
};
layerId = m002;
shapes = (
{
closed = 1;
nodes = (
(462,0,ls),
(483,0,o),
(495,17,o),
(498,51,cs),
(500,86,o),
(501,122,o),
(501,161,c),
(434,168,l),
(415,65,l),
(480,90,l),
(135,90,l),
(143,62,l),
(215,128,o),
(471,301,o),
(471,528,cs),
(471,645,o),
(381,711,o),
(275,711,cs),
(213,711,o),
(145,689,o),
(86,638,c),
(84,633,l),
(114,583,l),
(120,581,l),
(165,604,o),
(216,618,o),
(260,618,cs),
(322,618,o),
(371,590,o),
(371,498,cs),
(371,323,o),
(152,159,o),
(78,86,cs),
(72,80,o),
(70,70,o),
(70,58,cs),
(70,32,o),
(82,0,o),
(92,0,cs)
);
}
);
width = 571;
},
{
background = {
shapes = (
{
closed = 1;
nodes = (
(84,628,l),
(111,558,l),
(115,556,l),
(147,571,o),
(223,590,o),
(258,590,qs),
(304,590,o),
(368,550,o),
(368,502,qs),
(368,452,o),
(301,398,o),
(239,398,qs),
(200,398,l),
(200,316,l),
(243,318,ls),
(324,322,o),
(412,262,o),
(412,203,qs),
(412,145,o),
(329,78,o),
(253,78,qs),
(212,78,o),
(124,97,o),
(85,108,q),
(81,106,l),
(53,44,l),
(56,39,l),
(99,14,o),
(204,-12,o),
(257,-12,qs),
(355,-12,o),
(512,86,o),
(512,191,qs),
(512,273,o),
(396,363,o),
(290,363,q),
(290,360,l),
(374,365,o),
(466,447,o),
(466,516,qs),
(466,600,o),
(346,680,o),
(266,680,qs),
(221,680,o),
(128,656,o),
(87,633,q)
);
}
);
};
layerId = m003;
shapes = (
{
closed = 1;
nodes = (
(462,0,ls),
(483,0,o),
(495,17,o),
(498,51,cs),
(500,86,o),
(501,122,o),
(501,161,c),
(434,168,l),
(415,65,l),
(480,90,l),
(135,90,l),
(143,62,l),
(215,128,o),
(471,301,o),
(471,528,cs),
(471,645,o),
(381,711,o),
(275,711,cs),
(213,711,o),
(145,689,o),
(86,638,c),
(84,633,l),
(114,583,l),
(120,581,l),
(165,604,o),
(216,618,o),
(260,618,cs),
(322,618,o),
(371,590,o),
(371,498,cs),
(371,323,o),
(152,159,o),
(78,86,cs),
(72,80,o),
(70,70,o),
(70,58,cs),
(70,32,o),
(82,0,o),
(92,0,cs)
);
}
);
width = 571;
},
{
background = {
shapes = (
{
closed = 1;
nodes = (
(84,628,l),
(111,558,l),
(115,556,l),
(147,571,o),
(223,590,o),
(258,590,qs),
(304,590,o),
(368,550,o),
(368,502,qs),
(368,452,o),
(301,398,o),
(239,398,qs),
(200,398,l),
(200,316,l),
(243,318,ls),
(324,322,o),
(412,262,o),
(412,203,qs),
(412,145,o),
(329,78,o),
(253,78,qs),
(212,78,o),
(124,97,o),
(85,108,q),
(81,106,l),
(53,44,l),
(56,39,l),
(99,14,o),
(204,-12,o),
(257,-12,qs),
(355,-12,o),
(512,86,o),
(512,191,qs),
(512,273,o),
(396,363,o),
(290,363,q),
(290,360,l),
(374,365,o),
(466,447,o),
(466,516,qs),
(466,600,o),
(346,680,o),
(266,680,qs),
(221,680,o),
(128,656,o),
(87,633,q)
);
}
);
};
layerId = m004;
shapes = (
{
closed = 1;
nodes = (
(462,0,ls),
(483,0,o),
(495,17,o),
(498,51,cs),
(500,86,o),
(501,122,o),
(501,161,c),
(434,168,l),
(415,65,l),
(480,90,l),
(135,90,l),
(143,62,l),
(215,128,o),
(471,301,o),
(471,528,cs),
(471,645,o),
(381,711,o),
(275,711,cs),
(213,711,o),
(145,689,o),
(86,638,c),
(84,633,l),
(114,583,l),
(120,581,l),
(165,604,o),
(216,618,o),
(260,618,cs),
(322,618,o),
(371,590,o),
(371,498,cs),
(371,323,o),
(152,159,o),
(78,86,cs),
(72,80,o),
(70,70,o),
(70,58,cs),
(70,32,o),
(82,0,o),
(92,0,cs)
);
}
);
width = 571;
}
);
unicode = 50;
}
{
color = 9;
glyphname = three;
layers = (
{
background = {
shapes = (
{
closed = 1;
nodes = (
(426,-10,o),
(570,99,o),
(570,345,cs),
(570,591,o),
(429,680,o),
(265,680,cs),
(186,680,o),
(126,664,o),
(88,645,c),
(85,640,l),
(115,558,l),
(119,556,l),
(170,577,o),
(205,590,o),
(268,590,cs),
(397,590,o),
(470,522,o),
(470,346,cs),
(470,170,o),
(397,82,o),
(260,82,c),
(213,82,o),
(164,92,o),
(109,108,c),
(105,106,l),
(77,44,l),
(80,39,l),
(123,15,o),
(192,-10,o),
(279,-10,c)
);
}
);
};
layerId = master01;
shapes = (
{
closed = 1;
nodes = (
(389,-12,o),
(514,51,o),
(514,201,cs),
(514,320,o),
(433,383,o),
(292,383,c),
(292,380,l),
(404,387,o),
(468,453,o),
(468,541,cs),
(468,657,o),
(374,710,o),
(268,710,cs),
(208,710,o),
(144,694,o),
(89,663,c),
(86,658,l),
(113,588,l),
(117,586,l),
(160,606,o),
(213,620,o),
(260,620,cs),
(321,620,o),
(370,596,o),
(370,527,cs),
(370,455,o),
(324,418,o),
(241,418,cs),
(202,418,l),
(202,336,l),
(245,338,ls),
(352,343,o),
(414,302,o),
(414,213,cs),
(414,125,o),
(356,78,o),
(255,78,cs),
(200,78,o),
(139,93,o),
(87,108,c),
(83,106,l),
(55,44,l),
(58,39,l),
(115,6,o),
(188,-12,o),
(259,-12,cs)
);
}
);
width = 589;
},
{
background = {
shapes = (
{
closed = 1;
nodes = (
(426,-10,o),
(570,99,o),
(570,345,cs),
(570,591,o),
(429,680,o),
(265,680,cs),
(186,680,o),
(126,664,o),
(88,645,c),
(85,640,l),
(115,558,l),
(119,556,l),
(170,577,o),
(205,590,o),
(268,590,cs),
(397,590,o),
(470,522,o),
(470,346,cs),
(470,170,o),
(397,82,o),
(260,82,c),
(213,82,o),
(164,92,o),
(109,108,c),
(105,106,l),
(77,44,l),
(80,39,l),
(123,15,o),
(192,-10,o),
(279,-10,c)
);
}
);
};
layerId = m002;
shapes = (
{
closed = 1;
nodes = (
(389,-12,o),
(514,51,o),
(514,201,cs),
(514,320,o),
(433,383,o),
(292,383,c),
(292,380,l),
(404,387,o),
(468,453,o),
(468,541,cs),
(468,657,o),
(374,710,o),
(268,710,cs),
(208,710,o),
(144,694,o),
(89,663,c),
(86,658,l),
(113,588,l),
(117,586,l),
(160,606,o),
(213,620,o),
(260,620,cs),
(321,620,o),
(370,596,o),
(370,527,cs),
(370,455,o),
(324,418,o),
(241,418,cs),
(202,418,l),
(202,336,l),
(245,338,ls),
(352,343,o),
(414,302,o),
(414,213,cs),
(414,125,o),
(356,78,o),
(255,78,cs),
(200,78,o),
(139,93,o),
(87,108,c),
(83,106,l),
(55,44,l),
(58,39,l),
(115,6,o),
(188,-12,o),
(259,-12,cs)
);
}
);
width = 589;
},
{
background = {
shapes = (
{
closed = 1;
nodes = (
(426,-10,o),
(570,99,o),
(570,345,cs),
(570,591,o),
(429,680,o),
(265,680,cs),
(186,680,o),
(126,664,o),
(88,645,c),
(85,640,l),
(115,558,l),
(119,556,l),
(170,577,o),
(205,590,o),
(268,590,cs),
(397,590,o),
(470,522,o),
(470,346,cs),
(470,170,o),
(397,82,o),
(260,82,c),
(213,82,o),
(164,92,o),
(109,108,c),
(105,106,l),
(77,44,l),
(80,39,l),
(123,15,o),
(192,-10,o),
(279,-10,c)
);
}
);
};
layerId = m003;
shapes = (
{
closed = 1;
nodes = (
(389,-12,o),
(514,51,o),
(514,201,cs),
(514,320,o),
(433,383,o),
(292,383,c),
(292,380,l),
(404,387,o),
(468,453,o),
(468,541,cs),
(468,657,o),
(374,710,o),
(268,710,cs),
(208,710,o),
(144,694,o),
(89,663,c),
(86,658,l),
(113,588,l),
(117,586,l),
(160,606,o),
(213,620,o),
(260,620,cs),
(321,620,o),
(370,596,o),
(370,527,cs),
(370,455,o),
(324,418,o),
(241,418,cs),
(202,418,l),
(202,336,l),
(245,338,ls),
(352,343,o),
(414,302,o),
(414,213,cs),
(414,125,o),
(356,78,o),
(255,78,cs),
(200,78,o),
(139,93,o),
(87,108,c),
(83,106,l),
(55,44,l),
(58,39,l),
(115,6,o),
(188,-12,o),
(259,-12,cs)
);
}
);
width = 589;
},
{
background = {
shapes = (
{
closed = 1;
nodes = (
(426,-10,o),
(570,99,o),
(570,345,cs),
(570,591,o),
(429,680,o),
(265,680,cs),
(186,680,o),
(126,664,o),
(88,645,c),
(85,640,l),
(115,558,l),
(119,556,l),
(170,577,o),
(205,590,o),
(268,590,cs),
(397,590,o),
(470,522,o),
(470,346,cs),
(470,170,o),
(397,82,o),
(260,82,c),
(213,82,o),
(164,92,o),
(109,108,c),
(105,106,l),
(77,44,l),
(80,39,l),
(123,15,o),
(192,-10,o),
(279,-10,c)
);
}
);
};
layerId = m004;
shapes = (
{
closed = 1;
nodes = (
(389,-12,o),
(514,51,o),
(514,201,cs),
(514,320,o),
(433,383,o),
(292,383,c),
(292,380,l),
(404,387,o),
(468,453,o),
(468,541,cs),
(468,657,o),
(374,710,o),
(268,710,cs),
(208,710,o),
(144,694,o),
(89,663,c),
(86,658,l),
(113,588,l),
(117,586,l),
(160,606,o),
(213,620,o),
(260,620,cs),
(321,620,o),
(370,596,o),
(370,527,cs),
(370,455,o),
(324,418,o),
(241,418,cs),
(202,418,l),
(202,336,l),
(245,338,ls),
(352,343,o),
(414,302,o),
(414,213,cs),
(414,125,o),
(356,78,o),
(255,78,cs),
(200,78,o),
(139,93,o),
(87,108,c),
(83,106,l),
(55,44,l),
(58,39,l),
(115,6,o),
(188,-12,o),
(259,-12,cs)
);
}
);
width = 589;
}
);
unicode = 51;
}
{
glyphname = four;
layers = (
{
layerId = master01;
shapes = (
{
closed = 1;
nodes = (
(520,283,l),
(516,283,o),
(461,279,o),
(355,275,cs),
(278,272,o),
(216,270,o),
(160,270,cs),
(140,270,o),
(120,270,o),
(101,271,c),
(121,241,l),
(367,646,l),
(369,657,l),
(289,711,l),
(277,705,l),
(49,243,ls),
(47,239,o),
(45,233,o),
(45,226,cs),
(45,212,o),
(53,196,o),
(77,196,cs),
(171,194,o),
(480,191,o),
(520,191,c)
);
},
{
closed = 1;
nodes = (
(440,0,l),
(445,10,l),
(444,23,o),
(442,58,o),
(440,104,cs),
(437,166,o),
(435,221,o),
(435,269,cs),
(435,363,o),
(442,469,o),
(445,508,c),
(444,510,o),
(443,512,o),
(443,514,cs),
(442,516,o),
(441,518,o),
(440,520,c),
(351,520,l),
(349,515,o),
(348,513,o),
(346,509,c),
(351,469,o),
(351,362,o),
(351,269,cs),
(351,221,o),
(349,166,o),
(346,104,cs),
(344,58,o),
(342,23,o),
(341,10,c),
(346,0,l)
);
}
);
width = 550;
},
{
layerId = m002;
shapes = (
{
closed = 1;
nodes = (
(520,283,l),
(516,283,o),
(461,279,o),
(355,275,cs),
(278,272,o),
(216,270,o),
(160,270,cs),
(140,270,o),
(120,270,o),
(101,271,c),
(121,241,l),
(367,646,l),
(369,657,l),
(289,711,l),
(277,705,l),
(49,243,ls),
(47,239,o),
(45,233,o),
(45,226,cs),
(45,212,o),
(53,196,o),
(77,196,cs),
(171,194,o),
(480,191,o),
(520,191,c)
);
},
{
closed = 1;
nodes = (
(440,0,l),
(445,10,l),
(444,23,o),
(442,58,o),
(440,104,cs),
(437,166,o),
(435,221,o),
(435,269,cs),
(435,363,o),
(442,469,o),
(445,508,c),
(444,510,o),
(443,512,o),
(443,514,cs),
(442,516,o),
(441,518,o),
(440,520,c),
(351,520,l),
(349,515,o),
(348,513,o),
(346,509,c),
(351,469,o),
(351,362,o),
(351,269,cs),
(351,221,o),
(349,166,o),
(346,104,cs),
(344,58,o),
(342,23,o),
(341,10,c),
(346,0,l)
);
}
);
width = 550;
},
{
layerId = m003;
shapes = (
{
closed = 1;
nodes = (
(520,283,l),
(516,283,o),
(461,279,o),
(355,275,cs),
(278,272,o),
(216,270,o),
(160,270,cs),
(140,270,o),
(120,270,o),
(101,271,c),
(121,241,l),
(367,646,l),
(369,657,l),
(289,711,l),
(277,705,l),
(49,243,ls),
(47,239,o),
(45,233,o),
(45,226,cs),
(45,212,o),
(53,196,o),
(77,196,cs),
(171,194,o),
(480,191,o),
(520,191,c)
);
},
{
closed = 1;
nodes = (
(440,0,l),
(445,10,l),
(444,23,o),
(442,58,o),
(440,104,cs),
(437,166,o),
(435,221,o),
(435,269,cs),
(435,363,o),
(442,469,o),
(445,508,c),
(444,510,o),
(443,512,o),
(443,514,cs),
(442,516,o),
(441,518,o),
(440,520,c),
(351,520,l),
(349,515,o),
(348,513,o),
(346,509,c),
(351,469,o),
(351,362,o),
(351,269,cs),
(351,221,o),
(349,166,o),
(346,104,cs),
(344,58,o),
(342,23,o),
(341,10,c),
(346,0,l)
);
}
);
width = 550;
},
{
layerId = m004;
shapes = (
{
closed = 1;
nodes = (
(520,283,l),
(516,283,o),
(461,279,o),
(355,275,cs),
(278,272,o),
(216,270,o),
(160,270,cs),
(140,270,o),
(120,270,o),
(101,271,c),
(121,241,l),
(367,646,l),
(369,657,l),
(289,711,l),
(277,705,l),
(49,243,ls),
(47,239,o),
(45,233,o),
(45,226,cs),
(45,212,o),
(53,196,o),
(77,196,cs),
(171,194,o),
(480,191,o),
(520,191,c)
);
},
{
closed = 1;
nodes = (
(440,0,l),
(445,10,l),
(444,23,o),
(442,58,o),
(440,104,cs),
(437,166,o),
(435,221,o),
(435,269,cs),
(435,363,o),
(442,469,o),
(445,508,c),
(444,510,o),
(443,512,o),
(443,514,cs),
(442,516,o),
(441,518,o),
(440,520,c),
(351,520,l),
(349,515,o),
(348,513,o),
(346,509,c),
(351,469,o),
(351,362,o),
(351,269,cs),
(351,221,o),
(349,166,o),
(346,104,cs),
(344,58,o),
(342,23,o),
(341,10,c),
(346,0,l)
);
}
);
width = 550;
}
);
unicode = 52;
}
{
glyphname = five;
layers = (
{
layerId = master01;
shapes = (
{
closed = 1;
nodes = (
(425,-9,o),
(534,84,o),
(534,216,cs),
(534,347,o),
(425,440,o),
(271,441,cs),
(147,442,l),
(215,422,l),
(238,647,l),
(192,619,l),
(210,619,o),
(238,620,o),
(258,620,cs),
(332,620,o),
(414,617,o),
(482,611,c),
(487,620,l),
(487,691,l),
(483,701,l),
(427,698,o),
(364,696,o),
(301,696,cs),
(243,696,o),
(204,698,o),
(153,700,c),
(147,690,l),
(119,373,l),
(131,363,l),
(257,361,ls),
(379,359,o),
(433,316,o),
(433,221,cs),
(433,124,o),
(374,81,o),
(240,81,cs),
(194,81,o),
(145,90,o),
(99,115,c),
(94,112,l),
(70,42,l),
(72,35,l),
(137,4,o),
(201,-9,o),
(271,-9,cs)
);
}
);
width = 594;
},
{
layerId = m002;
shapes = (
{
closed = 1;
nodes = (
(425,-9,o),
(534,84,o),
(534,216,cs),
(534,347,o),
(425,440,o),
(271,441,cs),
(147,442,l),
(215,422,l),
(238,647,l),
(192,619,l),
(210,619,o),
(238,620,o),
(258,620,cs),
(332,620,o),
(414,617,o),
(482,611,c),
(487,620,l),
(487,691,l),
(483,701,l),
(427,698,o),
(364,696,o),
(301,696,cs),
(243,696,o),
(204,698,o),
(153,700,c),
(147,690,l),
(119,373,l),
(131,363,l),
(257,361,ls),
(379,359,o),
(433,316,o),
(433,221,cs),
(433,124,o),
(374,81,o),
(240,81,cs),
(194,81,o),
(145,90,o),
(99,115,c),
(94,112,l),
(70,42,l),
(72,35,l),
(137,4,o),
(201,-9,o),
(271,-9,cs)
);
}
);
width = 594;
},
{
layerId = m003;
shapes = (
{
closed = 1;
nodes = (
(425,-9,o),
(534,84,o),
(534,216,cs),
(534,347,o),
(425,440,o),
(271,441,cs),
(147,442,l),
(215,422,l),
(238,647,l),
(192,619,l),
(210,619,o),
(238,620,o),
(258,620,cs),
(332,620,o),
(414,617,o),
(482,611,c),
(487,620,l),
(487,691,l),
(483,701,l),
(427,698,o),
(364,696,o),
(301,696,cs),
(243,696,o),
(204,698,o),
(153,700,c),
(147,690,l),
(119,373,l),
(131,363,l),
(257,361,ls),
(379,359,o),
(433,316,o),
(433,221,cs),
(433,124,o),
(374,81,o),
(240,81,cs),
(194,81,o),
(145,90,o),
(99,115,c),
(94,112,l),
(70,42,l),
(72,35,l),
(137,4,o),
(201,-9,o),
(271,-9,cs)
);
}
);
width = 594;
},
{
layerId = m004;
shapes = (
{
closed = 1;
nodes = (
(425,-9,o),
(534,84,o),
(534,216,cs),
(534,347,o),
(425,440,o),
(271,441,cs),
(147,442,l),
(215,422,l),
(238,647,l),
(192,619,l),
(210,619,o),
(238,620,o),
(258,620,cs),
(332,620,o),
(414,617,o),
(482,611,c),
(487,620,l),
(487,691,l),
(483,701,l),
(427,698,o),
(364,696,o),
(301,696,cs),
(243,696,o),
(204,698,o),
(153,700,c),
(147,690,l),
(119,373,l),
(131,363,l),
(257,361,ls),
(379,359,o),
(433,316,o),
(433,221,cs),
(433,124,o),
(374,81,o),
(240,81,cs),
(194,81,o),
(145,90,o),
(99,115,c),
(94,112,l),
(70,42,l),
(72,35,l),
(137,4,o),
(201,-9,o),
(271,-9,cs)
);
}
);
width = 594;
}
);
unicode = 53;
}
{
glyphname = six;
layers = (
{
layerId = master01;
shapes = (
{
closed = 1;
nodes = (
(170,710,o),
(71,564,o),
(71,305,cs),
(71,103,o),
(170,-10,o),
(311,-10,cs),
(432,-10,o),
(539,83,o),
(539,220,cs),
(539,371,o),
(458,465,o),
(335,465,cs),
(242,465,o),
(156,378,o),
(119,331,c),
(146,281,l),
(186,352,o),
(263,375,o),
(308,375,cs),
(376,375,o),
(439,329,o),
(439,225,cs),
(439,135,o),
(406,57,o),
(318,57,cs),
(223,57,o),
(171,162,o),
(171,350,cs),
(171,548,o),
(213,620,o),
(342,620,cs),
(406,620,o),
(456,598,o),
(488,580,c),
(494,582,l),
(522,650,l),
(519,657,l),
(474,675,o),
(412,710,o),
(331,710,cs)
);
}
);
width = 600;
},
{
layerId = m002;
shapes = (
{
closed = 1;
nodes = (
(170,710,o),
(71,564,o),
(71,305,cs),
(71,103,o),
(170,-10,o),
(311,-10,cs),
(432,-10,o),
(539,83,o),
(539,220,cs),
(539,371,o),
(458,465,o),
(335,465,cs),
(242,465,o),
(156,378,o),
(119,331,c),
(146,281,l),
(186,352,o),
(263,375,o),
(308,375,cs),
(376,375,o),
(439,329,o),
(439,225,cs),
(439,135,o),
(406,57,o),
(318,57,cs),
(223,57,o),
(171,162,o),
(171,350,cs),
(171,548,o),
(213,620,o),
(342,620,cs),
(406,620,o),
(456,598,o),
(488,580,c),
(494,582,l),
(522,650,l),
(519,657,l),
(474,675,o),
(412,710,o),
(331,710,cs)
);
}
);
width = 600;
},
{
layerId = m003;
shapes = (
{
closed = 1;
nodes = (
(170,710,o),
(71,564,o),
(71,305,cs),
(71,103,o),
(170,-10,o),
(311,-10,cs),
(432,-10,o),
(539,83,o),
(539,220,cs),
(539,371,o),
(458,465,o),
(335,465,cs),
(242,465,o),
(156,378,o),
(119,331,c),
(146,281,l),
(186,352,o),
(263,375,o),
(308,375,cs),
(376,375,o),
(439,329,o),
(439,225,cs),
(439,135,o),
(406,57,o),
(318,57,cs),
(223,57,o),
(171,162,o),
(171,350,cs),
(171,548,o),
(213,620,o),
(342,620,cs),
(406,620,o),
(456,598,o),
(488,580,c),
(494,582,l),
(522,650,l),
(519,657,l),
(474,675,o),
(412,710,o),
(331,710,cs)
);
}
);
width = 600;
},
{
layerId = m004;
shapes = (
{
closed = 1;
nodes = (
(170,710,o),
(71,564,o),
(71,305,cs),
(71,103,o),
(170,-10,o),
(311,-10,cs),
(432,-10,o),
(539,83,o),
(539,220,cs),
(539,371,o),
(458,465,o),
(335,465,cs),
(242,465,o),
(156,378,o),
(119,331,c),
(146,281,l),
(186,352,o),
(263,375,o),
(308,375,cs),
(376,375,o),
(439,329,o),
(439,225,cs),
(439,135,o),
(406,57,o),
(318,57,cs),
(223,57,o),
(171,162,o),
(171,350,cs),
(171,548,o),
(213,620,o),
(342,620,cs),
(406,620,o),
(456,598,o),
(488,580,c),
(494,582,l),
(522,650,l),
(519,657,l),
(474,675,o),
(412,710,o),
(331,710,cs)
);
}
);
width = 600;
}
);
unicode = 54;
}
{
glyphname = seven;
layers = (
{
layerId = master01;
shapes = (
{
closed = 1;
nodes = (
(206,0,l),
(214,10,l),
(254,124,o),
(386,461,o),
(455,607,cs),
(461,620,o),
(464,637,o),
(464,653,cs),
(464,678,o),
(457,700,o),
(444,700,c),
(379,696,o),
(313,696,o),
(238,696,cs),
(186,696,o),
(123,696,o),
(71,700,c),
(49,700,o),
(36,687,o),
(32,662,cs),
(27,636,o),
(25,595,o),
(25,539,c),
(87,535,l),
(111,635,l),
(79,610,l),
(127,615,o),
(185,615,o),
(233,615,cs),
(292,615,o),
(362,615,o),
(421,610,c),
(386,638,l),
(289,466,o),
(174,195,o),
(106,10,c),
(111,0,l)
);
}
);
width = 489;
},
{
layerId = m002;
shapes = (
{
closed = 1;
nodes = (
(206,0,l),
(214,10,l),
(254,124,o),
(386,461,o),
(455,607,cs),
(461,620,o),
(464,637,o),
(464,653,cs),
(464,678,o),
(457,700,o),
(444,700,c),
(379,696,o),
(313,696,o),
(238,696,cs),
(186,696,o),
(123,696,o),
(71,700,c),
(49,700,o),
(36,687,o),
(32,662,cs),
(27,636,o),
(25,595,o),
(25,539,c),
(87,535,l),
(111,635,l),
(79,610,l),
(127,615,o),
(185,615,o),
(233,615,cs),
(292,615,o),
(362,615,o),
(421,610,c),
(386,638,l),
(289,466,o),
(174,195,o),
(106,10,c),
(111,0,l)
);
}
);
width = 489;
},
{
layerId = m003;
shapes = (
{
closed = 1;
nodes = (
(206,0,l),
(214,10,l),
(254,124,o),
(386,461,o),
(455,607,cs),
(461,620,o),
(464,637,o),
(464,653,cs),
(464,678,o),
(457,700,o),
(444,700,c),
(379,696,o),
(313,696,o),
(238,696,cs),
(186,696,o),
(123,696,o),
(71,700,c),
(49,700,o),
(36,687,o),
(32,662,cs),
(27,636,o),
(25,595,o),
(25,539,c),
(87,535,l),
(111,635,l),
(79,610,l),
(127,615,o),
(185,615,o),
(233,615,cs),
(292,615,o),
(362,615,o),
(421,610,c),
(386,638,l),
(289,466,o),
(174,195,o),
(106,10,c),
(111,0,l)
);
}
);
width = 489;
},
{
layerId = m004;
shapes = (
{
closed = 1;
nodes = (
(206,0,l),
(214,10,l),
(254,124,o),
(386,461,o),
(455,607,cs),
(461,620,o),
(464,637,o),
(464,653,cs),
(464,678,o),
(457,700,o),
(444,700,c),
(379,696,o),
(313,696,o),
(238,696,cs),
(186,696,o),
(123,696,o),
(71,700,c),
(49,700,o),
(36,687,o),
(32,662,cs),
(27,636,o),
(25,595,o),
(25,539,c),
(87,535,l),
(111,635,l),
(79,610,l),
(127,615,o),
(185,615,o),
(233,615,cs),
(292,615,o),
(362,615,o),
(421,610,c),
(386,638,l),
(289,466,o),
(174,195,o),
(106,10,c),
(111,0,l)
);
}
);
width = 489;
}
);
unicode = 55;
}
{
glyphname = eight;
layers = (
{
layerId = master01;
shapes = (
{
closed = 1;
nodes = (
(435,-10,o),
(530,69,o),
(530,181,cs),
(530,296,o),
(473,373,o),
(362,403,cs),
(251,433,o),
(203,479,o),
(203,542,cs),
(203,597,o),
(240,628,o),
(306,628,cs),
(375,628,o),
(414,593,o),
(414,530,cs),
(414,463,o),
(379,427,o),
(299,408,c),
(234,381,l),
(145,357,o),
(75,280,o),
(75,180,cs),
(75,68,o),
(168,-10,o),
(300,-10,cs)
);
},
{
closed = 1;
nodes = (
(210,70,o),
(160,110,o),
(160,181,cs),
(160,263,o),
(218,312,o),
(299,336,c),
(352,362,l),
(441,397,o),
(499,447,o),
(499,530,cs),
(499,635,o),
(418,708,o),
(302,708,cs),
(191,708,o),
(113,639,o),
(113,541,cs),
(113,437,o),
(159,369,o),
(272,337,cs),
(384,306,o),
(440,260,o),
(440,181,cs),
(440,110,o),
(390,70,o),
(300,70,cs)
);
}
);
width = 605;
},
{
layerId = m002;
shapes = (
{
closed = 1;
nodes = (
(435,-10,o),
(530,69,o),
(530,181,cs),
(530,296,o),
(473,373,o),
(362,403,cs),
(251,433,o),
(203,479,o),
(203,542,cs),
(203,597,o),
(240,628,o),
(306,628,cs),
(375,628,o),
(414,593,o),
(414,530,cs),
(414,463,o),
(379,427,o),
(299,408,c),
(234,381,l),
(145,357,o),
(75,280,o),
(75,180,cs),
(75,68,o),
(168,-10,o),
(300,-10,cs)
);
},
{
closed = 1;
nodes = (
(210,70,o),
(160,110,o),
(160,181,cs),
(160,263,o),
(218,312,o),
(299,336,c),
(352,362,l),
(441,397,o),
(499,447,o),
(499,530,cs),
(499,635,o),
(418,708,o),
(302,708,cs),
(191,708,o),
(113,639,o),
(113,541,cs),
(113,437,o),
(159,369,o),
(272,337,cs),
(384,306,o),
(440,260,o),
(440,181,cs),
(440,110,o),
(390,70,o),
(300,70,cs)
);
}
);
width = 605;
},
{
layerId = m003;
shapes = (
{
closed = 1;
nodes = (
(435,-10,o),
(530,69,o),
(530,181,cs),
(530,296,o),
(473,373,o),
(362,403,cs),
(251,433,o),
(203,479,o),
(203,542,cs),
(203,597,o),
(240,628,o),
(306,628,cs),
(375,628,o),
(414,593,o),
(414,530,cs),
(414,463,o),
(379,427,o),
(299,408,c),
(234,381,l),
(145,357,o),
(75,280,o),
(75,180,cs),
(75,68,o),
(168,-10,o),
(300,-10,cs)
);
},
{
closed = 1;
nodes = (
(210,70,o),
(160,110,o),
(160,181,cs),
(160,263,o),
(218,312,o),
(299,336,c),
(352,362,l),
(441,397,o),
(499,447,o),
(499,530,cs),
(499,635,o),
(418,708,o),
(302,708,cs),
(191,708,o),
(113,639,o),
(113,541,cs),
(113,437,o),
(159,369,o),
(272,337,cs),
(384,306,o),
(440,260,o),
(440,181,cs),
(440,110,o),
(390,70,o),
(300,70,cs)
);
}
);
width = 605;
},
{
layerId = m004;
shapes = (
{
closed = 1;
nodes = (
(435,-10,o),
(530,69,o),
(530,181,cs),
(530,296,o),
(473,373,o),
(362,403,cs),
(251,433,o),
(203,479,o),
(203,542,cs),
(203,597,o),
(240,628,o),
(306,628,cs),
(375,628,o),
(414,593,o),
(414,530,cs),
(414,463,o),
(379,427,o),
(299,408,c),
(234,381,l),
(145,357,o),
(75,280,o),
(75,180,cs),
(75,68,o),
(168,-10,o),
(300,-10,cs)
);
},
{
closed = 1;
nodes = (
(210,70,o),
(160,110,o),
(160,181,cs),
(160,263,o),
(218,312,o),
(299,336,c),
(352,362,l),
(441,397,o),
(499,447,o),
(499,530,cs),
(499,635,o),
(418,708,o),
(302,708,cs),
(191,708,o),
(113,639,o),
(113,541,cs),
(113,437,o),
(159,369,o),
(272,337,cs),
(384,306,o),
(440,260,o),
(440,181,cs),
(440,110,o),
(390,70,o),
(300,70,cs)
);
}
);
width = 605;
}
);
unicode = 56;
}
{
glyphname = nine;
layers = (
{
layerId = master01;
shapes = (
{
closed = 1;
nodes = (
(415,-10,o),
(505,146,o),
(505,395,cs),
(505,597,o),
(426,710,o),
(285,710,cs),
(144,710,o),
(65,626,o),
(65,475,cs),
(65,324,o),
(148,240,o),
(291,240,cs),
(354,240,o),
(425,273,o),
(462,320,c),
(423,368,l),
(396,340,o),
(336,320,o),
(278,320,cs),
(190,320,o),
(149,366,o),
(149,470,cs),
(149,574,o),
(190,620,o),
(278,620,cs),
(373,620,o),
(415,538,o),
(415,350,cs),
(415,162,o),
(363,80,o),
(244,80,cs),
(180,80,o),
(132,100,o),
(100,118,c),
(94,116,l),
(66,48,l),
(69,41,l),
(114,23,o),
(174,-10,o),
(255,-10,cs)
);
}
);
width = 580;
},
{
layerId = m002;
shapes = (
{
closed = 1;
nodes = (
(415,-10,o),
(505,146,o),
(505,395,cs),
(505,597,o),
(426,710,o),
(285,710,cs),
(144,710,o),
(65,626,o),
(65,475,cs),
(65,324,o),
(148,240,o),
(291,240,cs),
(354,240,o),
(425,273,o),
(462,320,c),
(423,368,l),
(396,340,o),
(336,320,o),
(278,320,cs),
(190,320,o),
(149,366,o),
(149,470,cs),
(149,574,o),
(190,620,o),
(278,620,cs),
(373,620,o),
(415,538,o),
(415,350,cs),
(415,162,o),
(363,80,o),
(244,80,cs),
(180,80,o),
(132,100,o),
(100,118,c),
(94,116,l),
(66,48,l),
(69,41,l),
(114,23,o),
(174,-10,o),
(255,-10,cs)
);
}
);
width = 580;
},
{
layerId = m003;
shapes = (
{
closed = 1;
nodes = (
(415,-10,o),
(505,146,o),
(505,395,cs),
(505,597,o),
(426,710,o),
(285,710,cs),
(144,710,o),
(65,626,o),
(65,475,cs),
(65,324,o),
(148,240,o),
(291,240,cs),
(354,240,o),
(425,273,o),
(462,320,c),
(423,368,l),
(396,340,o),
(336,320,o),
(278,320,cs),
(190,320,o),
(149,366,o),
(149,470,cs),
(149,574,o),
(190,620,o),
(278,620,cs),
(373,620,o),
(415,538,o),
(415,350,cs),
(415,162,o),
(363,80,o),
(244,80,cs),
(180,80,o),
(132,100,o),
(100,118,c),
(94,116,l),
(66,48,l),
(69,41,l),
(114,23,o),
(174,-10,o),
(255,-10,cs)
);
}
);
width = 580;
},
{
layerId = m004;
shapes = (
{
closed = 1;
nodes = (
(415,-10,o),
(505,146,o),
(505,395,cs),
(505,597,o),
(426,710,o),
(285,710,cs),
(144,710,o),
(65,626,o),
(65,475,cs),
(65,324,o),
(148,240,o),
(291,240,cs),
(354,240,o),
(425,273,o),
(462,320,c),
(423,368,l),
(396,340,o),
(336,320,o),
(278,320,cs),
(190,320,o),
(149,366,o),
(149,470,cs),
(149,574,o),
(190,620,o),
(278,620,cs),
(373,620,o),
(415,538,o),
(415,350,cs),
(415,162,o),
(363,80,o),
(244,80,cs),
(180,80,o),
(132,100,o),
(100,118,c),
(94,116,l),
(66,48,l),
(69,41,l),
(114,23,o),
(174,-10,o),
(255,-10,cs)
);
}
);
width = 580;
}
);
unicode = 57;
}
{
color = (99,255,209,255);
glyphname = G;
layers = (
{
background = {
shapes = (
{
closed = 1;
nodes = (
(448,-10,o),
(517,15,o),
(560,39,c),
(563,44,l),
(535,106,l),
(531,108,l),
(476,92,o),
(427,82,o),
(380,82,c),
(243,82,o),
(170,170,o),
(170,346,cs),
(170,522,o),
(243,590,o),
(372,590,cs),
(435,590,o),
(470,577,o),
(521,556,c),
(525,558,l),
(555,640,l),
(552,645,l),
(514,664,o),
(454,680,o),
(375,680,cs),
(211,680,o),
(70,591,o),
(70,345,cs),
(70,99,o),
(214,-10,o),
(361,-10,c)
);
}
);
};
layerId = master01;
shapes = (
{
closed = 1;
nodes = (
(430,-10,o),
(509,-3,o),
(581,48,c),
(582,53,l),
(580,115,o),
(577,156,o),
(577,249,cs),
(577,295,o),
(580,335,o),
(582,381,c),
(577,386,l),
(558,385,o),
(524,384,o),
(485,384,cs),
(425,384,o),
(379,385,o),
(360,386,c),
(355,381,l),
(355,311,l),
(360,306,l),
(504,306,l),
(478,345,l),
(486,316,o),
(488,274,o),
(488,221,cs),
(488,128,o),
(483,114,o),
(474,43,c),
(532,114,l),
(494,93,o),
(446,80,o),
(374,80,cs),
(252,80,o),
(170,136,o),
(170,350,cs),
(170,558,o),
(245,620,o),
(369,620,cs),
(442,620,o),
(488,604,o),
(541,585,c),
(545,587,l),
(569,675,l),
(566,680,l),
(517,693,o),
(451,710,o),
(371,710,cs),
(220,710,o),
(70,629,o),
(70,350,cs),
(70,72,o),
(216,-10,o),
(371,-10,cs)
);
}
);
width = 652;
},
{
background = {
shapes = (
{
closed = 1;
nodes = (
(448,-10,o),
(517,15,o),
(560,39,c),
(563,44,l),
(535,106,l),
(531,108,l),
(476,92,o),
(427,82,o),
(380,82,c),
(243,82,o),
(170,170,o),
(170,346,cs),
(170,522,o),
(243,590,o),
(372,590,cs),
(435,590,o),
(470,577,o),
(521,556,c),
(525,558,l),
(555,640,l),
(552,645,l),
(514,664,o),
(454,680,o),
(375,680,cs),
(211,680,o),
(70,591,o),
(70,345,cs),
(70,99,o),
(214,-10,o),
(361,-10,c)
);
}
);
};
layerId = m002;
shapes = (
{
closed = 1;
nodes = (
(430,-10,o),
(509,-3,o),
(581,48,c),
(582,53,l),
(580,115,o),
(577,156,o),
(577,249,cs),
(577,295,o),
(580,335,o),
(582,381,c),
(577,386,l),
(558,385,o),
(524,384,o),
(485,384,cs),
(425,384,o),
(379,385,o),
(360,386,c),
(355,381,l),
(355,311,l),
(360,306,l),
(504,306,l),
(478,345,l),
(486,316,o),
(488,274,o),
(488,221,cs),
(488,128,o),
(483,114,o),
(474,43,c),
(532,114,l),
(494,93,o),
(446,80,o),
(374,80,cs),
(252,80,o),
(170,136,o),
(170,350,cs),
(170,558,o),
(245,620,o),
(369,620,cs),
(442,620,o),
(488,604,o),
(541,585,c),
(545,587,l),
(569,675,l),
(566,680,l),
(517,693,o),
(451,710,o),
(371,710,cs),
(220,710,o),
(70,629,o),
(70,350,cs),
(70,72,o),
(216,-10,o),
(371,-10,cs)
);
}
);
width = 652;
},
{
background = {
shapes = (
{
closed = 1;
nodes = (
(448,-10,o),
(517,15,o),
(560,39,c),
(563,44,l),
(535,106,l),
(531,108,l),
(476,92,o),
(427,82,o),
(380,82,c),
(243,82,o),
(170,170,o),
(170,346,cs),
(170,522,o),
(243,590,o),
(372,590,cs),
(435,590,o),
(470,577,o),
(521,556,c),
(525,558,l),
(555,640,l),
(552,645,l),
(514,664,o),
(454,680,o),
(375,680,cs),
(211,680,o),
(70,591,o),
(70,345,cs),
(70,99,o),
(214,-10,o),
(361,-10,c)
);
}
);
};
layerId = m003;
shapes = (
{
closed = 1;
nodes = (
(430,-10,o),
(509,-3,o),
(581,48,c),
(582,53,l),
(580,115,o),
(577,156,o),
(577,249,cs),
(577,295,o),
(580,335,o),
(582,381,c),
(577,386,l),
(558,385,o),
(524,384,o),
(485,384,cs),
(425,384,o),
(379,385,o),
(360,386,c),
(355,381,l),
(355,311,l),
(360,306,l),
(504,306,l),
(478,345,l),
(486,316,o),
(488,274,o),
(488,221,cs),
(488,128,o),
(483,114,o),
(474,43,c),
(532,114,l),
(494,93,o),
(446,80,o),
(374,80,cs),
(252,80,o),
(170,136,o),
(170,350,cs),
(170,558,o),
(245,620,o),
(369,620,cs),
(442,620,o),
(488,604,o),
(541,585,c),
(545,587,l),
(569,675,l),
(566,680,l),
(517,693,o),
(451,710,o),
(371,710,cs),
(220,710,o),
(70,629,o),
(70,350,cs),
(70,72,o),
(216,-10,o),
(371,-10,cs)
);
}
);
width = 652;
},
{
background = {
shapes = (
{
closed = 1;
nodes = (
(448,-10,o),
(517,15,o),
(560,39,c),
(563,44,l),
(535,106,l),
(531,108,l),
(476,92,o),
(427,82,o),
(380,82,c),
(243,82,o),
(170,170,o),
(170,346,cs),
(170,522,o),
(243,590,o),
(372,590,cs),
(435,590,o),
(470,577,o),
(521,556,c),
(525,558,l),
(555,640,l),
(552,645,l),
(514,664,o),
(454,680,o),
(375,680,cs),
(211,680,o),
(70,591,o),
(70,345,cs),
(70,99,o),
(214,-10,o),
(361,-10,c)
);
}
);
};
layerId = m004;
shapes = (
{
closed = 1;
nodes = (
(430,-10,o),
(509,-3,o),
(581,48,c),
(582,53,l),
(580,115,o),
(577,156,o),
(577,249,cs),
(577,295,o),
(580,335,o),
(582,381,c),
(577,386,l),
(558,385,o),
(524,384,o),
(485,384,cs),
(425,384,o),
(379,385,o),
(360,386,c),
(355,381,l),
(355,311,l),
(360,306,l),
(504,306,l),
(478,345,l),
(486,316,o),
(488,274,o),
(488,221,cs),
(488,128,o),
(483,114,o),
(474,43,c),
(532,114,l),
(494,93,o),
(446,80,o),
(374,80,cs),
(252,80,o),
(170,136,o),
(170,350,cs),
(170,558,o),
(245,620,o),
(369,620,cs),
(442,620,o),
(488,604,o),
(541,585,c),
(545,587,l),
(569,675,l),
(566,680,l),
(517,693,o),
(451,710,o),
(371,710,cs),
(220,710,o),
(70,629,o),
(70,350,cs),
(70,72,o),
(216,-10,o),
(371,-10,cs)
);
}
);
width = 652;
}
);
metricLeft = "=O";
unicode = 71;
}
{
color = (99,255,209,255);
glyphname = H;
layers = (
{
background = {
shapes = (
{
closed = 1;
nodes = (
(468,499,o),
(460,660,o),
(460,660,c),
(465,670,l),
(572,670,l),
(577,660,l),
(577,660,o),
(567,450,o),
(567,360,cs),
(567,310,o),
(576,83,o),
(577,12,cs),
(577,7,o),
(572,3,o),
(572,0,c),
(470,0,l),
(468,3,o),
(467,7,o),
(465,11,c),
(464,63,o),
(468,210,o),
(469,300,c),
(447,301,o),
(358,301,o),
(323,301,cs),
(290,301,o),
(186,301,o),
(166,300,c),
(168,184,o),
(175,10,o),
(175,10,c),
(170,0,l),
(63,0,l),
(58,10,l),
(58,10,o),
(67,255,o),
(67,360,cs),
(67,438,o),
(64,532,o),
(61,586,c),
(16,583,l),
(9,661,l),
(42,673,o),
(72,680,o),
(105,680,cs),
(145,680,o),
(160,657,o),
(160,619,c),
(160,619,o),
(164,509,o),
(165,400,c),
(186,399,o),
(290,399,o),
(323,399,cs),
(357,399,o),
(447,399,o),
(470,400,c)
);
}
);
};
layerId = master01;
shapes = (
{
closed = 1;
nodes = (
(584,0,l),
(584,1,o),
(585,3,o),
(587,5,cs),
(588,7,o),
(589,9,o),
(589,12,cs),
(588,81,o),
(579,278,o),
(579,352,cs),
(579,449,o),
(585,597,o),
(589,690,c),
(584,700,l),
(484,700,l),
(479,690,l),
(483,597,o),
(489,449,o),
(489,352,cs),
(489,289,o),
(483,74,o),
(484,11,c),
(485,9,o),
(486,7,o),
(487,5,cs),
(488,3,o),
(488,1,o),
(489,0,c)
);
},
{
closed = 1;
nodes = (
(185,0,l),
(185,1,o),
(186,3,o),
(188,5,cs),
(189,7,o),
(190,9,o),
(190,12,cs),
(189,81,o),
(180,278,o),
(180,352,cs),
(180,449,o),
(186,597,o),
(190,690,c),
(185,700,l),
(85,700,l),
(80,690,l),
(84,597,o),
(90,449,o),
(90,352,cs),
(90,289,o),
(84,74,o),
(85,11,c),
(86,9,o),
(87,7,o),
(88,5,cs),
(89,3,o),
(89,1,o),
(90,0,c)
);
},
{
closed = 1;
nodes = (
(150,311,o),
(284,313,o),
(325,313,cs),
(366,313,o),
(501,311,o),
(506,311,c),
(506,400,l),
(502,400,o),
(365,398,o),
(325,398,cs),
(285,398,o),
(149,400,o),
(145,400,c),
(145,311,l)
);
}
);
width = 669;
},
{
background = {
shapes = (
{
closed = 1;
nodes = (
(468,499,o),
(460,660,o),
(460,660,c),
(465,670,l),
(572,670,l),
(577,660,l),
(577,660,o),
(567,450,o),
(567,360,cs),
(567,310,o),
(576,83,o),
(577,12,cs),
(577,7,o),
(572,3,o),
(572,0,c),
(470,0,l),
(468,3,o),
(467,7,o),
(465,11,c),
(464,63,o),
(468,210,o),
(469,300,c),
(447,301,o),
(358,301,o),
(323,301,cs),
(290,301,o),
(186,301,o),
(166,300,c),
(168,184,o),
(175,10,o),
(175,10,c),
(170,0,l),
(63,0,l),
(58,10,l),
(58,10,o),
(67,255,o),
(67,360,cs),
(67,438,o),
(64,532,o),
(61,586,c),
(16,583,l),
(9,661,l),
(42,673,o),
(72,680,o),
(105,680,cs),
(145,680,o),
(160,657,o),
(160,619,c),
(160,619,o),
(164,509,o),
(165,400,c),
(186,399,o),
(290,399,o),
(323,399,cs),
(357,399,o),
(447,399,o),
(470,400,c)
);
}
);
};
layerId = m002;
shapes = (
{
closed = 1;
nodes = (
(584,0,l),
(584,1,o),
(585,3,o),
(587,5,cs),
(588,7,o),
(589,9,o),
(589,12,cs),
(588,81,o),
(579,278,o),
(579,352,cs),
(579,449,o),
(585,597,o),
(589,690,c),
(584,700,l),
(484,700,l),
(479,690,l),
(483,597,o),
(489,449,o),
(489,352,cs),
(489,289,o),
(483,74,o),
(484,11,c),
(485,9,o),
(486,7,o),
(487,5,cs),
(488,3,o),
(488,1,o),
(489,0,c)
);
},
{
closed = 1;
nodes = (
(185,0,l),
(185,1,o),
(186,3,o),
(188,5,cs),
(189,7,o),
(190,9,o),
(190,12,cs),
(189,81,o),
(180,278,o),
(180,352,cs),
(180,449,o),
(186,597,o),
(190,690,c),
(185,700,l),
(85,700,l),
(80,690,l),
(84,597,o),
(90,449,o),
(90,352,cs),
(90,289,o),
(84,74,o),
(85,11,c),
(86,9,o),
(87,7,o),
(88,5,cs),
(89,3,o),
(89,1,o),
(90,0,c)
);
},
{
closed = 1;
nodes = (
(150,311,o),
(284,313,o),
(325,313,cs),
(366,313,o),
(501,311,o),
(506,311,c),
(506,400,l),
(502,400,o),
(365,398,o),
(325,398,cs),
(285,398,o),
(149,400,o),
(145,400,c),
(145,311,l)
);
}
);
width = 669;
},
{
background = {
shapes = (
{
closed = 1;
nodes = (
(468,499,o),
(460,660,o),
(460,660,c),
(465,670,l),
(572,670,l),
(577,660,l),
(577,660,o),
(567,450,o),
(567,360,cs),
(567,310,o),
(576,83,o),
(577,12,cs),
(577,7,o),
(572,3,o),
(572,0,c),
(470,0,l),
(468,3,o),
(467,7,o),
(465,11,c),
(464,63,o),
(468,210,o),
(469,300,c),
(447,301,o),
(358,301,o),
(323,301,cs),
(290,301,o),
(186,301,o),
(166,300,c),
(168,184,o),
(175,10,o),
(175,10,c),
(170,0,l),
(63,0,l),
(58,10,l),
(58,10,o),
(67,255,o),
(67,360,cs),
(67,438,o),
(64,532,o),
(61,586,c),
(16,583,l),
(9,661,l),
(42,673,o),
(72,680,o),
(105,680,cs),
(145,680,o),
(160,657,o),
(160,619,c),
(160,619,o),
(164,509,o),
(165,400,c),
(186,399,o),
(290,399,o),
(323,399,cs),
(357,399,o),
(447,399,o),
(470,400,c)
);
}
);
};
layerId = m003;
shapes = (
{
closed = 1;
nodes = (
(584,0,l),
(584,1,o),
(585,3,o),
(587,5,cs),
(588,7,o),
(589,9,o),
(589,12,cs),
(588,81,o),
(579,278,o),
(579,352,cs),
(579,449,o),
(585,597,o),
(589,690,c),
(584,700,l),
(484,700,l),
(479,690,l),
(483,597,o),
(489,449,o),
(489,352,cs),
(489,289,o),
(483,74,o),
(484,11,c),
(485,9,o),
(486,7,o),
(487,5,cs),
(488,3,o),
(488,1,o),
(489,0,c)
);
},
{
closed = 1;
nodes = (
(185,0,l),
(185,1,o),
(186,3,o),
(188,5,cs),
(189,7,o),
(190,9,o),
(190,12,cs),
(189,81,o),
(180,278,o),
(180,352,cs),
(180,449,o),
(186,597,o),
(190,690,c),
(185,700,l),
(85,700,l),
(80,690,l),
(84,597,o),
(90,449,o),
(90,352,cs),
(90,289,o),
(84,74,o),
(85,11,c),
(86,9,o),
(87,7,o),
(88,5,cs),
(89,3,o),
(89,1,o),
(90,0,c)
);
},
{
closed = 1;
nodes = (
(150,311,o),
(284,313,o),
(325,313,cs),
(366,313,o),
(501,311,o),
(506,311,c),
(506,400,l),
(502,400,o),
(365,398,o),
(325,398,cs),
(285,398,o),
(149,400,o),
(145,400,c),
(145,311,l)
);
}
);
width = 669;
},
{
background = {
shapes = (
{
closed = 1;
nodes = (
(468,499,o),
(460,660,o),
(460,660,c),
(465,670,l),
(572,670,l),
(577,660,l),
(577,660,o),
(567,450,o),
(567,360,cs),
(567,310,o),
(576,83,o),
(577,12,cs),
(577,7,o),
(572,3,o),
(572,0,c),
(470,0,l),
(468,3,o),
(467,7,o),
(465,11,c),
(464,63,o),
(468,210,o),
(469,300,c),
(447,301,o),
(358,301,o),
(323,301,cs),
(290,301,o),
(186,301,o),
(166,300,c),
(168,184,o),
(175,10,o),
(175,10,c),
(170,0,l),
(63,0,l),
(58,10,l),
(58,10,o),
(67,255,o),
(67,360,cs),
(67,438,o),
(64,532,o),
(61,586,c),
(16,583,l),
(9,661,l),
(42,673,o),
(72,680,o),
(105,680,cs),
(145,680,o),
(160,657,o),
(160,619,c),
(160,619,o),
(164,509,o),
(165,400,c),
(186,399,o),
(290,399,o),
(323,399,cs),
(357,399,o),
(447,399,o),
(470,400,c)
);
}
);
};
layerId = m004;
shapes = (
{
closed = 1;
nodes = (
(584,0,l),
(584,1,o),
(585,3,o),
(587,5,cs),
(588,7,o),
(589,9,o),
(589,12,cs),
(588,81,o),
(579,278,o),
(579,352,cs),
(579,449,o),
(585,597,o),
(589,690,c),
(584,700,l),
(484,700,l),
(479,690,l),
(483,597,o),
(489,449,o),
(489,352,cs),
(489,289,o),
(483,74,o),
(484,11,c),
(485,9,o),
(486,7,o),
(487,5,cs),
(488,3,o),
(488,1,o),
(489,0,c)
);
},
{
closed = 1;
nodes = (
(185,0,l),
(185,1,o),
(186,3,o),
(188,5,cs),
(189,7,o),
(190,9,o),
(190,12,cs),
(189,81,o),
(180,278,o),
(180,352,cs),
(180,449,o),
(186,597,o),
(190,690,c),
(185,700,l),
(85,700,l),
(80,690,l),
(84,597,o),
(90,449,o),
(90,352,cs),
(90,289,o),
(84,74,o),
(85,11,c),
(86,9,o),
(87,7,o),
(88,5,cs),
(89,3,o),
(89,1,o),
(90,0,c)
);
},
{
closed = 1;
nodes = (
(150,311,o),
(284,313,o),
(325,313,cs),
(366,313,o),
(501,311,o),
(506,311,c),
(506,400,l),
(502,400,o),
(365,398,o),
(325,398,cs),
(285,398,o),
(149,400,o),
(145,400,c),
(145,311,l)
);
}
);
width = 669;
}
);
unicode = 72;
}
{
color = (99,255,209,255);
glyphname = I;
layers = (
{
anchors = (
{
name = bottom;
pos = (216,0);
},
{
name = ogonek;
pos = (364,7);
},
{
name = top;
pos = (216,700);
},
{
name = topleft;
pos = (15,700);
}
);
background = {
shapes = (
{
closed = 1;
nodes = (
(254,0,l),
(254,3,o),
(259,7,o),
(259,12,cs),
(258,82,o),
(249,260,o),
(249,352,cs),
(249,444,o),
(259,660,o),
(259,660,c),
(254,670,l),
(144,670,l),
(139,660,l),
(139,660,o),
(149,445,o),
(149,352,cs),
(149,259,o),
(143,77,o),
(144,11,c),
(146,7,o),
(147,3,o),
(149,0,c)
);
}
);
};
layerId = master01;
shapes = (
{
closed = 1;
nodes = (
(269,55,l),
(266,108,o),
(261,256,o),
(261,335,cs),
(261,415,o),
(266,587,o),
(269,636,c),
(240,610,l),
(257,609,o),
(280,609,o),
(309,608,cs),
(338,607,o),
(363,606,o),
(384,605,c),
(394,613,l),
(394,692,l),
(387,700,l),
(319,699,o),
(267,698,o),
(215,698,cs),
(164,698,o),
(110,699,o),
(41,700,c),
(35,693,l),
(35,613,l),
(41,605,l),
(70,608,o),
(96,609,o),
(119,610,cs),
(142,610,o),
(164,610,o),
(185,611,c),
(163,638,l),
(166,589,o),
(171,415,o),
(171,335,cs),
(171,256,o),
(166,108,o),
(163,55,c)
);
},
{
closed = 1;
nodes = (
(111,1,o),
(164,2,o),
(216,2,cs),
(268,2,o),
(319,1,o),
(387,0,c),
(396,13,l),
(396,80,l),
(384,95,l),
(317,90,o),
(266,88,o),
(215,88,cs),
(163,88,o),
(109,90,o),
(41,95,c),
(35,80,l),
(35,12,l),
(42,0,l)
);
}
);
width = 431;
},
{
anchors = (
{
name = bottom;
pos = (216,0);
},
{
name = ogonek;
pos = (364,7);
},
{
name = top;
pos = (216,700);
},
{
name = topleft;
pos = (15,700);
}
);
background = {
shapes = (
{
closed = 1;
nodes = (
(254,0,l),
(254,3,o),
(259,7,o),
(259,12,cs),
(258,82,o),
(249,260,o),
(249,352,cs),
(249,444,o),
(259,660,o),
(259,660,c),
(254,670,l),
(144,670,l),
(139,660,l),
(139,660,o),
(149,445,o),
(149,352,cs),
(149,259,o),
(143,77,o),
(144,11,c),
(146,7,o),
(147,3,o),
(149,0,c)
);
}
);
};
layerId = m002;
shapes = (
{
closed = 1;
nodes = (
(269,55,l),
(266,108,o),
(261,256,o),
(261,335,cs),
(261,415,o),
(266,587,o),
(269,636,c),
(240,610,l),
(257,609,o),
(280,609,o),
(309,608,cs),
(338,607,o),
(363,606,o),
(384,605,c),
(394,613,l),
(394,692,l),
(387,700,l),
(319,699,o),
(267,698,o),
(215,698,cs),
(164,698,o),
(110,699,o),
(41,700,c),
(35,693,l),
(35,613,l),
(41,605,l),
(70,608,o),
(96,609,o),
(119,610,cs),
(142,610,o),
(164,610,o),
(185,611,c),
(163,638,l),
(166,589,o),
(171,415,o),
(171,335,cs),
(171,256,o),
(166,108,o),
(163,55,c)
);
},
{
closed = 1;
nodes = (
(111,1,o),
(164,2,o),
(216,2,cs),
(268,2,o),
(319,1,o),
(387,0,c),
(396,13,l),
(396,80,l),
(384,95,l),
(317,90,o),
(266,88,o),
(215,88,cs),
(163,88,o),
(109,90,o),
(41,95,c),
(35,80,l),
(35,12,l),
(42,0,l)
);
}
);
width = 431;
},
{
anchors = (
{
name = bottom;
pos = (216,0);
},
{
name = ogonek;
pos = (364,7);
},
{
name = top;
pos = (216,700);
},
{
name = topleft;
pos = (15,700);
}
);
background = {
shapes = (
{
closed = 1;
nodes = (
(254,0,l),
(254,3,o),
(259,7,o),
(259,12,cs),
(258,82,o),
(249,260,o),
(249,352,cs),
(249,444,o),
(259,660,o),
(259,660,c),
(254,670,l),
(144,670,l),
(139,660,l),
(139,660,o),
(149,445,o),
(149,352,cs),
(149,259,o),
(143,77,o),
(144,11,c),
(146,7,o),
(147,3,o),
(149,0,c)
);
}
);
};
layerId = m003;
shapes = (
{
closed = 1;
nodes = (
(269,55,l),
(266,108,o),
(261,256,o),
(261,335,cs),
(261,415,o),
(266,587,o),
(269,636,c),
(240,610,l),
(257,609,o),
(280,609,o),
(309,608,cs),
(338,607,o),
(363,606,o),
(384,605,c),
(394,613,l),
(394,692,l),
(387,700,l),
(319,699,o),
(267,698,o),
(215,698,cs),
(164,698,o),
(110,699,o),
(41,700,c),
(35,693,l),
(35,613,l),
(41,605,l),
(70,608,o),
(96,609,o),
(119,610,cs),
(142,610,o),
(164,610,o),
(185,611,c),
(163,638,l),
(166,589,o),
(171,415,o),
(171,335,cs),
(171,256,o),
(166,108,o),
(163,55,c)
);
},
{
closed = 1;
nodes = (
(111,1,o),
(164,2,o),
(216,2,cs),
(268,2,o),
(319,1,o),
(387,0,c),
(396,13,l),
(396,80,l),
(384,95,l),
(317,90,o),
(266,88,o),
(215,88,cs),
(163,88,o),
(109,90,o),
(41,95,c),
(35,80,l),
(35,12,l),
(42,0,l)
);
}
);
width = 431;
},
{
anchors = (
{
name = bottom;
pos = (216,0);
},
{
name = ogonek;
pos = (364,7);
},
{
name = top;
pos = (216,700);
},
{
name = topleft;
pos = (15,700);
}
);
background = {
shapes = (
{
closed = 1;
nodes = (
(254,0,l),
(254,3,o),
(259,7,o),
(259,12,cs),
(258,82,o),
(249,260,o),
(249,352,cs),
(249,444,o),
(259,660,o),
(259,660,c),
(254,670,l),
(144,670,l),
(139,660,l),
(139,660,o),
(149,445,o),
(149,352,cs),
(149,259,o),
(143,77,o),
(144,11,c),
(146,7,o),
(147,3,o),
(149,0,c)
);
}
);
};
layerId = m004;
shapes = (
{
closed = 1;
nodes = (
(269,55,l),
(266,108,o),
(261,256,o),
(261,335,cs),
(261,415,o),
(266,587,o),
(269,636,c),
(240,610,l),
(257,609,o),
(280,609,o),
(309,608,cs),
(338,607,o),
(363,606,o),
(384,605,c),
(394,613,l),
(394,692,l),
(387,700,l),
(319,699,o),
(267,698,o),
(215,698,cs),
(164,698,o),
(110,699,o),
(41,700,c),
(35,693,l),
(35,613,l),
(41,605,l),
(70,608,o),
(96,609,o),
(119,610,cs),
(142,610,o),
(164,610,o),
(185,611,c),
(163,638,l),
(166,589,o),
(171,415,o),
(171,335,cs),
(171,256,o),
(166,108,o),
(163,55,c)
);
},
{
closed = 1;
nodes = (
(111,1,o),
(164,2,o),
(216,2,cs),
(268,2,o),
(319,1,o),
(387,0,c),
(396,13,l),
(396,80,l),
(384,95,l),
(317,90,o),
(266,88,o),
(215,88,cs),
(163,88,o),
(109,90,o),
(41,95,c),
(35,80,l),
(35,12,l),
(42,0,l)
);
}
);
width = 431;
}
);
unicode = 73;
}
{
glyphname = J;
layers = (
{
anchors = (
{
name = bottom;
pos = (141,0);
},
{
name = top;
pos = (152,699);
}
);
layerId = master01;
shapes = (
{
closed = 1;
nodes = (
(-19,-81,l),
(-35,-154,l),
(-33,-157,l),
(-10,-167,o),
(17,-173,o),
(41,-173,cs),
(141,-173,o),
(217,-106,o),
(214,21,cs),
(212,118,o),
(211,214,o),
(211,310,cs),
(211,439,o),
(213,566,o),
(218,690,c),
(208,700,l),
(129,700,l),
(119,690,l),
(124,595,o),
(125,497,o),
(125,398,cs),
(125,279,o),
(123,159,o),
(123,39,cs),
(123,-53,o),
(86,-83,o),
(36,-83,cs),
(20,-83,o),
(-1,-82,o),
(-16,-79,c)
);
}
);
width = 282;
},
{
anchors = (
{
name = bottom;
pos = (141,0);
},
{
name = top;
pos = (152,699);
}
);
layerId = m002;
shapes = (
{
closed = 1;
nodes = (
(-19,3,l),
(-35,-119,l),
(-33,-122,l),
(-10,-137,o),
(42,-173,o),
(123,-173,cs),
(238,-173,o),
(308,-81,o),
(305,65,cs),
(303,162,o),
(302,209,o),
(302,305,cs),
(302,434,o),
(304,561,o),
(309,690,c),
(301,700,l),
(129,700,l),
(119,690,l),
(124,595,o),
(125,497,o),
(125,398,cs),
(125,279,o),
(123,243,o),
(123,123,cs),
(123,31,o),
(86,-3,o),
(42,-3,cs),
(20,-3,o),
(4,-2,o),
(-16,5,c)
);
}
);
width = 359;
},
{
anchors = (
{
name = bottom;
pos = (14,0);
},
{
name = top;
pos = (361,699);
}
);
layerId = m003;
shapes = (
{
closed = 1;
nodes = (
(-92,-81,l),
(-124,-154,l),
(-122,-157,l),
(-102,-167,o),
(-76,-173,o),
(-52,-173,cs),
(48,-173,o),
(138,-106,o),
(162,21,cs),
(181,118,o),
(200,214,o),
(221,310,cs),
(248,439,o),
(277,566,o),
(309,690,c),
(301,700,l),
(222,700,l),
(210,690,l),
(194,595,o),
(175,497,o),
(154,398,cs),
(128,279,o),
(101,159,o),
(75,39,cs),
(56,-53,o),
(12,-83,o),
(-38,-83,cs),
(-54,-83,o),
(-74,-82,o),
(-89,-79,c)
);
}
);
width = 282;
},
{
anchors = (
{
name = bottom;
pos = (141,0);
},
{
name = top;
pos = (152,699);
}
);
layerId = m004;
shapes = (
{
closed = 1;
nodes = (
(-74,3,l),
(-116,-119,l),
(-115,-122,l),
(-95,-137,o),
(-51,-173,o),
(30,-173,cs),
(145,-173,o),
(235,-81,o),
(263,65,cs),
(281,162,o),
(290,209,o),
(311,305,cs),
(338,434,o),
(367,561,o),
(400,690,c),
(394,700,l),
(222,700,l),
(210,690,l),
(194,595,o),
(175,497,o),
(154,398,cs),
(128,279,o),
(119,243,o),
(93,123,cs),
(74,31,o),
(29,-3,o),
(-15,-3,cs),
(-37,-3,o),
(-52,-2,o),
(-71,5,c)
);
}
);
width = 359;
}
);
unicode = 74;
}
{
glyphname = K;
layers = (
{
anchors = (
{
name = bottom;
pos = (270,0);
},
{
name = top;
pos = (270,700);
}
);
layerId = master01;
shapes = (
{
closed = 1;
nodes = (
(203,0,l),
(208,10,l),
(202,93,o),
(198,252,o),
(198,352,cs),
(198,459,o),
(203,623,o),
(203,644,cs),
(203,683,o),
(187,706,o),
(142,706,cs),
(110,706,o),
(71,696,o),
(40,688,c),
(48,625,l),
(119,629,l),
(98,658,l),
(104,572,o),
(109,487,o),
(109,356,cs),
(109,244,o),
(105,93,o),
(99,10,c),
(104,0,l)
);
},
{
closed = 1;
nodes = (
(184,285,l),
(309,423,o),
(402,576,o),
(487,684,c),
(482,699,l),
(382,700,l),
(380,699,o),
(376,697,o),
(374,696,c),
(343,656,o),
(185,387,o),
(177,387,c)
);
},
{
closed = 1;
nodes = (
(268,408,l),
(211,350,l),
(277,217,l),
(353,71,o),
(392,-11,o),
(448,-11,cs),
(473,-11,o),
(502,3,o),
(535,35,c),
(515,87,l),
(428,77,l),
(468,50,l)
);
}
);
width = 540;
},
{
anchors = (
{
name = bottom;
pos = (270,0);
},
{
name = top;
pos = (270,700);
}
);
layerId = m002;
shapes = (
{
closed = 1;
nodes = (
(203,0,l),
(208,10,l),
(202,93,o),
(198,252,o),
(198,352,cs),
(198,459,o),
(203,623,o),
(203,644,cs),
(203,683,o),
(187,706,o),
(142,706,cs),
(110,706,o),
(71,696,o),
(40,688,c),
(48,625,l),
(119,629,l),
(98,658,l),
(104,572,o),
(109,487,o),
(109,356,cs),
(109,244,o),
(105,93,o),
(99,10,c),
(104,0,l)
);
},
{
closed = 1;
nodes = (
(184,285,l),
(309,423,o),
(402,576,o),
(487,684,c),
(482,699,l),
(382,700,l),
(380,699,o),
(376,697,o),
(374,696,c),
(343,656,o),
(185,387,o),
(177,387,c)
);
},
{
closed = 1;
nodes = (
(268,408,l),
(211,350,l),
(277,217,l),
(353,71,o),
(392,-11,o),
(448,-11,cs),
(473,-11,o),
(502,3,o),
(535,35,c),
(515,87,l),
(428,77,l),
(468,50,l)
);
}
);
width = 540;
},
{
anchors = (
{
name = bottom;
pos = (270,0);
},
{
name = top;
pos = (270,700);
}
);
layerId = m003;
shapes = (
{
closed = 1;
nodes = (
(203,0,l),
(208,10,l),
(202,93,o),
(198,252,o),
(198,352,cs),
(198,459,o),
(203,623,o),
(203,644,cs),
(203,683,o),
(187,706,o),
(142,706,cs),
(110,706,o),
(71,696,o),
(40,688,c),
(48,625,l),
(119,629,l),
(98,658,l),
(104,572,o),
(109,487,o),
(109,356,cs),
(109,244,o),
(105,93,o),
(99,10,c),
(104,0,l)
);
},
{
closed = 1;
nodes = (
(184,285,l),
(309,423,o),
(402,576,o),
(487,684,c),
(482,699,l),
(382,700,l),
(380,699,o),
(376,697,o),
(374,696,c),
(343,656,o),
(185,387,o),
(177,387,c)
);
},
{
closed = 1;
nodes = (
(268,408,l),
(211,350,l),
(277,217,l),
(353,71,o),
(392,-11,o),
(448,-11,cs),
(473,-11,o),
(502,3,o),
(535,35,c),
(515,87,l),
(428,77,l),
(468,50,l)
);
}
);
width = 540;
},
{
anchors = (
{
name = bottom;
pos = (270,0);
},
{
name = top;
pos = (270,700);
}
);
layerId = m004;
shapes = (
{
closed = 1;
nodes = (
(203,0,l),
(208,10,l),
(202,93,o),
(198,252,o),
(198,352,cs),
(198,459,o),
(203,623,o),
(203,644,cs),
(203,683,o),
(187,706,o),
(142,706,cs),
(110,706,o),
(71,696,o),
(40,688,c),
(48,625,l),
(119,629,l),
(98,658,l),
(104,572,o),
(109,487,o),
(109,356,cs),
(109,244,o),
(105,93,o),
(99,10,c),
(104,0,l)
);
},
{
closed = 1;
nodes = (
(184,285,l),
(309,423,o),
(402,576,o),
(487,684,c),
(482,699,l),
(382,700,l),
(380,699,o),
(376,697,o),
(374,696,c),
(343,656,o),
(185,387,o),
(177,387,c)
);
},
{
closed = 1;
nodes = (
(268,408,l),
(211,350,l),
(277,217,l),
(353,71,o),
(392,-11,o),
(448,-11,cs),
(473,-11,o),
(502,3,o),
(535,35,c),
(515,87,l),
(428,77,l),
(468,50,l)
);
}
);
width = 540;
}
);
unicode = 75;
}
{
glyphname = R;
layers = (
{
anchors = (
{
name = bottom;
pos = (303,0);
},
{
name = top;
pos = (303,700);
}
);
layerId = master01;
shapes = (
{
closed = 1;
nodes = (
(190,0,l),
(195,10,l),
(189,110,o),
(180,232,o),
(180,405,cs),
(180,525,o),
(183,565,o),
(186,657,c),
(156,620,l),
(253,620,ls),
(357,620,o),
(409,567,o),
(409,488,cs),
(409,399,o),
(354,377,o),
(244,377,cs),
(173,377,l),
(173,297,l),
(249,297,ls),
(411,297,o),
(502,352,o),
(502,490,cs),
(502,619,o),
(413,705,o),
(253,705,cs),
(85,705,l),
(80,695,l),
(84,600,o),
(90,503,o),
(90,383,cs),
(90,207,o),
(84,108,o),
(80,10,c),
(85,0,l)
);
},
{
closed = 1;
nodes = (
(501,-9,o),
(520,2,o),
(559,27,c),
(540,85,l),
(461,77,l),
(493,55,l),
(461,116,o),
(389,287,o),
(366,346,c),
(254,313,l),
(270,302,o),
(293,284,o),
(308,254,cs),
(344,184,o),
(365,117,o),
(386,69,cs),
(409,17,o),
(428,-9,o),
(469,-9,cs)
);
}
);
width = 605;
},
{
anchors = (
{
name = bottom;
pos = (303,0);
},
{
name = top;
pos = (303,700);
}
);
layerId = m002;
shapes = (
{
closed = 1;
nodes = (
(190,0,l),
(195,10,l),
(189,110,o),
(180,232,o),
(180,405,cs),
(180,525,o),
(183,565,o),
(186,657,c),
(156,620,l),
(253,620,ls),
(357,620,o),
(409,567,o),
(409,488,cs),
(409,399,o),
(354,377,o),
(244,377,cs),
(173,377,l),
(173,297,l),
(249,297,ls),
(411,297,o),
(502,352,o),
(502,490,cs),
(502,619,o),
(413,705,o),
(253,705,cs),
(85,705,l),
(80,695,l),
(84,600,o),
(90,503,o),
(90,383,cs),
(90,207,o),
(84,108,o),
(80,10,c),
(85,0,l)
);
},
{
closed = 1;
nodes = (
(501,-9,o),
(520,2,o),
(559,27,c),
(540,85,l),
(461,77,l),
(493,55,l),
(461,116,o),
(389,287,o),
(366,346,c),
(254,313,l),
(270,302,o),
(293,284,o),
(308,254,cs),
(344,184,o),
(365,117,o),
(386,69,cs),
(409,17,o),
(428,-9,o),
(469,-9,cs)
);
}
);
width = 605;
},
{
anchors = (
{
name = bottom;
pos = (303,0);
},
{
name = top;
pos = (303,700);
}
);
layerId = m003;
shapes = (
{
closed = 1;
nodes = (
(190,0,l),
(195,10,l),
(189,110,o),
(180,232,o),
(180,405,cs),
(180,525,o),
(183,565,o),
(186,657,c),
(156,620,l),
(253,620,ls),
(357,620,o),
(409,567,o),
(409,488,cs),
(409,399,o),
(354,377,o),
(244,377,cs),
(173,377,l),
(173,297,l),
(249,297,ls),
(411,297,o),
(502,352,o),
(502,490,cs),
(502,619,o),
(413,705,o),
(253,705,cs),
(85,705,l),
(80,695,l),
(84,600,o),
(90,503,o),
(90,383,cs),
(90,207,o),
(84,108,o),
(80,10,c),
(85,0,l)
);
},
{
closed = 1;
nodes = (
(501,-9,o),
(520,2,o),
(559,27,c),
(540,85,l),
(461,77,l),
(493,55,l),
(461,116,o),
(389,287,o),
(366,346,c),
(254,313,l),
(270,302,o),
(293,284,o),
(308,254,cs),
(344,184,o),
(365,117,o),
(386,69,cs),
(409,17,o),
(428,-9,o),
(469,-9,cs)
);
}
);
width = 605;
},
{
anchors = (
{
name = bottom;
pos = (303,0);
},
{
name = top;
pos = (303,700);
}
);
layerId = m004;
shapes = (
{
closed = 1;
nodes = (
(190,0,l),
(195,10,l),
(189,110,o),
(180,232,o),
(180,405,cs),
(180,525,o),
(183,565,o),
(186,657,c),
(156,620,l),
(253,620,ls),
(357,620,o),
(409,567,o),
(409,488,cs),
(409,399,o),
(354,377,o),
(244,377,cs),
(173,377,l),
(173,297,l),
(249,297,ls),
(411,297,o),
(502,352,o),
(502,490,cs),
(502,619,o),
(413,705,o),
(253,705,cs),
(85,705,l),
(80,695,l),
(84,600,o),
(90,503,o),
(90,383,cs),
(90,207,o),
(84,108,o),
(80,10,c),
(85,0,l)
);
},
{
closed = 1;
nodes = (
(501,-9,o),
(520,2,o),
(559,27,c),
(540,85,l),
(461,77,l),
(493,55,l),
(461,116,o),
(389,287,o),
(366,346,c),
(254,313,l),
(270,302,o),
(293,284,o),
(308,254,cs),
(344,184,o),
(365,117,o),
(386,69,cs),
(409,17,o),
(428,-9,o),
(469,-9,cs)
);
}
);
width = 605;
}
);
metricLeft = "=H";
unicode = 82;
}
{
glyphname = S;
layers = (
{
anchors = (
{
name = bottom;
pos = (258,0);
},
{
name = top;
pos = (258,700);
}
);
background = {
shapes = (
{
closed = 1;
nodes = (
(246,0,ls),
(397,0,o),
(487,62,o),
(487,191,cs),
(487,320,o),
(397,379,o),
(228,364,c),
(249,359,l),
(360,366,o),
(441,421,o),
(441,516,c),
(441,614,o),
(365,675,o),
(243,675,cs),
(76,675,l),
(71,666,l),
(75,569,o),
(76,459,o),
(76,348,cs),
(76,232,o),
(75,115,o),
(71,12,c),
(76,0,l)
);
},
{
closed = 1;
nodes = (
(101,85,l),
(171,66,l),
(168,159,o),
(166,250,o),
(166,349,cs),
(166,431,o),
(168,521,o),
(171,617,c),
(141,590,l),
(224,590,ls),
(305,590,o),
(341,563,o),
(341,494,cs),
(341,437,o),
(303,388,o),
(214,388,cs),
(145,388,l),
(145,316,l),
(218,318,ls),
(326,321,o),
(387,285,o),
(387,203,cs),
(387,121,o),
(335,85,o),
(216,85,cs)
);
}
);
};
layerId = master01;
shapes = (
{
closed = 1;
nodes = (
(363,-11,o),
(475,42,o),
(475,194,cs),
(475,443,o),
(152,396,o),
(152,535,cs),
(152,597,o),
(209,627,o),
(274,627,cs),
(327,627,o),
(386,599,o),
(425,569,c),
(433,569,l),
(474,641,l),
(472,649,l),
(406,694,o),
(334,710,o),
(270,710,cs),
(155,710,o),
(62,645,o),
(62,536,cs),
(62,304,o),
(385,351,o),
(385,189,cs),
(385,106,o),
(327,74,o),
(273,74,cs),
(216,74,o),
(135,93,o),
(75,127,c),
(67,126,l),
(36,46,l),
(40,38,l),
(100,9,o),
(177,-11,o),
(259,-11,cs)
);
}
);
width = 515;
},
{
anchors = (
{
name = bottom;
pos = (258,0);
},
{
name = top;
pos = (258,700);
}
);
background = {
shapes = (
{
closed = 1;
nodes = (
(246,0,ls),
(397,0,o),
(487,62,o),
(487,191,cs),
(487,320,o),
(397,379,o),
(228,364,c),
(249,359,l),
(360,366,o),
(441,421,o),
(441,516,c),
(441,614,o),
(365,675,o),
(243,675,cs),
(76,675,l),
(71,666,l),
(75,569,o),
(76,459,o),
(76,348,cs),
(76,232,o),
(75,115,o),
(71,12,c),
(76,0,l)
);
},
{
closed = 1;
nodes = (
(101,85,l),
(171,66,l),
(168,159,o),
(166,250,o),
(166,349,cs),
(166,431,o),
(168,521,o),
(171,617,c),
(141,590,l),
(224,590,ls),
(305,590,o),
(341,563,o),
(341,494,cs),
(341,437,o),
(303,388,o),
(214,388,cs),
(145,388,l),
(145,316,l),
(218,318,ls),
(326,321,o),
(387,285,o),
(387,203,cs),
(387,121,o),
(335,85,o),
(216,85,cs)
);
}
);
};
layerId = m002;
shapes = (
{
closed = 1;
nodes = (
(363,-11,o),
(475,42,o),
(475,194,cs),
(475,443,o),
(152,396,o),
(152,535,cs),
(152,597,o),
(209,627,o),
(274,627,cs),
(327,627,o),
(386,599,o),
(425,569,c),
(433,569,l),
(474,641,l),
(472,649,l),
(406,694,o),
(334,710,o),
(270,710,cs),
(155,710,o),
(62,645,o),
(62,536,cs),
(62,304,o),
(385,351,o),
(385,189,cs),
(385,106,o),
(327,74,o),
(273,74,cs),
(216,74,o),
(135,93,o),
(75,127,c),
(67,126,l),
(36,46,l),
(40,38,l),
(100,9,o),
(177,-11,o),
(259,-11,cs)
);
}
);
width = 515;
},
{
anchors = (
{
name = bottom;
pos = (258,0);
},
{
name = top;
pos = (258,700);
}
);
background = {
shapes = (
{
closed = 1;
nodes = (
(246,0,ls),
(397,0,o),
(487,62,o),
(487,191,cs),
(487,320,o),
(397,379,o),
(228,364,c),
(249,359,l),
(360,366,o),
(441,421,o),
(441,516,c),
(441,614,o),
(365,675,o),
(243,675,cs),
(76,675,l),
(71,666,l),
(75,569,o),
(76,459,o),
(76,348,cs),
(76,232,o),
(75,115,o),
(71,12,c),
(76,0,l)
);
},
{
closed = 1;
nodes = (
(101,85,l),
(171,66,l),
(168,159,o),
(166,250,o),
(166,349,cs),
(166,431,o),
(168,521,o),
(171,617,c),
(141,590,l),
(224,590,ls),
(305,590,o),
(341,563,o),
(341,494,cs),
(341,437,o),
(303,388,o),
(214,388,cs),
(145,388,l),
(145,316,l),
(218,318,ls),
(326,321,o),
(387,285,o),
(387,203,cs),
(387,121,o),
(335,85,o),
(216,85,cs)
);
}
);
};
layerId = m003;
shapes = (
{
closed = 1;
nodes = (
(363,-11,o),
(475,42,o),
(475,194,cs),
(475,443,o),
(152,396,o),
(152,535,cs),
(152,597,o),
(209,627,o),
(274,627,cs),
(327,627,o),
(386,599,o),
(425,569,c),
(433,569,l),
(474,641,l),
(472,649,l),
(406,694,o),
(334,710,o),
(270,710,cs),
(155,710,o),
(62,645,o),
(62,536,cs),
(62,304,o),
(385,351,o),
(385,189,cs),
(385,106,o),
(327,74,o),
(273,74,cs),
(216,74,o),
(135,93,o),
(75,127,c),
(67,126,l),
(36,46,l),
(40,38,l),
(100,9,o),
(177,-11,o),
(259,-11,cs)
);
}
);
width = 515;
},
{
anchors = (
{
name = bottom;
pos = (258,0);
},
{
name = top;
pos = (258,700);
}
);
background = {
shapes = (
{
closed = 1;
nodes = (
(246,0,ls),
(397,0,o),
(487,62,o),
(487,191,cs),
(487,320,o),
(397,379,o),
(228,364,c),
(249,359,l),
(360,366,o),
(441,421,o),
(441,516,c),
(441,614,o),
(365,675,o),
(243,675,cs),
(76,675,l),
(71,666,l),
(75,569,o),
(76,459,o),
(76,348,cs),
(76,232,o),
(75,115,o),
(71,12,c),
(76,0,l)
);
},
{
closed = 1;
nodes = (
(101,85,l),
(171,66,l),
(168,159,o),
(166,250,o),
(166,349,cs),
(166,431,o),
(168,521,o),
(171,617,c),
(141,590,l),
(224,590,ls),
(305,590,o),
(341,563,o),
(341,494,cs),
(341,437,o),
(303,388,o),
(214,388,cs),
(145,388,l),
(145,316,l),
(218,318,ls),
(326,321,o),
(387,285,o),
(387,203,cs),
(387,121,o),
(335,85,o),
(216,85,cs)
);
}
);
};
layerId = m004;
shapes = (
{
closed = 1;
nodes = (
(363,-11,o),
(475,42,o),
(475,194,cs),
(475,443,o),
(152,396,o),
(152,535,cs),
(152,597,o),
(209,627,o),
(274,627,cs),
(327,627,o),
(386,599,o),
(425,569,c),
(433,569,l),
(474,641,l),
(472,649,l),
(406,694,o),
(334,710,o),
(270,710,cs),
(155,710,o),
(62,645,o),
(62,536,cs),
(62,304,o),
(385,351,o),
(385,189,cs),
(385,106,o),
(327,74,o),
(273,74,cs),
(216,74,o),
(135,93,o),
(75,127,c),
(67,126,l),
(36,46,l),
(40,38,l),
(100,9,o),
(177,-11,o),
(259,-11,cs)
);
}
);
width = 515;
}
);
unicode = 83;
}
{
color = (99,255,209,255);
glyphname = V;
layers = (
{
background = {
shapes = (
{
closed = 1;
nodes = (
(128,-10,o),
(51,74,o),
(51,276,cs),
(51,660,l),
(60,670,l),
(142,670,l),
(151,661,l),
(151,266,ls),
(151,144,o),
(201,75,o),
(316,75,c),
(402,75,o),
(459,139,o),
(459,274,cs),
(459,661,l),
(468,670,l),
(545,670,l),
(554,660,l),
(554,288,ls),
(554,107,o),
(469,-10,o),
(310,-10,c)
);
}
);
};
layerId = master01;
shapes = (
{
closed = 1;
nodes = (
(354,0,l),
(360,10,l),
(411,200,o),
(493,472,o),
(571,687,c),
(566,697,l),
(559,697,o),
(483,697,o),
(476,697,c),
(470,687,l),
(429,499,o),
(333,224,o),
(286,40,c),
(314,40,l),
(258,231,o),
(174,473,o),
(126,692,c),
(119,700,l),
(112,700,o),
(28,700,o),
(21,700,c),
(15,690,l),
(100,473,o),
(163,227,o),
(220,10,c),
(226,0,l)
);
}
);
width = 586;
},
{
background = {
shapes = (
{
closed = 1;
nodes = (
(128,-10,o),
(51,74,o),
(51,276,cs),
(51,660,l),
(60,670,l),
(142,670,l),
(151,661,l),
(151,266,ls),
(151,144,o),
(201,75,o),
(316,75,c),
(402,75,o),
(459,139,o),
(459,274,cs),
(459,661,l),
(468,670,l),
(545,670,l),
(554,660,l),
(554,288,ls),
(554,107,o),
(469,-10,o),
(310,-10,c)
);
}
);
};
layerId = m002;
shapes = (
{
closed = 1;
nodes = (
(354,0,l),
(360,10,l),
(411,200,o),
(493,472,o),
(571,687,c),
(566,697,l),
(559,697,o),
(483,697,o),
(476,697,c),
(470,687,l),
(429,499,o),
(333,224,o),
(286,40,c),
(314,40,l),
(258,231,o),
(174,473,o),
(126,692,c),
(119,700,l),
(112,700,o),
(28,700,o),
(21,700,c),
(15,690,l),
(100,473,o),
(163,227,o),
(220,10,c),
(226,0,l)
);
}
);
width = 586;
},
{
background = {
shapes = (
{
closed = 1;
nodes = (
(128,-10,o),
(51,74,o),
(51,276,cs),
(51,660,l),
(60,670,l),
(142,670,l),
(151,661,l),
(151,266,ls),
(151,144,o),
(201,75,o),
(316,75,c),
(402,75,o),
(459,139,o),
(459,274,cs),
(459,661,l),
(468,670,l),
(545,670,l),
(554,660,l),
(554,288,ls),
(554,107,o),
(469,-10,o),
(310,-10,c)
);
}
);
};
layerId = m003;
shapes = (
{
closed = 1;
nodes = (
(354,0,l),
(360,10,l),
(411,200,o),
(493,472,o),
(571,687,c),
(566,697,l),
(559,697,o),
(483,697,o),
(476,697,c),
(470,687,l),
(429,499,o),
(333,224,o),
(286,40,c),
(314,40,l),
(258,231,o),
(174,473,o),
(126,692,c),
(119,700,l),
(112,700,o),
(28,700,o),
(21,700,c),
(15,690,l),
(100,473,o),
(163,227,o),
(220,10,c),
(226,0,l)
);
}
);
width = 586;
},
{
background = {
shapes = (
{
closed = 1;
nodes = (
(128,-10,o),
(51,74,o),
(51,276,cs),
(51,660,l),
(60,670,l),
(142,670,l),
(151,661,l),
(151,266,ls),
(151,144,o),
(201,75,o),
(316,75,c),
(402,75,o),
(459,139,o),
(459,274,cs),
(459,661,l),
(468,670,l),
(545,670,l),
(554,660,l),
(554,288,ls),
(554,107,o),
(469,-10,o),
(310,-10,c)
);
}
);
};
layerId = m004;
shapes = (
{
closed = 1;
nodes = (
(354,0,l),
(360,10,l),
(411,200,o),
(493,472,o),
(571,687,c),
(566,697,l),
(559,697,o),
(483,697,o),
(476,697,c),
(470,687,l),
(429,499,o),
(333,224,o),
(286,40,c),
(314,40,l),
(258,231,o),
(174,473,o),
(126,692,c),
(119,700,l),
(112,700,o),
(28,700,o),
(21,700,c),
(15,690,l),
(100,473,o),
(163,227,o),
(220,10,c),
(226,0,l)
);
}
);
width = 586;
}
);
unicode = 86;
}
{
glyphname = W;
layers = (
{
anchors = (
{
name = bottom;
pos = (469,0);
},
{
name = top;
pos = (469,700);
}
);
layerId = master01;
shapes = (
{
closed = 1;
nodes = (
(730,700,l),
(726,690,l),
(710,486,o),
(669,278,o),
(638,50,c),
(680,50,l),
(631,177,o),
(536,452,o),
(493,620,c),
(486,630,l),
(375,630,l),
(368,621,l),
(330,466,o),
(243,207,o),
(197,50,c),
(230,50,l),
(209,218,o),
(167,452,o),
(141,690,c),
(134,700,l),
(40,700,l),
(35,690,l),
(63,526,o),
(127,182,o),
(140,6,c),
(154,0,l),
(270,0,l),
(276,8,l),
(329,203,o),
(386,360,o),
(436,567,c),
(406,567,l),
(464,353,o),
(517,216,o),
(584,7,c),
(590,0,l),
(712,0,l),
(720,6,l),
(733,194,o),
(789,503,o),
(824,690,c),
(818,700,l)
);
}
);
width = 859;
},
{
anchors = (
{
name = bottom;
pos = (469,0);
},
{
name = top;
pos = (469,700);
}
);
layerId = m002;
shapes = (
{
closed = 1;
nodes = (
(730,700,l),
(726,690,l),
(710,486,o),
(669,278,o),
(638,50,c),
(680,50,l),
(631,177,o),
(536,452,o),
(493,620,c),
(486,630,l),
(375,630,l),
(368,621,l),
(330,466,o),
(243,207,o),
(197,50,c),
(230,50,l),
(209,218,o),
(167,452,o),
(141,690,c),
(134,700,l),
(40,700,l),
(35,690,l),
(63,526,o),
(127,182,o),
(140,6,c),
(154,0,l),
(270,0,l),
(276,8,l),
(329,203,o),
(386,360,o),
(436,567,c),
(406,567,l),
(464,353,o),
(517,216,o),
(584,7,c),
(590,0,l),
(712,0,l),
(720,6,l),
(733,194,o),
(789,503,o),
(824,690,c),
(818,700,l)
);
}
);
width = 859;
},
{
anchors = (
{
name = bottom;
pos = (469,0);
},
{
name = top;
pos = (469,700);
}
);
layerId = m003;
shapes = (
{
closed = 1;
nodes = (
(730,700,l),
(726,690,l),
(710,486,o),
(669,278,o),
(638,50,c),
(680,50,l),
(631,177,o),
(536,452,o),
(493,620,c),
(486,630,l),
(375,630,l),
(368,621,l),
(330,466,o),
(243,207,o),
(197,50,c),
(230,50,l),
(209,218,o),
(167,452,o),
(141,690,c),
(134,700,l),
(40,700,l),
(35,690,l),
(63,526,o),
(127,182,o),
(140,6,c),
(154,0,l),
(270,0,l),
(276,8,l),
(329,203,o),
(386,360,o),
(436,567,c),
(406,567,l),
(464,353,o),
(517,216,o),
(584,7,c),
(590,0,l),
(712,0,l),
(720,6,l),
(733,194,o),
(789,503,o),
(824,690,c),
(818,700,l)
);
}
);
width = 859;
},
{
anchors = (
{
name = bottom;
pos = (469,0);
},
{
name = top;
pos = (469,700);
}
);
layerId = m004;
shapes = (
{
closed = 1;
nodes = (
(730,700,l),
(726,690,l),
(710,486,o),
(669,278,o),
(638,50,c),
(680,50,l),
(631,177,o),
(536,452,o),
(493,620,c),
(486,630,l),
(375,630,l),
(368,621,l),
(330,466,o),
(243,207,o),
(197,50,c),
(230,50,l),
(209,218,o),
(167,452,o),
(141,690,c),
(134,700,l),
(40,700,l),
(35,690,l),
(63,526,o),
(127,182,o),
(140,6,c),
(154,0,l),
(270,0,l),
(276,8,l),
(329,203,o),
(386,360,o),
(436,567,c),
(406,567,l),
(464,353,o),
(517,216,o),
(584,7,c),
(590,0,l),
(712,0,l),
(720,6,l),
(733,194,o),
(789,503,o),
(824,690,c),
(818,700,l)
);
}
);
width = 859;
}
);
unicode = 87;
}
{
glyphname = X;
layers = (
{
layerId = master01;
shapes = (
{
closed = 1;
nodes = (
(540,0,l),
(547,15,l),
(398,242,o),
(234,526,o),
(170,686,c),
(159,700,l),
(46,700,l),
(40,686,l),
(160,511,o),
(328,198,o),
(419,14,c),
(430,0,l)
);
},
{
closed = 1;
nodes = (
(135,0,l),
(142,18,l),
(200,147,o),
(236,201,o),
(315,339,c),
(245,386,l),
(149,197,o),
(116,148,o),
(25,15,c),
(31,0,l)
);
},
{
closed = 1;
nodes = (
(369,434,o),
(446,555,o),
(528,686,c),
(522,700,l),
(413,700,l),
(402,686,l),
(347,537,o),
(292,440,o),
(222,329,c),
(306,305,l)
);
}
);
width = 572;
},
{
layerId = m002;
shapes = (
{
closed = 1;
nodes = (
(540,0,l),
(547,15,l),
(398,242,o),
(234,526,o),
(170,686,c),
(159,700,l),
(46,700,l),
(40,686,l),
(160,511,o),
(328,198,o),
(419,14,c),
(430,0,l)
);
},
{
closed = 1;
nodes = (
(135,0,l),
(142,18,l),
(200,147,o),
(236,201,o),
(315,339,c),
(245,386,l),
(149,197,o),
(116,148,o),
(25,15,c),
(31,0,l)
);
},
{
closed = 1;
nodes = (
(369,434,o),
(446,555,o),
(528,686,c),
(522,700,l),
(413,700,l),
(402,686,l),
(347,537,o),
(292,440,o),
(222,329,c),
(306,305,l)
);
}
);
width = 572;
},
{
layerId = m003;
shapes = (
{
closed = 1;
nodes = (
(540,0,l),
(547,15,l),
(398,242,o),
(234,526,o),
(170,686,c),
(159,700,l),
(46,700,l),
(40,686,l),
(160,511,o),
(328,198,o),
(419,14,c),
(430,0,l)
);
},
{
closed = 1;
nodes = (
(135,0,l),
(142,18,l),
(200,147,o),
(236,201,o),
(315,339,c),
(245,386,l),
(149,197,o),
(116,148,o),
(25,15,c),
(31,0,l)
);
},
{
closed = 1;
nodes = (
(369,434,o),
(446,555,o),
(528,686,c),
(522,700,l),
(413,700,l),
(402,686,l),
(347,537,o),
(292,440,o),
(222,329,c),
(306,305,l)
);
}
);
width = 572;
},
{
layerId = m004;
shapes = (
{
closed = 1;
nodes = (
(540,0,l),
(547,15,l),
(398,242,o),
(234,526,o),
(170,686,c),
(159,700,l),
(46,700,l),
(40,686,l),
(160,511,o),
(328,198,o),
(419,14,c),
(430,0,l)
);
},
{
closed = 1;
nodes = (
(135,0,l),
(142,18,l),
(200,147,o),
(236,201,o),
(315,339,c),
(245,386,l),
(149,197,o),
(116,148,o),
(25,15,c),
(31,0,l)
);
},
{
closed = 1;
nodes = (
(369,434,o),
(446,555,o),
(528,686,c),
(522,700,l),
(413,700,l),
(402,686,l),
(347,537,o),
(292,440,o),
(222,329,c),
(306,305,l)
);
}
);
width = 572;
}
);
unicode = 88;
}
{
glyphname = Y;
layers = (
{
anchors = (
{
name = bottom;
pos = (250,0);
},
{
name = top;
pos = (250,700);
},
{
name = topleft;
pos = (20,700);
}
);
layerId = master01;
shapes = (
{
closed = 1;
nodes = (
(300,-5,l),
(305,0,l),
(299,52,o),
(299,104,o),
(299,166,cs),
(299,281,o),
(299,333,o),
(299,339,c),
(209,339,l),
(209,333,o),
(209,282,o),
(209,166,cs),
(209,103,o),
(209,52,o),
(203,0,c),
(208,-5,l)
);
},
{
closed = 1;
nodes = (
(290,235,l),
(298,245,l),
(355,378,o),
(457,614,o),
(503,690,c),
(498,700,l),
(410,700,l),
(403,692,l),
(379,623,o),
(305,450,o),
(229,293,c),
(290,293,l),
(212,444,o),
(130,647,o),
(117,690,c),
(111,700,l),
(9,700,l),
(5,690,l),
(33,639,o),
(157,378,o),
(208,244,c),
(216,234,l)
);
}
);
width = 508;
},
{
anchors = (
{
name = bottom;
pos = (250,0);
},
{
name = top;
pos = (250,700);
},
{
name = topleft;
pos = (20,700);
}
);
layerId = m002;
shapes = (
{
closed = 1;
nodes = (
(300,-5,l),
(305,0,l),
(299,52,o),
(299,104,o),
(299,166,cs),
(299,281,o),
(299,333,o),
(299,339,c),
(209,339,l),
(209,333,o),
(209,282,o),
(209,166,cs),
(209,103,o),
(209,52,o),
(203,0,c),
(208,-5,l)
);
},
{
closed = 1;
nodes = (
(290,235,l),
(298,245,l),
(355,378,o),
(457,614,o),
(503,690,c),
(498,700,l),
(410,700,l),
(403,692,l),
(379,623,o),
(305,450,o),
(229,293,c),
(290,293,l),
(212,444,o),
(130,647,o),
(117,690,c),
(111,700,l),
(9,700,l),
(5,690,l),
(33,639,o),
(157,378,o),
(208,244,c),
(216,234,l)
);
}
);
width = 508;
},
{
anchors = (
{
name = bottom;
pos = (250,0);
},
{
name = top;
pos = (250,700);
},
{
name = topleft;
pos = (20,700);
}
);
layerId = m003;
shapes = (
{
closed = 1;
nodes = (
(300,-5,l),
(305,0,l),
(299,52,o),
(299,104,o),
(299,166,cs),
(299,281,o),
(299,333,o),
(299,339,c),
(209,339,l),
(209,333,o),
(209,282,o),
(209,166,cs),
(209,103,o),
(209,52,o),
(203,0,c),
(208,-5,l)
);
},
{
closed = 1;
nodes = (
(290,235,l),
(298,245,l),
(355,378,o),
(457,614,o),
(503,690,c),
(498,700,l),
(410,700,l),
(403,692,l),
(379,623,o),
(305,450,o),
(229,293,c),
(290,293,l),
(212,444,o),
(130,647,o),
(117,690,c),
(111,700,l),
(9,700,l),
(5,690,l),
(33,639,o),
(157,378,o),
(208,244,c),
(216,234,l)
);
}
);
width = 508;
},
{
anchors = (
{
name = bottom;
pos = (250,0);
},
{
name = top;
pos = (250,700);
},
{
name = topleft;
pos = (20,700);
}
);
layerId = m004;
shapes = (
{
closed = 1;
nodes = (
(300,-5,l),
(305,0,l),
(299,52,o),
(299,104,o),
(299,166,cs),
(299,281,o),
(299,333,o),
(299,339,c),
(209,339,l),
(209,333,o),
(209,282,o),
(209,166,cs),
(209,103,o),
(209,52,o),
(203,0,c),
(208,-5,l)
);
},
{
closed = 1;
nodes = (
(290,235,l),
(298,245,l),
(355,378,o),
(457,614,o),
(503,690,c),
(498,700,l),
(410,700,l),
(403,692,l),
(379,623,o),
(305,450,o),
(229,293,c),
(290,293,l),
(212,444,o),
(130,647,o),
(117,690,c),
(111,700,l),
(9,700,l),
(5,690,l),
(33,639,o),
(157,378,o),
(208,244,c),
(216,234,l)
);
}
);
width = 508;
}
);
unicode = 89;
}
{
glyphname = Z;
layers = (
{
anchors = (
{
name = bottom;
pos = (245,11);
},
{
name = center;
pos = (245,350);
},
{
name = top;
pos = (245,700);
}
);
layerId = master01;
shapes = (
{
closed = 1;
nodes = (
(82,3,o),
(147,6,o),
(239,6,cs),
(320,6,o),
(448,5,o),
(476,0,c),
(482,14,l),
(483,88,l),
(477,100,l),
(341,92,o),
(278,89,o),
(121,89,c),
(156,47,l),
(239,233,o),
(387,495,o),
(480,690,c),
(473,705,l),
(389,698,o),
(306,700,o),
(243,700,cs),
(186,700,o),
(70,702,o),
(52,705,c),
(45,691,l),
(45,617,l),
(55,604,l),
(169,614,o),
(212,616,o),
(371,616,c),
(346,654,l),
(268,445,o),
(159,277,o),
(21,15,c),
(27,0,l)
);
}
);
width = 490;
},
{
anchors = (
{
name = bottom;
pos = (245,11);
},
{
name = center;
pos = (245,350);
},
{
name = top;
pos = (245,700);
}
);
layerId = m002;
shapes = (
{
closed = 1;
nodes = (
(82,3,o),
(147,6,o),
(239,6,cs),
(320,6,o),
(448,5,o),
(476,0,c),
(482,14,l),
(483,88,l),
(477,100,l),
(341,92,o),
(278,89,o),
(121,89,c),
(156,47,l),
(239,233,o),
(387,495,o),
(480,690,c),
(473,705,l),
(389,698,o),
(306,700,o),
(243,700,cs),
(186,700,o),
(70,702,o),
(52,705,c),
(45,691,l),
(45,617,l),
(55,604,l),
(169,614,o),
(212,616,o),
(371,616,c),
(346,654,l),
(268,445,o),
(159,277,o),
(21,15,c),
(27,0,l)
);
}
);
width = 490;
},
{
anchors = (
{
name = bottom;
pos = (245,11);
},
{
name = center;
pos = (245,350);
},
{
name = top;
pos = (245,700);
}
);
layerId = m003;
shapes = (
{
closed = 1;
nodes = (
(82,3,o),
(147,6,o),
(239,6,cs),
(320,6,o),
(448,5,o),
(476,0,c),
(482,14,l),
(483,88,l),
(477,100,l),
(341,92,o),
(278,89,o),
(121,89,c),
(156,47,l),
(239,233,o),
(387,495,o),
(480,690,c),
(473,705,l),
(389,698,o),
(306,700,o),
(243,700,cs),
(186,700,o),
(70,702,o),
(52,705,c),
(45,691,l),
(45,617,l),
(55,604,l),
(169,614,o),
(212,616,o),
(371,616,c),
(346,654,l),
(268,445,o),
(159,277,o),
(21,15,c),
(27,0,l)
);
}
);
width = 490;
},
{
anchors = (
{
name = bottom;
pos = (245,11);
},
{
name = center;
pos = (245,350);
},
{
name = top;
pos = (245,700);
}
);
layerId = m004;
shapes = (
{
closed = 1;
nodes = (
(82,3,o),
(147,6,o),
(239,6,cs),
(320,6,o),
(448,5,o),
(476,0,c),
(482,14,l),
(483,88,l),
(477,100,l),
(341,92,o),
(278,89,o),
(121,89,c),
(156,47,l),
(239,233,o),
(387,495,o),
(480,690,c),
(473,705,l),
(389,698,o),
(306,700,o),
(243,700,cs),
(186,700,o),
(70,702,o),
(52,705,c),
(45,691,l),
(45,617,l),
(55,604,l),
(169,614,o),
(212,616,o),
(371,616,c),
(346,654,l),
(268,445,o),
(159,277,o),
(21,15,c),
(27,0,l)
);
}
);
width = 490;
}
);
unicode = 90;
}
{
glyphname = backslash;
layers = (
{
layerId = master01;
shapes = (
{
closed = 1;
nodes = (
(330,10,l),
(128,693,l),
(121,700,l),
(47,700,l),
(43,692,l),
(245,10,l),
(253,0,l),
(328,0,l)
);
}
);
width = 340;
},
{
layerId = m002;
shapes = (
{
closed = 1;
nodes = (
(330,10,l),
(128,693,l),
(121,700,l),
(47,700,l),
(43,692,l),
(245,10,l),
(253,0,l),
(328,0,l)
);
}
);
width = 340;
},
{
layerId = m003;
shapes = (
{
closed = 1;
nodes = (
(330,10,l),
(128,693,l),
(121,700,l),
(47,700,l),
(43,692,l),
(245,10,l),
(253,0,l),
(328,0,l)
);
}
);
width = 340;
},
{
layerId = m004;
shapes = (
{
closed = 1;
nodes = (
(330,10,l),
(128,693,l),
(121,700,l),
(47,700,l),
(43,692,l),
(245,10,l),
(253,0,l),
(328,0,l)
);
}
);
width = 340;
}
);
unicode = 92;
}
{
color = (99,255,209,255);
glyphname = a;
layers = (
{
anchors = (
{
name = bottom;
pos = (281,0);
},
{
name = ogonek;
pos = (460,10);
},
{
name = top;
pos = (273,510);
}
);
background = {
shapes = (
{
closed = 1;
nodes = (
(35,430,o),
(105,520,o),
(249,520,cs),
(383,520,o),
(442,422,o),
(435,304,cs),
(431,241,l),
(420,228,l),
(307,228,o),
(206,228,o),
(93,228,c),
(88,299,l),
(355,299,l),
(345,288,l),
(345,410,o),
(308,445,o),
(240,445,cs),
(165,445,o),
(125,396,o),
(125,253,cs),
(125,110,o),
(164,65,o),
(260,65,c),
(307,65,o),
(346,79,o),
(393,96,c),
(400,95,l),
(420,51,l),
(419,44,l),
(367,14,o),
(315,-10,o),
(246,-10,cs),
(105,-10,o),
(35,76,o),
(35,253,cs)
);
}
);
};
guides = (
{
pos = (111,383);
}
);
layerId = master01;
shapes = (
{
closed = 1;
nodes = (
(436,-9,o),
(468,-4,o),
(488,0,c),
(492,65,l),
(391,85,l),
(440,37,l),
(440,355,ls),
(440,480,o),
(347,520,o),
(254,520,cs),
(177,520,o),
(101,493,o),
(76,463,c),
(74,455,l),
(102,403,l),
(108,400,l),
(154,430,o),
(203,446,o),
(245,446,cs),
(308,446,o),
(355,412,o),
(355,344,cs),
(355,57,ls),
(355,12,o),
(368,-9,o),
(418,-9,cs)
);
},
{
closed = 1;
nodes = (
(292,-10,o),
(349,41,o),
(366,106,c),
(331,70,l),
(373,70,l),
(355,201,l),
(355,114,o),
(315,65,o),
(229,65,cs),
(178,65,o),
(140,95,o),
(140,149,cs),
(140,196,o),
(160,228,o),
(235,228,cs),
(368,228,l),
(368,293,l),
(216,293,ls),
(116,293,o),
(50,235,o),
(50,143,cs),
(50,53,o),
(115,-10,o),
(206,-10,cs)
);
}
);
width = 532;
},
{
anchors = (
{
name = bottom;
pos = (320,0);
},
{
name = ogonek;
pos = (497,10);
},
{
name = top;
pos = (204,510);
}
);
background = {
shapes = (
{
closed = 1;
nodes = (
(20,430,o),
(90,520,o),
(234,520,cs),
(368,520,o),
(427,422,o),
(420,304,cs),
(416,241,l),
(405,228,l),
(292,228,o),
(191,228,o),
(78,228,c),
(73,299,l),
(340,299,l),
(330,288,l),
(330,410,o),
(293,445,o),
(225,445,cs),
(150,445,o),
(110,396,o),
(110,253,cs),
(110,110,o),
(149,65,o),
(245,65,c),
(292,65,o),
(331,79,o),
(378,96,c),
(385,95,l),
(405,51,l),
(404,44,l),
(352,14,o),
(300,-10,o),
(231,-10,cs),
(90,-10,o),
(20,76,o),
(20,253,cs)
);
}
);
};
guides = (
{
pos = (96,383);
}
);
layerId = m002;
shapes = (
{
closed = 1;
nodes = (
(487,-9,o),
(517,12,o),
(548,37,c),
(548,152,l),
(441,163,l),
(490,37,l),
(490,321,ls),
(490,470,o),
(379,519,o),
(269,519,cs),
(182,519,o),
(95,488,o),
(64,452,c),
(60,442,l),
(92,331,l),
(98,328,l),
(138,355,o),
(186,371,o),
(226,371,cs),
(279,371,o),
(320,344,o),
(320,281,cs),
(320,94,ls),
(320,10,o),
(386,-9,o),
(436,-9,cs)
);
},
{
closed = 1;
nodes = (
(254,-10,o),
(325,70,o),
(325,143,c),
(346,70,l),
(346,180,l),
(320,201,l),
(320,158,o),
(284,139,o),
(250,139,cs),
(219,139,o),
(190,154,o),
(190,180,cs),
(190,212,o),
(210,219,o),
(253,219,cs),
(383,219,l),
(383,293,l),
(216,293,ls),
(116,293,o),
(20,235,o),
(20,143,cs),
(20,53,o),
(77,-10,o),
(168,-10,cs)
);
}
);
width = 563;
},
{
anchors = (
{
name = bottom;
pos = (158,0);
},
{
name = ogonek;
pos = (342,10);
},
{
name = top;
pos = (396,510);
}
);
background = {
shapes = (
{
closed = 1;
nodes = (
(35,430,o),
(105,520,o),
(249,520,cs),
(383,520,o),
(442,422,o),
(435,304,cs),
(431,241,l),
(420,228,l),
(307,228,o),
(206,228,o),
(93,228,c),
(88,299,l),
(355,299,l),
(345,288,l),
(345,410,o),
(308,445,o),
(240,445,cs),
(165,445,o),
(125,396,o),
(125,253,cs),
(125,110,o),
(164,65,o),
(260,65,c),
(307,65,o),
(346,79,o),
(393,96,c),
(400,95,l),
(420,51,l),
(419,44,l),
(367,14,o),
(315,-10,o),
(246,-10,cs),
(105,-10,o),
(35,76,o),
(35,253,cs)
);
}
);
};
guides = (
{
pos = (111,383);
}
);
layerId = m003;
shapes = (
{
closed = 1;
nodes = (
(380,-9,o),
(413,-4,o),
(434,0,c),
(452,65,l),
(355,85,l),
(394,37,l),
(461,355,ls),
(488,480,o),
(403,520,o),
(310,520,cs),
(233,520,o),
(152,493,o),
(120,463,c),
(117,455,l),
(133,403,l),
(139,400,l),
(191,430,o),
(244,446,o),
(286,446,cs),
(349,446,o),
(388,412,o),
(374,344,cs),
(313,57,ls),
(303,12,o),
(312,-9,o),
(362,-9,cs)
);
},
{
closed = 1;
nodes = (
(236,-10,o),
(304,41,o),
(334,106,c),
(292,70,l),
(334,70,l),
(344,201,l),
(325,114,o),
(275,65,o),
(189,65,cs),
(138,65,o),
(106,95,o),
(117,149,cs),
(127,196,o),
(154,228,o),
(229,228,cs),
(362,228,l),
(376,293,l),
(224,293,ls),
(124,293,o),
(46,235,o),
(26,143,cs),
(7,53,o),
(59,-10,o),
(150,-10,cs)
);
}
);
width = 532;
},
{
anchors = (
{
name = bottom;
pos = (266,0);
},
{
name = ogonek;
pos = (445,10);
},
{
name = top;
pos = (258,510);
}
);
background = {
shapes = (
{
closed = 1;
nodes = (
(20,430,o),
(90,520,o),
(234,520,cs),
(368,520,o),
(427,422,o),
(420,304,cs),
(416,241,l),
(405,228,l),
(292,228,o),
(191,228,o),
(78,228,c),
(73,299,l),
(340,299,l),
(330,288,l),
(330,410,o),
(293,445,o),
(225,445,cs),
(150,445,o),
(110,396,o),
(110,253,cs),
(110,110,o),
(149,65,o),
(245,65,c),
(292,65,o),
(331,79,o),
(378,96,c),
(385,95,l),
(405,51,l),
(404,44,l),
(352,14,o),
(300,-10,o),
(231,-10,cs),
(90,-10,o),
(20,76,o),
(20,253,cs)
);
}
);
};
guides = (
{
pos = (96,383);
}
);
layerId = m004;
shapes = (
{
closed = 1;
nodes = (
(431,-9,o),
(465,12,o),
(502,37,c),
(526,152,l),
(422,163,l),
(444,37,l),
(504,321,ls),
(536,470,o),
(435,519,o),
(325,519,cs),
(238,519,o),
(145,488,o),
(106,452,c),
(100,442,l),
(108,331,l),
(114,328,l),
(159,355,o),
(211,371,o),
(251,371,cs),
(304,371,o),
(339,344,o),
(326,281,cs),
(286,94,ls),
(268,10,o),
(330,-9,o),
(380,-9,cs)
);
},
{
closed = 1;
nodes = (
(198,-10,o),
(286,70,o),
(301,143,c),
(307,70,l),
(330,180,l),
(309,201,l),
(299,158,o),
(259,139,o),
(225,139,cs),
(194,139,o),
(169,154,o),
(174,180,cs),
(181,212,o),
(202,219,o),
(245,219,cs),
(375,219,l),
(391,293,l),
(224,293,ls),
(124,293,o),
(16,235,o),
(-4,143,cs),
(-23,53,o),
(21,-10,o),
(112,-10,cs)
);
}
);
width = 563;
}
);
unicode = 97;
}
{
color = (99,255,209,255);
glyphname = b;
layers = (
{
background = {
shapes = (
{
closed = 1;
nodes = (
(185,374,o),
(224,440,o),
(304,440,c),
(386,440,o),
(410,394,o),
(410,275,c),
(410,196,o),
(406,120,o),
(406,65,cs),
(406,13,o),
(430,-10,o),
(462,-10,c),
(485,-10,o),
(516,-5,o),
(543,-1,c),
(547,64,l),
(453,83,l),
(495,32,l),
(495,365,ls),
(495,471,o),
(436,520,o),
(340,520,c),
(238,520,o),
(185,448,o),
(172,395,c),
(209,439,l),
(175,439,l),
(185,413,l),
(185,718,ls),
(185,759,o),
(171,780,o),
(130,780,c),
(104,780,o),
(70,772,o),
(41,765,c),
(48,700,l),
(109,703,l),
(90,732,l),
(90,732,o),
(100,600,o),
(100,372,c),
(100,84,o),
(90,10,o),
(90,10,c),
(95,0,l),
(190,0,l),
(195,10,l),
(195,10,o),
(185,82,o),
(185,251,cs)
);
}
);
};
layerId = master01;
shapes = (
{
closed = 1;
nodes = (
(462,-10,o),
(502,95,o),
(502,258,cs),
(502,283,ls),
(502,449,o),
(448,520,o),
(337,520,cs),
(264,520,o),
(214,488,o),
(185,451,c),
(163,439,l),
(186,255,l),
(186,395,o),
(239,440,o),
(304,440,cs),
(368,440,o),
(407,407,o),
(407,281,cs),
(407,246,l),
(407,102,o),
(380,66,o),
(318,66,cs),
(255,66,o),
(200,106,o),
(165,142,c),
(186,74,l),
(186,699,ls),
(186,762,o),
(172,780,o),
(133,780,cs),
(98,780,o),
(64,771,o),
(40,765,c),
(47,700,l),
(110,703,l),
(91,732,l),
(101,634,o),
(101,488,o),
(101,389,cs),
(101,279,o),
(99,107,o),
(91,10,c),
(96,0,l),
(141,0,l),
(181,85,l),
(131,62,l),
(227,62,l),
(157,89,l),
(199,18,o),
(244,-10,o),
(329,-10,cs)
);
}
);
width = 552;
},
{
background = {
shapes = (
{
closed = 1;
nodes = (
(185,374,o),
(224,440,o),
(304,440,c),
(386,440,o),
(410,394,o),
(410,275,c),
(410,196,o),
(406,120,o),
(406,65,cs),
(406,13,o),
(430,-10,o),
(462,-10,c),
(485,-10,o),
(516,-5,o),
(543,-1,c),
(547,64,l),
(453,83,l),
(495,32,l),
(495,365,ls),
(495,471,o),
(436,520,o),
(340,520,c),
(238,520,o),
(185,448,o),
(172,395,c),
(209,439,l),
(175,439,l),
(185,413,l),
(185,718,ls),
(185,759,o),
(171,780,o),
(130,780,c),
(104,780,o),
(70,772,o),
(41,765,c),
(48,700,l),
(109,703,l),
(90,732,l),
(90,732,o),
(100,600,o),
(100,372,c),
(100,84,o),
(90,10,o),
(90,10,c),
(95,0,l),
(190,0,l),
(195,10,l),
(195,10,o),
(185,82,o),
(185,251,cs)
);
}
);
};
layerId = m002;
shapes = (
{
closed = 1;
nodes = (
(462,-10,o),
(502,95,o),
(502,258,cs),
(502,283,ls),
(502,449,o),
(448,520,o),
(337,520,cs),
(264,520,o),
(214,488,o),
(185,451,c),
(163,439,l),
(186,255,l),
(186,395,o),
(239,440,o),
(304,440,cs),
(368,440,o),
(407,407,o),
(407,281,cs),
(407,246,l),
(407,102,o),
(380,66,o),
(318,66,cs),
(255,66,o),
(200,106,o),
(165,142,c),
(186,74,l),
(186,699,ls),
(186,762,o),
(172,780,o),
(133,780,cs),
(98,780,o),
(64,771,o),
(40,765,c),
(47,700,l),
(110,703,l),
(91,732,l),
(101,634,o),
(101,488,o),
(101,389,cs),
(101,279,o),
(99,107,o),
(91,10,c),
(96,0,l),
(141,0,l),
(181,85,l),
(131,62,l),
(227,62,l),
(157,89,l),
(199,18,o),
(244,-10,o),
(329,-10,cs)
);
}
);
width = 552;
},
{
background = {
shapes = (
{
closed = 1;
nodes = (
(185,374,o),
(224,440,o),
(304,440,c),
(386,440,o),
(410,394,o),
(410,275,c),
(410,196,o),
(406,120,o),
(406,65,cs),
(406,13,o),
(430,-10,o),
(462,-10,c),
(485,-10,o),
(516,-5,o),
(543,-1,c),
(547,64,l),
(453,83,l),
(495,32,l),
(495,365,ls),
(495,471,o),
(436,520,o),
(340,520,c),
(238,520,o),
(185,448,o),
(172,395,c),
(209,439,l),
(175,439,l),
(185,413,l),
(185,718,ls),
(185,759,o),
(171,780,o),
(130,780,c),
(104,780,o),
(70,772,o),
(41,765,c),
(48,700,l),
(109,703,l),
(90,732,l),
(90,732,o),
(100,600,o),
(100,372,c),
(100,84,o),
(90,10,o),
(90,10,c),
(95,0,l),
(190,0,l),
(195,10,l),
(195,10,o),
(185,82,o),
(185,251,cs)
);
}
);
};
layerId = m003;
shapes = (
{
closed = 1;
nodes = (
(462,-10,o),
(502,95,o),
(502,258,cs),
(502,283,ls),
(502,449,o),
(448,520,o),
(337,520,cs),
(264,520,o),
(214,488,o),
(185,451,c),
(163,439,l),
(186,255,l),
(186,395,o),
(239,440,o),
(304,440,cs),
(368,440,o),
(407,407,o),
(407,281,cs),
(407,246,l),
(407,102,o),
(380,66,o),
(318,66,cs),
(255,66,o),
(200,106,o),
(165,142,c),
(186,74,l),
(186,699,ls),
(186,762,o),
(172,780,o),
(133,780,cs),
(98,780,o),
(64,771,o),
(40,765,c),
(47,700,l),
(110,703,l),
(91,732,l),
(101,634,o),
(101,488,o),
(101,389,cs),
(101,279,o),
(99,107,o),
(91,10,c),
(96,0,l),
(141,0,l),
(181,85,l),
(131,62,l),
(227,62,l),
(157,89,l),
(199,18,o),
(244,-10,o),
(329,-10,cs)
);
}
);
width = 552;
},
{
background = {
shapes = (
{
closed = 1;
nodes = (
(185,374,o),
(224,440,o),
(304,440,c),
(386,440,o),
(410,394,o),
(410,275,c),
(410,196,o),
(406,120,o),
(406,65,cs),
(406,13,o),
(430,-10,o),
(462,-10,c),
(485,-10,o),
(516,-5,o),
(543,-1,c),
(547,64,l),
(453,83,l),
(495,32,l),
(495,365,ls),
(495,471,o),
(436,520,o),
(340,520,c),
(238,520,o),
(185,448,o),
(172,395,c),
(209,439,l),
(175,439,l),
(185,413,l),
(185,718,ls),
(185,759,o),
(171,780,o),
(130,780,c),
(104,780,o),
(70,772,o),
(41,765,c),
(48,700,l),
(109,703,l),
(90,732,l),
(90,732,o),
(100,600,o),
(100,372,c),
(100,84,o),
(90,10,o),
(90,10,c),
(95,0,l),
(190,0,l),
(195,10,l),
(195,10,o),
(185,82,o),
(185,251,cs)
);
}
);
};
layerId = m004;
shapes = (
{
closed = 1;
nodes = (
(462,-10,o),
(502,95,o),
(502,258,cs),
(502,283,ls),
(502,449,o),
(448,520,o),
(337,520,cs),
(264,520,o),
(214,488,o),
(185,451,c),
(163,439,l),
(186,255,l),
(186,395,o),
(239,440,o),
(304,440,cs),
(368,440,o),
(407,407,o),
(407,281,cs),
(407,246,l),
(407,102,o),
(380,66,o),
(318,66,cs),
(255,66,o),
(200,106,o),
(165,142,c),
(186,74,l),
(186,699,ls),
(186,762,o),
(172,780,o),
(133,780,cs),
(98,780,o),
(64,771,o),
(40,765,c),
(47,700,l),
(110,703,l),
(91,732,l),
(101,634,o),
(101,488,o),
(101,389,cs),
(101,279,o),
(99,107,o),
(91,10,c),
(96,0,l),
(141,0,l),
(181,85,l),
(131,62,l),
(227,62,l),
(157,89,l),
(199,18,o),
(244,-10,o),
(329,-10,cs)
);
}
);
width = 552;
}
);
unicode = 98;
}
{
color = (99,255,209,255);
glyphname = c;
layers = (
{
anchors = (
{
name = bottom;
pos = (257,0);
},
{
name = top;
pos = (269,510);
}
);
background = {
shapes = (
{
closed = 1;
nodes = (
(46,430,o),
(116,520,o),
(260,520,cs),
(394,520,o),
(453,422,o),
(446,304,cs),
(442,241,l),
(431,228,l),
(318,228,o),
(217,228,o),
(104,228,c),
(99,299,l),
(366,299,l),
(356,288,l),
(356,410,o),
(319,445,o),
(251,445,cs),
(176,445,o),
(136,396,o),
(136,253,cs),
(136,110,o),
(175,65,o),
(271,65,c),
(318,65,o),
(357,79,o),
(404,96,c),
(411,95,l),
(431,51,l),
(430,44,l),
(378,14,o),
(326,-10,o),
(257,-10,cs),
(116,-10,o),
(46,76,o),
(46,253,cs)
);
}
);
};
layerId = master01;
shapes = (
{
closed = 1;
nodes = (
(383,406,l),
(421,463,l),
(421,469,l),
(381,496,o),
(344,520,o),
(262,520,cs),
(119,520,o),
(50,430,o),
(50,254,cs),
(50,74,o),
(120,-10,o),
(250,-10,cs),
(321,-10,o),
(379,13,o),
(428,42,c),
(429,45,l),
(405,96,l),
(402,97,l),
(357,79,o),
(319,65,o),
(265,65,cs),
(177,65,o),
(140,122,o),
(140,258,cs),
(140,399,o),
(183,445,o),
(257,445,cs),
(320,445,o),
(350,426,o),
(376,406,c)
);
}
);
width = 459;
},
{
anchors = (
{
name = bottom;
pos = (257,0);
},
{
name = top;
pos = (269,510);
}
);
background = {
shapes = (
{
closed = 1;
nodes = (
(46,430,o),
(116,520,o),
(260,520,cs),
(394,520,o),
(453,422,o),
(446,304,cs),
(442,241,l),
(431,228,l),
(318,228,o),
(217,228,o),
(104,228,c),
(99,299,l),
(366,299,l),
(356,288,l),
(356,410,o),
(319,445,o),
(251,445,cs),
(176,445,o),
(136,396,o),
(136,253,cs),
(136,110,o),
(175,65,o),
(271,65,c),
(318,65,o),
(357,79,o),
(404,96,c),
(411,95,l),
(431,51,l),
(430,44,l),
(378,14,o),
(326,-10,o),
(257,-10,cs),
(116,-10,o),
(46,76,o),
(46,253,cs)
);
}
);
};
layerId = m002;
shapes = (
{
closed = 1;
nodes = (
(383,406,l),
(421,463,l),
(421,469,l),
(381,496,o),
(344,520,o),
(262,520,cs),
(119,520,o),
(50,430,o),
(50,254,cs),
(50,74,o),
(120,-10,o),
(250,-10,cs),
(321,-10,o),
(379,13,o),
(428,42,c),
(429,45,l),
(405,96,l),
(402,97,l),
(357,79,o),
(319,65,o),
(265,65,cs),
(177,65,o),
(140,122,o),
(140,258,cs),
(140,399,o),
(183,445,o),
(257,445,cs),
(320,445,o),
(350,426,o),
(376,406,c)
);
}
);
width = 459;
},
{
anchors = (
{
name = bottom;
pos = (257,0);
},
{
name = top;
pos = (269,510);
}
);
background = {
shapes = (
{
closed = 1;
nodes = (
(46,430,o),
(116,520,o),
(260,520,cs),
(394,520,o),
(453,422,o),
(446,304,cs),
(442,241,l),
(431,228,l),
(318,228,o),
(217,228,o),
(104,228,c),
(99,299,l),
(366,299,l),
(356,288,l),
(356,410,o),
(319,445,o),
(251,445,cs),
(176,445,o),
(136,396,o),
(136,253,cs),
(136,110,o),
(175,65,o),
(271,65,c),
(318,65,o),
(357,79,o),
(404,96,c),
(411,95,l),
(431,51,l),
(430,44,l),
(378,14,o),
(326,-10,o),
(257,-10,cs),
(116,-10,o),
(46,76,o),
(46,253,cs)
);
}
);
};
layerId = m003;
shapes = (
{
closed = 1;
nodes = (
(383,406,l),
(421,463,l),
(421,469,l),
(381,496,o),
(344,520,o),
(262,520,cs),
(119,520,o),
(50,430,o),
(50,254,cs),
(50,74,o),
(120,-10,o),
(250,-10,cs),
(321,-10,o),
(379,13,o),
(428,42,c),
(429,45,l),
(405,96,l),
(402,97,l),
(357,79,o),
(319,65,o),
(265,65,cs),
(177,65,o),
(140,122,o),
(140,258,cs),
(140,399,o),
(183,445,o),
(257,445,cs),
(320,445,o),
(350,426,o),
(376,406,c)
);
}
);
width = 459;
},
{
anchors = (
{
name = bottom;
pos = (257,0);
},
{
name = top;
pos = (269,510);
}
);
background = {
shapes = (
{
closed = 1;
nodes = (
(46,430,o),
(116,520,o),
(260,520,cs),
(394,520,o),
(453,422,o),
(446,304,cs),
(442,241,l),
(431,228,l),
(318,228,o),
(217,228,o),
(104,228,c),
(99,299,l),
(366,299,l),
(356,288,l),
(356,410,o),
(319,445,o),
(251,445,cs),
(176,445,o),
(136,396,o),
(136,253,cs),
(136,110,o),
(175,65,o),
(271,65,c),
(318,65,o),
(357,79,o),
(404,96,c),
(411,95,l),
(431,51,l),
(430,44,l),
(378,14,o),
(326,-10,o),
(257,-10,cs),
(116,-10,o),
(46,76,o),
(46,253,cs)
);
}
);
};
layerId = m004;
shapes = (
{
closed = 1;
nodes = (
(383,406,l),
(421,463,l),
(421,469,l),
(381,496,o),
(344,520,o),
(262,520,cs),
(119,520,o),
(50,430,o),
(50,254,cs),
(50,74,o),
(120,-10,o),
(250,-10,cs),
(321,-10,o),
(379,13,o),
(428,42,c),
(429,45,l),
(405,96,l),
(402,97,l),
(357,79,o),
(319,65,o),
(265,65,cs),
(177,65,o),
(140,122,o),
(140,258,cs),
(140,399,o),
(183,445,o),
(257,445,cs),
(320,445,o),
(350,426,o),
(376,406,c)
);
}
);
width = 459;
}
);
metricLeft = "=o";
unicode = 99;
}
{
color = (99,255,209,255);
glyphname = d;
layers = (
{
anchors = (
{
name = bottom;
pos = (271,0);
},
{
name = center;
pos = (271,255);
},
{
name = top;
pos = (271,780);
},
{
name = topright;
pos = (527,780);
}
);
background = {
shapes = (
{
closed = 1;
nodes = (
(422,703,l),
(485,700,l),
(492,765,l),
(468,771,o),
(434,780,o),
(399,780,cs),
(360,780,o),
(346,762,o),
(346,699,cs),
(346,72,l),
(356,72,l),
(391,0,l),
(436,0,l),
(441,10,l),
(441,10,o),
(431,118,o),
(431,389,cs),
(431,660,o),
(441,732,o),
(441,732,c)
);
},
{
closed = 1;
nodes = (
(125,397,o),
(165,435,o),
(226,435,c),
(283,435,o),
(328,410,o),
(367,388,c),
(379,436,l),
(351,436,l),
(315,491,o),
(277,520,o),
(203,520,c),
(92,520,o),
(30,416,o),
(30,252,cs),
(30,227,ls),
(30,60,o),
(83,-10,o),
(195,-10,c),
(268,-10,o),
(312,25,o),
(341,71,c),
(369,71,l),
(346,255,l),
(346,114,o),
(293,70,o),
(228,70,cs),
(164,70,o),
(125,100,o),
(125,229,cs),
(125,252,ls)
);
}
);
};
layerId = master01;
shapes = (
{
closed = 1;
nodes = (
(314,-9,o),
(368,59,o),
(376,121,c),
(339,54,l),
(397,54,l),
(364,93,l),
(364,57,ls),
(364,12,o),
(375,-9,o),
(410,-9,cs),
(431,-9,o),
(475,-5,o),
(498,0,c),
(502,65,l),
(409,84,l),
(458,37,l),
(451,98,o),
(450,263,o),
(450,322,cs),
(450,447,o),
(455,693,o),
(455,718,cs),
(455,760,o),
(440,780,o),
(399,780,cs),
(376,780,o),
(304,766,o),
(282,761,c),
(289,696,l),
(379,700,l),
(355,723,l),
(362,644,o),
(365,355,o),
(365,276,cs),
(365,130,o),
(323,64,o),
(242,64,cs),
(179,64,o),
(145,121,o),
(145,245,cs),
(145,270,ls),
(145,392,o),
(183,440,o),
(248,440,cs),
(296,440,o),
(343,416,o),
(387,389,c),
(390,452,l),
(341,452,l),
(379,429,l),
(379,461,o),
(301,520,o),
(232,520,cs),
(135,520,o),
(50,458,o),
(50,265,cs),
(50,240,ls),
(50,70,o),
(116,-9,o),
(220,-9,cs)
);
}
);
width = 542;
},
{
anchors = (
{
name = bottom;
pos = (286,0);
},
{
name = center;
pos = (286,255);
},
{
name = top;
pos = (286,780);
},
{
name = topright;
pos = (542,780);
}
);
background = {
shapes = (
{
closed = 1;
nodes = (
(437,703,l),
(500,700,l),
(507,765,l),
(483,771,o),
(449,780,o),
(414,780,cs),
(375,780,o),
(361,762,o),
(361,699,cs),
(361,72,l),
(371,72,l),
(406,0,l),
(451,0,l),
(456,10,l),
(456,10,o),
(446,118,o),
(446,389,cs),
(446,660,o),
(456,732,o),
(456,732,c)
);
},
{
closed = 1;
nodes = (
(140,397,o),
(180,435,o),
(241,435,c),
(298,435,o),
(343,410,o),
(382,388,c),
(394,436,l),
(366,436,l),
(330,491,o),
(292,520,o),
(218,520,c),
(107,520,o),
(45,416,o),
(45,252,cs),
(45,227,ls),
(45,60,o),
(98,-10,o),
(210,-10,c),
(283,-10,o),
(327,25,o),
(356,71,c),
(384,71,l),
(361,255,l),
(361,114,o),
(308,70,o),
(243,70,cs),
(179,70,o),
(140,100,o),
(140,229,cs),
(140,252,ls)
);
}
);
};
layerId = m002;
shapes = (
{
closed = 1;
nodes = (
(286,-9,o),
(340,56,o),
(340,172,c),
(340,152,l),
(398,154,l),
(342,214,l),
(332,121,l),
(332,45,o),
(383,-9,o),
(456,-9,cs),
(505,-9,o),
(555,10,o),
(578,36,c),
(582,152,l),
(424,171,l),
(518,37,l),
(511,98,o),
(510,263,o),
(510,322,cs),
(510,447,o),
(510,619,o),
(515,708,cs),
(518,760,o),
(471,780,o),
(400,780,cs),
(337,780,o),
(284,772,o),
(237,761,c),
(244,630,l),
(354,634,l),
(330,723,l),
(337,578,o),
(340,355,o),
(340,276,cs),
(340,186,o),
(318,141,o),
(273,141,cs),
(231,141,o),
(210,175,o),
(210,245,cs),
(210,270,ls),
(210,337,o),
(230,370,o),
(269,370,cs),
(307,370,o),
(335,339,o),
(352,275,c),
(420,395,l),
(356,395,l),
(383,293,l),
(383,432,o),
(321,520,o),
(221,520,cs),
(107,520,o),
(35,422,o),
(35,265,cs),
(35,240,ls),
(35,80,o),
(90,-9,o),
(189,-9,cs)
);
}
);
width = 597;
},
{
anchors = (
{
name = bottom;
pos = (104,0);
},
{
name = center;
pos = (226,255);
},
{
name = top;
pos = (479,780);
},
{
name = topright;
pos = (735,780);
}
);
background = {
shapes = (
{
closed = 1;
nodes = (
(612,780,o),
(500,693,o),
(478,592,c),
(558,699,l),
(484,650,l),
(529,667,l),
(539,714,ls),
(548,758,o),
(540,780,o),
(495,780,cs),
(449,780,o),
(391,730,o),
(366,703,c),
(390,662,l),
(494,712,l),
(458,734,l),
(452,673,o),
(418,508,o),
(405,449,cs),
(379,324,o),
(322,78,o),
(316,53,cs),
(307,11,o),
(318,-9,o),
(359,-9,cs),
(382,-9,o),
(457,5,o),
(480,10,c),
(487,75,l),
(396,71,l),
(415,48,l),
(425,127,o),
(483,416,o),
(500,495,cs),
(531,641,o),
(587,707,o),
(668,707,cs),
(731,707,o),
(752,650,o),
(727,526,cs),
(722,501,ls),
(698,379,o),
(647,331,o),
(582,331,cs),
(534,331,o),
(493,355,o),
(454,382,c),
(438,319,l),
(487,319,l),
(454,342,l),
(447,310,o),
(512,251,o),
(581,251,cs),
(678,251,o),
(779,313,o),
(818,506,cs),
(823,531,ls),
(857,701,o),
(810,780,o),
(706,780,cs)
);
}
);
};
layerId = m003;
shapes = (
{
closed = 1;
nodes = (
(258,-9,o),
(370,78,o),
(392,179,c),
(312,72,l),
(386,121,l),
(341,104,l),
(331,57,ls),
(322,13,o),
(330,-9,o),
(375,-9,cs),
(421,-9,o),
(479,41,o),
(504,68,c),
(480,109,l),
(376,59,l),
(412,37,l),
(418,98,o),
(452,263,o),
(465,322,cs),
(491,447,o),
(548,693,o),
(554,718,cs),
(563,760,o),
(540,780,o),
(495,780,cs),
(449,780,o),
(361,730,o),
(336,703,c),
(360,662,l),
(494,712,l),
(458,734,l),
(448,655,o),
(387,355,o),
(370,276,cs),
(339,130,o),
(283,64,o),
(202,64,cs),
(139,64,o),
(118,121,o),
(143,245,cs),
(148,270,ls),
(172,392,o),
(223,440,o),
(288,440,cs),
(336,440,o),
(377,416,o),
(416,389,c),
(432,452,l),
(383,452,l),
(416,429,l),
(423,461,o),
(358,520,o),
(289,520,cs),
(192,520,o),
(91,458,o),
(52,265,cs),
(47,240,ls),
(13,70,o),
(60,-9,o),
(164,-9,cs)
);
}
);
width = 560;
},
{
anchors = (
{
name = bottom;
pos = (324,0);
},
{
name = center;
pos = (324,255);
},
{
name = top;
pos = (324,780);
},
{
name = topright;
pos = (580,780);
}
);
background = {
shapes = (
{
closed = 1;
nodes = (
(692,780,o),
(624,715,o),
(599,599,c),
(604,619,l),
(545,617,l),
(588,557,l),
(618,650,l),
(634,726,o),
(573,780,o),
(500,780,cs),
(438,780,o),
(347,690,o),
(321,663,c),
(360,574,l),
(499,638,l),
(450,734,l),
(444,673,o),
(410,508,o),
(397,449,cs),
(371,324,o),
(334,152,o),
(310,63,cs),
(296,11,o),
(339,-9,o),
(410,-9,cs),
(473,-9,o),
(528,-1,o),
(577,10,c),
(598,141,l),
(487,137,l),
(492,48,l),
(516,193,o),
(560,416,o),
(577,495,cs),
(596,585,o),
(628,630,o),
(673,630,cs),
(715,630,o),
(728,596,o),
(714,526,cs),
(709,501,ls),
(696,434,o),
(667,401,o),
(628,401,cs),
(590,401,o),
(569,432,o),
(565,496,c),
(472,376,l),
(536,376,l),
(531,478,l),
(501,339,o),
(544,251,o),
(644,251,cs),
(758,251,o),
(853,348,o),
(885,506,cs),
(890,531,ls),
(922,691,o),
(888,780,o),
(789,780,cs)
);
}
);
};
layerId = m004;
shapes = (
{
closed = 1;
nodes = (
(218,-9,o),
(286,56,o),
(311,172,c),
(306,152,l),
(365,154,l),
(322,214,l),
(292,121,l),
(276,45,o),
(337,-9,o),
(410,-9,cs),
(472,-9,o),
(563,81,o),
(589,108,c),
(550,197,l),
(411,133,l),
(460,37,l),
(466,98,o),
(500,263,o),
(513,322,cs),
(539,447,o),
(576,619,o),
(600,708,cs),
(614,760,o),
(571,780,o),
(500,780,cs),
(414,780,o),
(297,721,o),
(271,694,c),
(310,605,l),
(504,661,l),
(418,723,l),
(394,578,o),
(350,355,o),
(333,276,cs),
(314,186,o),
(282,141,o),
(237,141,cs),
(195,141,o),
(182,175,o),
(196,245,cs),
(201,270,ls),
(214,337,o),
(243,370,o),
(282,370,cs),
(320,370,o),
(341,339,o),
(345,275,c),
(438,395,l),
(374,395,l),
(379,293,l),
(409,432,o),
(366,520,o),
(266,520,cs),
(152,520,o),
(57,423,o),
(25,265,cs),
(20,240,ls),
(-12,80,o),
(22,-9,o),
(121,-9,cs)
);
}
);
width = 635;
}
);
metricLeft = "=o";
unicode = 100;
}
{
color = (99,255,209,255);
glyphname = e;
layers = (
{
anchors = (
{
name = bottom;
pos = (246,0);
},
{
name = ogonek;
pos = (335,10);
},
{
name = top;
pos = (264,510);
}
);
background = {
shapes = (
{
closed = 1;
nodes = (
(309,65,o),
(346,126,o),
(346,255,cs),
(346,384,o),
(309,445,o),
(229,445,cs),
(150,445,o),
(113,384,o),
(113,255,cs),
(113,126,o),
(150,65,o),
(229,65,cs)
);
},
{
closed = 1;
nodes = (
(93,-10,o),
(23,80,o),
(23,255,cs),
(23,430,o),
(93,520,o),
(229,520,cs),
(366,520,o),
(436,430,o),
(436,255,cs),
(436,80,o),
(366,-10,o),
(229,-10,cs)
);
}
);
};
layerId = master01;
shapes = (
{
closed = 1;
nodes = (
(330,-10,o),
(382,14,o),
(434,44,c),
(435,51,l),
(415,95,l),
(408,96,l),
(361,79,o),
(322,65,o),
(275,65,cs),
(179,65,o),
(140,111,o),
(140,253,cs),
(140,395,o),
(180,445,o),
(255,445,cs),
(323,445,o),
(360,409,o),
(360,275,c),
(370,299,l),
(103,299,l),
(108,228,l),
(164,228,o),
(219,228,o),
(272,228,cs),
(324,228,o),
(379,228,o),
(435,228,c),
(446,241,l),
(450,304,ls),
(457,421,o),
(397,520,o),
(264,520,cs),
(121,520,o),
(50,429,o),
(50,253,cs),
(50,77,o),
(121,-10,o),
(261,-10,cs)
);
}
);
width = 491;
},
{
anchors = (
{
name = bottom;
pos = (271,0);
},
{
name = ogonek;
pos = (360,10);
},
{
name = top;
pos = (289,510);
}
);
background = {
shapes = (
{
closed = 1;
nodes = (
(334,65,o),
(371,126,o),
(371,255,cs),
(371,384,o),
(334,445,o),
(254,445,cs),
(175,445,o),
(138,384,o),
(138,255,cs),
(138,126,o),
(175,65,o),
(254,65,cs)
);
},
{
closed = 1;
nodes = (
(118,-10,o),
(48,80,o),
(48,255,cs),
(48,430,o),
(118,520,o),
(254,520,cs),
(391,520,o),
(461,430,o),
(461,255,cs),
(461,80,o),
(391,-10,o),
(254,-10,cs)
);
}
);
};
layerId = m002;
shapes = (
{
closed = 1;
nodes = (
(361,-8,o),
(430,10,o),
(489,44,c),
(490,51,l),
(470,170,l),
(463,171,l),
(416,154,o),
(361,137,o),
(315,137,cs),
(256,137,o),
(210,164,o),
(210,253,cs),
(210,336,o),
(244,372,o),
(276,372,cs),
(306,372,o),
(335,341,o),
(335,260,c),
(385,292,l),
(148,292,l),
(153,222,l),
(209,222,o),
(264,222,o),
(297,222,cs),
(339,222,o),
(424,222,o),
(480,222,c),
(491,235,l),
(495,304,ls),
(503,442,o),
(393,518,o),
(279,518,cs),
(159,518,o),
(35,435,o),
(35,253,cs),
(35,69,o),
(159,-8,o),
(294,-8,cs)
);
}
);
width = 516;
},
{
anchors = (
{
name = bottom;
pos = (123,0);
},
{
name = ogonek;
pos = (217,10);
},
{
name = top;
pos = (387,510);
}
);
background = {
shapes = (
{
closed = 1;
nodes = (
(309,65,o),
(346,126,o),
(346,255,cs),
(346,384,o),
(309,445,o),
(229,445,cs),
(150,445,o),
(113,384,o),
(113,255,cs),
(113,126,o),
(150,65,o),
(229,65,cs)
);
},
{
closed = 1;
nodes = (
(93,-10,o),
(23,80,o),
(23,255,cs),
(23,430,o),
(93,520,o),
(229,520,cs),
(366,520,o),
(436,430,o),
(436,255,cs),
(436,80,o),
(366,-10,o),
(229,-10,cs)
);
}
);
};
layerId = m003;
shapes = (
{
closed = 1;
nodes = (
(274,-10,o),
(331,14,o),
(389,44,c),
(392,51,l),
(381,95,l),
(374,96,l),
(324,79,o),
(282,65,o),
(235,65,cs),
(139,65,o),
(109,111,o),
(140,253,cs),
(170,395,o),
(220,445,o),
(295,445,cs),
(363,445,o),
(393,409,o),
(364,275,c),
(379,299,l),
(112,299,l),
(102,228,l),
(158,228,o),
(213,228,o),
(266,228,cs),
(318,228,o),
(373,228,o),
(429,228,c),
(443,241,l),
(460,304,ls),
(492,421,o),
(453,520,o),
(320,520,cs),
(177,520,o),
(87,429,o),
(50,253,cs),
(12,77,o),
(65,-10,o),
(205,-10,cs)
);
}
);
width = 491;
},
{
anchors = (
{
name = bottom;
pos = (259,0);
},
{
name = ogonek;
pos = (348,10);
},
{
name = top;
pos = (277,510);
}
);
background = {
shapes = (
{
closed = 1;
nodes = (
(322,65,o),
(359,126,o),
(359,255,cs),
(359,384,o),
(322,445,o),
(242,445,cs),
(163,445,o),
(126,384,o),
(126,255,cs),
(126,126,o),
(163,65,o),
(242,65,cs)
);
},
{
closed = 1;
nodes = (
(106,-10,o),
(36,80,o),
(36,255,cs),
(36,430,o),
(106,520,o),
(242,520,cs),
(379,520,o),
(449,430,o),
(449,255,cs),
(449,80,o),
(379,-10,o),
(242,-10,cs)
);
}
);
};
layerId = m004;
shapes = (
{
closed = 1;
nodes = (
(293,-8,o),
(366,10,o),
(432,44,c),
(435,51,l),
(440,170,l),
(433,171,l),
(383,154,o),
(324,137,o),
(278,137,cs),
(219,137,o),
(179,164,o),
(198,253,cs),
(215,336,o),
(257,372,o),
(289,372,cs),
(319,372,o),
(341,341,o),
(324,260,c),
(381,292,l),
(144,292,l),
(134,222,l),
(190,222,o),
(245,222,o),
(278,222,cs),
(320,222,o),
(405,222,o),
(461,222,c),
(475,235,l),
(493,304,ls),
(531,442,o),
(437,518,o),
(323,518,cs),
(203,518,o),
(61,435,o),
(23,253,cs),
(-17,69,o),
(91,-8,o),
(226,-8,cs)
);
}
);
width = 504;
}
);
metricLeft = "=o";
unicode = 101;
}
{
color = (99,255,209,255);
glyphname = f;
layers = (
{
background = {
shapes = (
{
closed = 1;
nodes = (
(104,16,o),
(126,-10,o),
(162,-10,c),
(199,-10,o),
(231,-5,o),
(264,0,c),
(268,64,l),
(190,79,l),
(208,52,l),
(205,130,o),
(198,163,o),
(198,384,cs),
(198,605,o),
(203,675,o),
(203,718,c),
(203,757,o),
(187,780,o),
(142,780,c),
(110,780,o),
(71,770,o),
(40,762,c),
(48,699,l),
(123,703,l),
(102,732,l),
(102,732,o),
(113,604,o),
(113,384,cs),
(113,164,o),
(104,134,o),
(104,61,cs)
);
},
{
closed = 1;
nodes = (
(144,520,l),
(144,620,o),
(201,698,o),
(339,667,c),
(359,767,l),
(347,772,o),
(319,780,o),
(287,780,c),
(214,780,o),
(176,751,o),
(149,669,c),
(139,669,l),
(139,522,l)
);
},
{
closed = 1;
nodes = (
(49,732,o),
(59,675,o),
(59,535,cs),
(59,337,o),
(49,270,o),
(49,270,c),
(54,260,l),
(149,260,l),
(154,270,l),
(154,270,o),
(144,347,o),
(144,528,c),
(144,608,o),
(144,718,o),
(144,718,c),
(144,757,o),
(131,780,o),
(93,780,c),
(65,780,o),
(32,773,o),
(0,765,c),
(7,700,l),
(68,703,l),
(49,732,l)
);
}
);
};
guides = (
{
angle = 90;
pos = (231,686);
userData = {
UFO.identifier = kJy2339NW6;
};
}
);
layerId = master01;
shapes = (
{
closed = 1;
nodes = (
(199,0,l),
(209,10,l),
(204,70,o),
(199,136,o),
(199,265,cs),
(199,594,ls),
(199,669,o),
(215,705,o),
(274,705,cs),
(295,705,o),
(322,697,o),
(351,689,c),
(356,692,l),
(375,761,l),
(373,765,l),
(354,772,o),
(318,780,o),
(273,780,cs),
(158,780,o),
(114,703,o),
(114,612,cs),
(114,265,ls),
(114,134,o),
(108,67,o),
(104,10,c),
(112,0,l)
);
},
{
closed = 1;
nodes = (
(92,436,o),
(132,437,o),
(180,437,cs),
(214,437,o),
(261,436,o),
(321,435,c),
(328,442,l),
(328,505,l),
(321,510,l),
(42,510,l),
(35,503,l),
(35,442,l),
(42,435,l)
);
}
);
width = 328;
},
{
background = {
shapes = (
{
closed = 1;
nodes = (
(104,16,o),
(126,-10,o),
(162,-10,c),
(199,-10,o),
(231,-5,o),
(264,0,c),
(268,64,l),
(190,79,l),
(208,52,l),
(205,130,o),
(198,163,o),
(198,384,cs),
(198,605,o),
(203,675,o),
(203,718,c),
(203,757,o),
(187,780,o),
(142,780,c),
(110,780,o),
(71,770,o),
(40,762,c),
(48,699,l),
(123,703,l),
(102,732,l),
(102,732,o),
(113,604,o),
(113,384,cs),
(113,164,o),
(104,134,o),
(104,61,cs)
);
},
{
closed = 1;
nodes = (
(144,520,l),
(144,620,o),
(201,698,o),
(339,667,c),
(359,767,l),
(347,772,o),
(319,780,o),
(287,780,c),
(214,780,o),
(176,751,o),
(149,669,c),
(139,669,l),
(139,522,l)
);
},
{
closed = 1;
nodes = (
(49,732,o),
(59,675,o),
(59,535,cs),
(59,337,o),
(49,270,o),
(49,270,c),
(54,260,l),
(149,260,l),
(154,270,l),
(154,270,o),
(144,347,o),
(144,528,c),
(144,608,o),
(144,718,o),
(144,718,c),
(144,757,o),
(131,780,o),
(93,780,c),
(65,780,o),
(32,773,o),
(0,765,c),
(7,700,l),
(68,703,l),
(49,732,l)
);
}
);
};
guides = (
{
angle = 90;
pos = (231,686);
}
);
layerId = m002;
shapes = (
{
closed = 1;
nodes = (
(199,0,l),
(209,10,l),
(204,70,o),
(199,136,o),
(199,265,cs),
(199,594,ls),
(199,669,o),
(215,705,o),
(274,705,cs),
(295,705,o),
(322,697,o),
(351,689,c),
(356,692,l),
(375,761,l),
(373,765,l),
(354,772,o),
(318,780,o),
(273,780,cs),
(158,780,o),
(114,703,o),
(114,612,cs),
(114,265,ls),
(114,134,o),
(108,67,o),
(104,10,c),
(112,0,l)
);
},
{
closed = 1;
nodes = (
(92,436,o),
(132,437,o),
(180,437,cs),
(214,437,o),
(261,436,o),
(321,435,c),
(328,442,l),
(328,505,l),
(321,510,l),
(42,510,l),
(35,503,l),
(35,442,l),
(42,435,l)
);
}
);
width = 328;
},
{
background = {
shapes = (
{
closed = 1;
nodes = (
(104,16,o),
(126,-10,o),
(162,-10,c),
(199,-10,o),
(231,-5,o),
(264,0,c),
(268,64,l),
(190,79,l),
(208,52,l),
(205,130,o),
(198,163,o),
(198,384,cs),
(198,605,o),
(203,675,o),
(203,718,c),
(203,757,o),
(187,780,o),
(142,780,c),
(110,780,o),
(71,770,o),
(40,762,c),
(48,699,l),
(123,703,l),
(102,732,l),
(102,732,o),
(113,604,o),
(113,384,cs),
(113,164,o),
(104,134,o),
(104,61,cs)
);
},
{
closed = 1;
nodes = (
(144,520,l),
(144,620,o),
(201,698,o),
(339,667,c),
(359,767,l),
(347,772,o),
(319,780,o),
(287,780,c),
(214,780,o),
(176,751,o),
(149,669,c),
(139,669,l),
(139,522,l)
);
},
{
closed = 1;
nodes = (
(49,732,o),
(59,675,o),
(59,535,cs),
(59,337,o),
(49,270,o),
(49,270,c),
(54,260,l),
(149,260,l),
(154,270,l),
(154,270,o),
(144,347,o),
(144,528,c),
(144,608,o),
(144,718,o),
(144,718,c),
(144,757,o),
(131,780,o),
(93,780,c),
(65,780,o),
(32,773,o),
(0,765,c),
(7,700,l),
(68,703,l),
(49,732,l)
);
}
);
};
guides = (
{
angle = 90;
pos = (231,686);
}
);
layerId = m003;
shapes = (
{
closed = 1;
nodes = (
(199,0,l),
(209,10,l),
(204,70,o),
(199,136,o),
(199,265,cs),
(199,594,ls),
(199,669,o),
(215,705,o),
(274,705,cs),
(295,705,o),
(322,697,o),
(351,689,c),
(356,692,l),
(375,761,l),
(373,765,l),
(354,772,o),
(318,780,o),
(273,780,cs),
(158,780,o),
(114,703,o),
(114,612,cs),
(114,265,ls),
(114,134,o),
(108,67,o),
(104,10,c),
(112,0,l)
);
},
{
closed = 1;
nodes = (
(92,436,o),
(132,437,o),
(180,437,cs),
(214,437,o),
(261,436,o),
(321,435,c),
(328,442,l),
(328,505,l),
(321,510,l),
(42,510,l),
(35,503,l),
(35,442,l),
(42,435,l)
);
}
);
width = 328;
},
{
background = {
shapes = (
{
closed = 1;
nodes = (
(104,16,o),
(126,-10,o),
(162,-10,c),
(199,-10,o),
(231,-5,o),
(264,0,c),
(268,64,l),
(190,79,l),
(208,52,l),
(205,130,o),
(198,163,o),
(198,384,cs),
(198,605,o),
(203,675,o),
(203,718,c),
(203,757,o),
(187,780,o),
(142,780,c),
(110,780,o),
(71,770,o),
(40,762,c),
(48,699,l),
(123,703,l),
(102,732,l),
(102,732,o),
(113,604,o),
(113,384,cs),
(113,164,o),
(104,134,o),
(104,61,cs)
);
},
{
closed = 1;
nodes = (
(144,520,l),
(144,620,o),
(201,698,o),
(339,667,c),
(359,767,l),
(347,772,o),
(319,780,o),
(287,780,c),
(214,780,o),
(176,751,o),
(149,669,c),
(139,669,l),
(139,522,l)
);
},
{
closed = 1;
nodes = (
(49,732,o),
(59,675,o),
(59,535,cs),
(59,337,o),
(49,270,o),
(49,270,c),
(54,260,l),
(149,260,l),
(154,270,l),
(154,270,o),
(144,347,o),
(144,528,c),
(144,608,o),
(144,718,o),
(144,718,c),
(144,757,o),
(131,780,o),
(93,780,c),
(65,780,o),
(32,773,o),
(0,765,c),
(7,700,l),
(68,703,l),
(49,732,l)
);
}
);
};
guides = (
{
angle = 90;
pos = (231,686);
}
);
layerId = m004;
shapes = (
{
closed = 1;
nodes = (
(199,0,l),
(209,10,l),
(204,70,o),
(199,136,o),
(199,265,cs),
(199,594,ls),
(199,669,o),
(215,705,o),
(274,705,cs),
(295,705,o),
(322,697,o),
(351,689,c),
(356,692,l),
(375,761,l),
(373,765,l),
(354,772,o),
(318,780,o),
(273,780,cs),
(158,780,o),
(114,703,o),
(114,612,cs),
(114,265,ls),
(114,134,o),
(108,67,o),
(104,10,c),
(112,0,l)
);
},
{
closed = 1;
nodes = (
(92,436,o),
(132,437,o),
(180,437,cs),
(214,437,o),
(261,436,o),
(321,435,c),
(328,442,l),
(328,505,l),
(321,510,l),
(42,510,l),
(35,503,l),
(35,442,l),
(42,435,l)
);
}
);
width = 328;
}
);
unicode = 102;
}
{
color = (99,255,209,255);
glyphname = g;
layers = (
{
background = {
shapes = (
{
closed = 1;
nodes = (
(321,65,o),
(358,126,o),
(358,255,cs),
(358,384,o),
(321,445,o),
(241,445,cs),
(162,445,o),
(125,384,o),
(125,255,cs),
(125,126,o),
(162,65,o),
(241,65,cs)
);
},
{
closed = 1;
nodes = (
(105,-10,o),
(35,80,o),
(35,255,cs),
(35,430,o),
(105,520,o),
(241,520,cs),
(378,520,o),
(448,430,o),
(448,255,cs),
(448,80,o),
(378,-10,o),
(241,-10,cs)
);
}
);
};
guides = (
{
pos = (25,-85);
}
);
layerId = master01;
shapes = (
{
closed = 1;
nodes = (
(373,-230,o),
(456,-154,o),
(456,-74,cs),
(456,14,o),
(405,58,o),
(287,67,cs),
(203,74,o),
(161,83,o),
(161,107,cs),
(161,126,o),
(178,139,o),
(183,146,c),
(137,163,l),
(93,143,o),
(71,112,o),
(71,82,cs),
(71,7,o),
(137,-5,o),
(255,-20,cs),
(354,-33,o),
(381,-44,o),
(381,-81,cs),
(381,-122,o),
(333,-162,o),
(249,-162,cs),
(170,-162,o),
(115,-125,o),
(115,-76,cs),
(115,-29,o),
(145,14,o),
(213,14,c),
(143,36,l),
(90,23,o),
(32,-1,o),
(32,-72,cs),
(32,-170,o),
(111,-230,o),
(234,-230,cs)
);
},
{
closed = 1;
nodes = (
(361,128,o),
(437,205,o),
(437,327,cs),
(437,446,o),
(361,520,o),
(241,520,cs),
(128,520,o),
(57,446,o),
(57,327,cs),
(57,205,o),
(128,128,o),
(241,128,cs)
);
},
{
closed = 1;
nodes = (
(177,203,o),
(147,242,o),
(147,330,cs),
(147,410,o),
(177,445,o),
(247,445,cs),
(317,445,o),
(347,410,o),
(347,330,cs),
(347,242,o),
(317,203,o),
(247,203,cs)
);
},
{
closed = 1;
nodes = (
(350,557,l),
(323,531,l),
(456,540,l),
(453,621,l),
(342,621,o),
(292,608,o),
(292,543,cs),
(292,531,o),
(293,518,o),
(296,504,c),
(350,493,l)
);
}
);
width = 491;
},
{
background = {
shapes = (
{
closed = 1;
nodes = (
(321,65,o),
(358,126,o),
(358,255,cs),
(358,384,o),
(321,445,o),
(241,445,cs),
(162,445,o),
(125,384,o),
(125,255,cs),
(125,126,o),
(162,65,o),
(241,65,cs)
);
},
{
closed = 1;
nodes = (
(105,-10,o),
(35,80,o),
(35,255,cs),
(35,430,o),
(105,520,o),
(241,520,cs),
(378,520,o),
(448,430,o),
(448,255,cs),
(448,80,o),
(378,-10,o),
(241,-10,cs)
);
}
);
};
guides = (
{
pos = (25,-85);
}
);
layerId = m002;
shapes = (
{
closed = 1;
nodes = (
(373,-230,o),
(456,-154,o),
(456,-74,cs),
(456,14,o),
(405,58,o),
(287,67,cs),
(203,74,o),
(161,83,o),
(161,107,cs),
(161,126,o),
(178,139,o),
(183,146,c),
(137,163,l),
(93,143,o),
(71,112,o),
(71,82,cs),
(71,7,o),
(137,-5,o),
(255,-20,cs),
(354,-33,o),
(381,-44,o),
(381,-81,cs),
(381,-122,o),
(333,-162,o),
(249,-162,cs),
(170,-162,o),
(115,-125,o),
(115,-76,cs),
(115,-29,o),
(145,14,o),
(213,14,c),
(143,36,l),
(90,23,o),
(32,-1,o),
(32,-72,cs),
(32,-170,o),
(111,-230,o),
(234,-230,cs)
);
},
{
closed = 1;
nodes = (
(361,128,o),
(437,205,o),
(437,327,cs),
(437,446,o),
(361,520,o),
(241,520,cs),
(128,520,o),
(57,446,o),
(57,327,cs),
(57,205,o),
(128,128,o),
(241,128,cs)
);
},
{
closed = 1;
nodes = (
(177,203,o),
(147,242,o),
(147,330,cs),
(147,410,o),
(177,445,o),
(247,445,cs),
(317,445,o),
(347,410,o),
(347,330,cs),
(347,242,o),
(317,203,o),
(247,203,cs)
);
},
{
closed = 1;
nodes = (
(350,557,l),
(323,531,l),
(456,540,l),
(453,621,l),
(342,621,o),
(292,608,o),
(292,543,cs),
(292,531,o),
(293,518,o),
(296,504,c),
(350,493,l)
);
}
);
width = 491;
},
{
background = {
shapes = (
{
closed = 1;
nodes = (
(321,65,o),
(358,126,o),
(358,255,cs),
(358,384,o),
(321,445,o),
(241,445,cs),
(162,445,o),
(125,384,o),
(125,255,cs),
(125,126,o),
(162,65,o),
(241,65,cs)
);
},
{
closed = 1;
nodes = (
(105,-10,o),
(35,80,o),
(35,255,cs),
(35,430,o),
(105,520,o),
(241,520,cs),
(378,520,o),
(448,430,o),
(448,255,cs),
(448,80,o),
(378,-10,o),
(241,-10,cs)
);
}
);
};
guides = (
{
pos = (25,-85);
}
);
layerId = m003;
shapes = (
{
closed = 1;
nodes = (
(373,-230,o),
(456,-154,o),
(456,-74,cs),
(456,14,o),
(405,58,o),
(287,67,cs),
(203,74,o),
(161,83,o),
(161,107,cs),
(161,126,o),
(178,139,o),
(183,146,c),
(137,163,l),
(93,143,o),
(71,112,o),
(71,82,cs),
(71,7,o),
(137,-5,o),
(255,-20,cs),
(354,-33,o),
(381,-44,o),
(381,-81,cs),
(381,-122,o),
(333,-162,o),
(249,-162,cs),
(170,-162,o),
(115,-125,o),
(115,-76,cs),
(115,-29,o),
(145,14,o),
(213,14,c),
(143,36,l),
(90,23,o),
(32,-1,o),
(32,-72,cs),
(32,-170,o),
(111,-230,o),
(234,-230,cs)
);
},
{
closed = 1;
nodes = (
(361,128,o),
(437,205,o),
(437,327,cs),
(437,446,o),
(361,520,o),
(241,520,cs),
(128,520,o),
(57,446,o),
(57,327,cs),
(57,205,o),
(128,128,o),
(241,128,cs)
);
},
{
closed = 1;
nodes = (
(177,203,o),
(147,242,o),
(147,330,cs),
(147,410,o),
(177,445,o),
(247,445,cs),
(317,445,o),
(347,410,o),
(347,330,cs),
(347,242,o),
(317,203,o),
(247,203,cs)
);
},
{
closed = 1;
nodes = (
(350,557,l),
(323,531,l),
(456,540,l),
(453,621,l),
(342,621,o),
(292,608,o),
(292,543,cs),
(292,531,o),
(293,518,o),
(296,504,c),
(350,493,l)
);
}
);
width = 491;
},
{
background = {
shapes = (
{
closed = 1;
nodes = (
(321,65,o),
(358,126,o),
(358,255,cs),
(358,384,o),
(321,445,o),
(241,445,cs),
(162,445,o),
(125,384,o),
(125,255,cs),
(125,126,o),
(162,65,o),
(241,65,cs)
);
},
{
closed = 1;
nodes = (
(105,-10,o),
(35,80,o),
(35,255,cs),
(35,430,o),
(105,520,o),
(241,520,cs),
(378,520,o),
(448,430,o),
(448,255,cs),
(448,80,o),
(378,-10,o),
(241,-10,cs)
);
}
);
};
guides = (
{
pos = (25,-85);
}
);
layerId = m004;
shapes = (
{
closed = 1;
nodes = (
(373,-230,o),
(456,-154,o),
(456,-74,cs),
(456,14,o),
(405,58,o),
(287,67,cs),
(203,74,o),
(161,83,o),
(161,107,cs),
(161,126,o),
(178,139,o),
(183,146,c),
(137,163,l),
(93,143,o),
(71,112,o),
(71,82,cs),
(71,7,o),
(137,-5,o),
(255,-20,cs),
(354,-33,o),
(381,-44,o),
(381,-81,cs),
(381,-122,o),
(333,-162,o),
(249,-162,cs),
(170,-162,o),
(115,-125,o),
(115,-76,cs),
(115,-29,o),
(145,14,o),
(213,14,c),
(143,36,l),
(90,23,o),
(32,-1,o),
(32,-72,cs),
(32,-170,o),
(111,-230,o),
(234,-230,cs)
);
},
{
closed = 1;
nodes = (
(361,128,o),
(437,205,o),
(437,327,cs),
(437,446,o),
(361,520,o),
(241,520,cs),
(128,520,o),
(57,446,o),
(57,327,cs),
(57,205,o),
(128,128,o),
(241,128,cs)
);
},
{
closed = 1;
nodes = (
(177,203,o),
(147,242,o),
(147,330,cs),
(147,410,o),
(177,445,o),
(247,445,cs),
(317,445,o),
(347,410,o),
(347,330,cs),
(347,242,o),
(317,203,o),
(247,203,cs)
);
},
{
closed = 1;
nodes = (
(350,557,l),
(323,531,l),
(456,540,l),
(453,621,l),
(342,621,o),
(292,608,o),
(292,543,cs),
(292,531,o),
(293,518,o),
(296,504,c),
(350,493,l)
);
}
);
width = 491;
}
);
unicode = 103;
}
{
color = (99,255,209,255);
glyphname = h;
layers = (
{
background = {
shapes = (
{
closed = 1;
nodes = (
(194,384,o),
(223,430,o),
(290,430,c),
(352,430,o),
(370,394,o),
(370,275,c),
(370,196,o),
(366,120,o),
(366,65,cs),
(366,13,o),
(397,-10,o),
(437,-10,c),
(460,-10,o),
(491,-5,o),
(518,-1,c),
(522,80,l),
(422,100,l),
(470,37,l),
(470,383,ls),
(470,477,o),
(432,520,o),
(339,520,c),
(244,520,o),
(193,447,o),
(178,394,c),
(214,440,l),
(178,440,l),
(194,413,l),
(194,688,ls),
(194,729,o),
(178,750,o),
(133,750,c),
(104,750,o),
(68,743,o),
(35,735,c),
(42,652,l),
(103,655,l),
(84,702,l),
(84,702,o),
(91,651,o),
(94,401,cs),
(97,151,o),
(84,10,o),
(84,10,c),
(89,0,l),
(199,0,l),
(204,10,l),
(204,10,o),
(194,89,o),
(194,275,cs)
);
}
);
};
layerId = master01;
shapes = (
{
closed = 1;
nodes = (
(484,-10,o),
(515,-5,o),
(542,-1,c),
(546,64,l),
(452,83,l),
(503,32,l),
(494,114,o),
(494,173,o),
(494,365,cs),
(494,470,o),
(435,520,o),
(339,520,cs),
(238,520,o),
(184,448,o),
(171,395,c),
(208,449,l),
(174,449,l),
(184,413,l),
(184,718,ls),
(184,759,o),
(170,780,o),
(129,780,cs),
(103,780,o),
(69,772,o),
(40,765,c),
(47,700,l),
(108,703,l),
(89,732,l),
(95,647,o),
(99,483,o),
(99,372,cs),
(99,268,o),
(99,113,o),
(89,10,c),
(94,0,l),
(189,0,l),
(194,10,l),
(187,70,o),
(184,179,o),
(184,251,cs),
(184,373,o),
(223,440,o),
(303,440,cs),
(385,440,o),
(409,393,o),
(409,275,cs),
(409,215,o),
(405,125,o),
(405,65,cs),
(405,13,o),
(429,-10,o),
(461,-10,cs)
);
}
);
width = 586;
},
{
background = {
shapes = (
{
closed = 1;
nodes = (
(194,384,o),
(223,430,o),
(290,430,c),
(352,430,o),
(370,394,o),
(370,275,c),
(370,196,o),
(366,120,o),
(366,65,cs),
(366,13,o),
(397,-10,o),
(437,-10,c),
(460,-10,o),
(491,-5,o),
(518,-1,c),
(522,80,l),
(422,100,l),
(470,37,l),
(470,383,ls),
(470,477,o),
(432,520,o),
(339,520,c),
(244,520,o),
(193,447,o),
(178,394,c),
(214,440,l),
(178,440,l),
(194,413,l),
(194,688,ls),
(194,729,o),
(178,750,o),
(133,750,c),
(104,750,o),
(68,743,o),
(35,735,c),
(42,652,l),
(103,655,l),
(84,702,l),
(84,702,o),
(91,651,o),
(94,401,cs),
(97,151,o),
(84,10,o),
(84,10,c),
(89,0,l),
(199,0,l),
(204,10,l),
(204,10,o),
(194,89,o),
(194,275,cs)
);
}
);
};
layerId = m002;
shapes = (
{
closed = 1;
nodes = (
(484,-10,o),
(515,-5,o),
(542,-1,c),
(546,64,l),
(452,83,l),
(503,32,l),
(494,114,o),
(494,173,o),
(494,365,cs),
(494,470,o),
(435,520,o),
(339,520,cs),
(238,520,o),
(184,448,o),
(171,395,c),
(208,449,l),
(174,449,l),
(184,413,l),
(184,718,ls),
(184,759,o),
(170,780,o),
(129,780,cs),
(103,780,o),
(69,772,o),
(40,765,c),
(47,700,l),
(108,703,l),
(89,732,l),
(95,647,o),
(99,483,o),
(99,372,cs),
(99,268,o),
(99,113,o),
(89,10,c),
(94,0,l),
(189,0,l),
(194,10,l),
(187,70,o),
(184,179,o),
(184,251,cs),
(184,373,o),
(223,440,o),
(303,440,cs),
(385,440,o),
(409,393,o),
(409,275,cs),
(409,215,o),
(405,125,o),
(405,65,cs),
(405,13,o),
(429,-10,o),
(461,-10,cs)
);
}
);
width = 586;
},
{
background = {
shapes = (
{
closed = 1;
nodes = (
(194,384,o),
(223,430,o),
(290,430,c),
(352,430,o),
(370,394,o),
(370,275,c),
(370,196,o),
(366,120,o),
(366,65,cs),
(366,13,o),
(397,-10,o),
(437,-10,c),
(460,-10,o),
(491,-5,o),
(518,-1,c),
(522,80,l),
(422,100,l),
(470,37,l),
(470,383,ls),
(470,477,o),
(432,520,o),
(339,520,c),
(244,520,o),
(193,447,o),
(178,394,c),
(214,440,l),
(178,440,l),
(194,413,l),
(194,688,ls),
(194,729,o),
(178,750,o),
(133,750,c),
(104,750,o),
(68,743,o),
(35,735,c),
(42,652,l),
(103,655,l),
(84,702,l),
(84,702,o),
(91,651,o),
(94,401,cs),
(97,151,o),
(84,10,o),
(84,10,c),
(89,0,l),
(199,0,l),
(204,10,l),
(204,10,o),
(194,89,o),
(194,275,cs)
);
}
);
};
layerId = m003;
shapes = (
{
closed = 1;
nodes = (
(484,-10,o),
(515,-5,o),
(542,-1,c),
(546,64,l),
(452,83,l),
(503,32,l),
(494,114,o),
(494,173,o),
(494,365,cs),
(494,470,o),
(435,520,o),
(339,520,cs),
(238,520,o),
(184,448,o),
(171,395,c),
(208,449,l),
(174,449,l),
(184,413,l),
(184,718,ls),
(184,759,o),
(170,780,o),
(129,780,cs),
(103,780,o),
(69,772,o),
(40,765,c),
(47,700,l),
(108,703,l),
(89,732,l),
(95,647,o),
(99,483,o),
(99,372,cs),
(99,268,o),
(99,113,o),
(89,10,c),
(94,0,l),
(189,0,l),
(194,10,l),
(187,70,o),
(184,179,o),
(184,251,cs),
(184,373,o),
(223,440,o),
(303,440,cs),
(385,440,o),
(409,393,o),
(409,275,cs),
(409,215,o),
(405,125,o),
(405,65,cs),
(405,13,o),
(429,-10,o),
(461,-10,cs)
);
}
);
width = 586;
},
{
background = {
shapes = (
{
closed = 1;
nodes = (
(194,384,o),
(223,430,o),
(290,430,c),
(352,430,o),
(370,394,o),
(370,275,c),
(370,196,o),
(366,120,o),
(366,65,cs),
(366,13,o),
(397,-10,o),
(437,-10,c),
(460,-10,o),
(491,-5,o),
(518,-1,c),
(522,80,l),
(422,100,l),
(470,37,l),
(470,383,ls),
(470,477,o),
(432,520,o),
(339,520,c),
(244,520,o),
(193,447,o),
(178,394,c),
(214,440,l),
(178,440,l),
(194,413,l),
(194,688,ls),
(194,729,o),
(178,750,o),
(133,750,c),
(104,750,o),
(68,743,o),
(35,735,c),
(42,652,l),
(103,655,l),
(84,702,l),
(84,702,o),
(91,651,o),
(94,401,cs),
(97,151,o),
(84,10,o),
(84,10,c),
(89,0,l),
(199,0,l),
(204,10,l),
(204,10,o),
(194,89,o),
(194,275,cs)
);
}
);
};
layerId = m004;
shapes = (
{
closed = 1;
nodes = (
(484,-10,o),
(515,-5,o),
(542,-1,c),
(546,64,l),
(452,83,l),
(503,32,l),
(494,114,o),
(494,173,o),
(494,365,cs),
(494,470,o),
(435,520,o),
(339,520,cs),
(238,520,o),
(184,448,o),
(171,395,c),
(208,449,l),
(174,449,l),
(184,413,l),
(184,718,ls),
(184,759,o),
(170,780,o),
(129,780,cs),
(103,780,o),
(69,772,o),
(40,765,c),
(47,700,l),
(108,703,l),
(89,732,l),
(95,647,o),
(99,483,o),
(99,372,cs),
(99,268,o),
(99,113,o),
(89,10,c),
(94,0,l),
(189,0,l),
(194,10,l),
(187,70,o),
(184,179,o),
(184,251,cs),
(184,373,o),
(223,440,o),
(303,440,cs),
(385,440,o),
(409,393,o),
(409,275,cs),
(409,215,o),
(405,125,o),
(405,65,cs),
(405,13,o),
(429,-10,o),
(461,-10,cs)
);
}
);
width = 586;
}
);
unicode = 104;
}
{
glyphname = k;
layers = (
{
layerId = master01;
shapes = (
{
closed = 1;
nodes = (
(193,0,l),
(198,10,l),
(192,93,o),
(188,252,o),
(188,352,cs),
(188,459,o),
(193,697,o),
(193,718,cs),
(193,757,o),
(177,780,o),
(132,780,cs),
(100,780,o),
(61,770,o),
(30,762,c),
(38,699,l),
(109,703,l),
(88,732,l),
(94,646,o),
(99,487,o),
(99,356,cs),
(99,244,o),
(95,93,o),
(89,10,c),
(94,0,l)
);
},
{
closed = 1;
nodes = (
(182,214,l),
(245,296,o),
(375,413,o),
(453,499,c),
(449,510,l),
(353,510,l),
(313,465,o),
(212,352,o),
(170,316,c)
);
},
{
closed = 1;
nodes = (
(287,333,l),
(211,278,l),
(263,173,l),
(313,75,o),
(358,-9,o),
(422,-9,cs),
(447,-9,o),
(476,5,o),
(509,37,c),
(489,89,l),
(402,79,l),
(442,52,l),
(324,260,l)
);
}
);
width = 531;
},
{
layerId = m002;
shapes = (
{
closed = 1;
nodes = (
(193,0,l),
(198,10,l),
(192,93,o),
(188,252,o),
(188,352,cs),
(188,459,o),
(193,697,o),
(193,718,cs),
(193,757,o),
(177,780,o),
(132,780,cs),
(100,780,o),
(61,770,o),
(30,762,c),
(38,699,l),
(109,703,l),
(88,732,l),
(94,646,o),
(99,487,o),
(99,356,cs),
(99,244,o),
(95,93,o),
(89,10,c),
(94,0,l)
);
},
{
closed = 1;
nodes = (
(182,214,l),
(245,296,o),
(375,413,o),
(453,499,c),
(449,510,l),
(353,510,l),
(313,465,o),
(212,352,o),
(170,316,c)
);
},
{
closed = 1;
nodes = (
(287,333,l),
(211,278,l),
(263,173,l),
(313,75,o),
(358,-9,o),
(422,-9,cs),
(447,-9,o),
(476,5,o),
(509,37,c),
(489,89,l),
(402,79,l),
(442,52,l),
(324,260,l)
);
}
);
width = 531;
},
{
layerId = m003;
shapes = (
{
closed = 1;
nodes = (
(193,0,l),
(198,10,l),
(192,93,o),
(188,252,o),
(188,352,cs),
(188,459,o),
(193,697,o),
(193,718,cs),
(193,757,o),
(177,780,o),
(132,780,cs),
(100,780,o),
(61,770,o),
(30,762,c),
(38,699,l),
(109,703,l),
(88,732,l),
(94,646,o),
(99,487,o),
(99,356,cs),
(99,244,o),
(95,93,o),
(89,10,c),
(94,0,l)
);
},
{
closed = 1;
nodes = (
(182,214,l),
(245,296,o),
(375,413,o),
(453,499,c),
(449,510,l),
(353,510,l),
(313,465,o),
(212,352,o),
(170,316,c)
);
},
{
closed = 1;
nodes = (
(287,333,l),
(211,278,l),
(263,173,l),
(313,75,o),
(358,-9,o),
(422,-9,cs),
(447,-9,o),
(476,5,o),
(509,37,c),
(489,89,l),
(402,79,l),
(442,52,l),
(324,260,l)
);
}
);
width = 531;
},
{
layerId = m004;
shapes = (
{
closed = 1;
nodes = (
(193,0,l),
(198,10,l),
(192,93,o),
(188,252,o),
(188,352,cs),
(188,459,o),
(193,697,o),
(193,718,cs),
(193,757,o),
(177,780,o),
(132,780,cs),
(100,780,o),
(61,770,o),
(30,762,c),
(38,699,l),
(109,703,l),
(88,732,l),
(94,646,o),
(99,487,o),
(99,356,cs),
(99,244,o),
(95,93,o),
(89,10,c),
(94,0,l)
);
},
{
closed = 1;
nodes = (
(182,214,l),
(245,296,o),
(375,413,o),
(453,499,c),
(449,510,l),
(353,510,l),
(313,465,o),
(212,352,o),
(170,316,c)
);
},
{
closed = 1;
nodes = (
(287,333,l),
(211,278,l),
(263,173,l),
(313,75,o),
(358,-9,o),
(422,-9,cs),
(447,-9,o),
(476,5,o),
(509,37,c),
(489,89,l),
(402,79,l),
(442,52,l),
(324,260,l)
);
}
);
width = 531;
}
);
unicode = 107;
}
{
color = (99,255,209,255);
glyphname = m;
layers = (
{
background = {
shapes = (
{
closed = 1;
nodes = (
(184,374,o),
(215,440,o),
(303,440,c),
(385,440,o),
(409,394,o),
(409,275,c),
(409,196,o),
(405,120,o),
(405,65,cs),
(405,13,o),
(429,-10,o),
(461,-10,c),
(484,-10,o),
(515,-5,o),
(542,-1,c),
(546,64,l),
(452,83,l),
(494,32,l),
(494,365,ls),
(494,471,o),
(435,520,o),
(339,520,c),
(237,520,o),
(184,448,o),
(171,395,c),
(208,439,l),
(174,439,l),
(184,413,l),
(184,458,ls),
(184,499,o),
(170,520,o),
(129,520,c),
(103,520,o),
(69,512,o),
(40,505,c),
(47,440,l),
(108,443,l),
(89,472,l),
(89,472,o),
(99,415,o),
(99,275,cs),
(99,84,o),
(89,10,o),
(89,10,c),
(94,0,l),
(189,0,l),
(194,10,l),
(194,10,o),
(184,82,o),
(184,251,cs)
);
}
);
};
guides = (
{
pos = (409,251);
userData = {
UFO.identifier = hA9fwbT0CR;
};
}
);
layerId = master01;
shapes = (
{
closed = 1;
nodes = (
(762,-10,o),
(794,-4,o),
(813,0,c),
(817,64,l),
(723,83,l),
(764,33,l),
(764,365,ls),
(764,460,o),
(717,520,o),
(618,520,cs),
(529,520,o),
(463,462,o),
(451,395,c),
(495,446,l),
(458,446,l),
(474,390,l),
(474,455,o),
(430,520,o),
(327,520,cs),
(251,520,o),
(191,468,o),
(168,395,c),
(204,447,l),
(168,447,l),
(184,413,l),
(184,458,ls),
(184,497,o),
(172,520,o),
(138,520,cs),
(109,520,o),
(73,513,o),
(40,505,c),
(47,440,l),
(108,443,l),
(89,472,l),
(96,423,o),
(99,334,o),
(99,275,cs),
(99,197,o),
(97,80,o),
(89,10,c),
(94,0,l),
(189,0,l),
(194,10,l),
(187,77,o),
(184,197,o),
(184,275,cs),
(184,393,o),
(218,440,o),
(292,440,cs),
(365,440,o),
(389,394,o),
(389,275,cs),
(389,225,o),
(387,55,o),
(379,6,c),
(383,0,l),
(479,0,l),
(484,6,l),
(477,88,o),
(474,130,o),
(474,275,cs),
(474,390,o),
(504,440,o),
(587,440,cs),
(659,440,o),
(679,397,o),
(679,275,cs),
(679,215,o),
(675,125,o),
(675,65,cs),
(675,13,o),
(704,-10,o),
(742,-10,cs)
);
}
);
userData = {
com.typemytype.robofont.guideline.showMeasurements.RPSkcjBNnE = 1;
};
width = 857;
},
{
background = {
shapes = (
{
closed = 1;
nodes = (
(184,374,o),
(215,440,o),
(303,440,c),
(385,440,o),
(409,394,o),
(409,275,c),
(409,196,o),
(405,120,o),
(405,65,cs),
(405,13,o),
(429,-10,o),
(461,-10,c),
(484,-10,o),
(515,-5,o),
(542,-1,c),
(546,64,l),
(452,83,l),
(494,32,l),
(494,365,ls),
(494,471,o),
(435,520,o),
(339,520,c),
(237,520,o),
(184,448,o),
(171,395,c),
(208,439,l),
(174,439,l),
(184,413,l),
(184,458,ls),
(184,499,o),
(170,520,o),
(129,520,c),
(103,520,o),
(69,512,o),
(40,505,c),
(47,440,l),
(108,443,l),
(89,472,l),
(89,472,o),
(99,415,o),
(99,275,cs),
(99,84,o),
(89,10,o),
(89,10,c),
(94,0,l),
(189,0,l),
(194,10,l),
(194,10,o),
(184,82,o),
(184,251,cs)
);
}
);
};
guides = (
{
pos = (409,251);
}
);
layerId = m002;
shapes = (
{
closed = 1;
nodes = (
(762,-10,o),
(794,-4,o),
(813,0,c),
(817,64,l),
(723,83,l),
(764,33,l),
(764,365,ls),
(764,460,o),
(717,520,o),
(618,520,cs),
(529,520,o),
(463,462,o),
(451,395,c),
(495,446,l),
(458,446,l),
(474,390,l),
(474,455,o),
(430,520,o),
(327,520,cs),
(251,520,o),
(191,468,o),
(168,395,c),
(204,447,l),
(168,447,l),
(184,413,l),
(184,458,ls),
(184,497,o),
(172,520,o),
(138,520,cs),
(109,520,o),
(73,513,o),
(40,505,c),
(47,440,l),
(108,443,l),
(89,472,l),
(96,423,o),
(99,334,o),
(99,275,cs),
(99,197,o),
(97,80,o),
(89,10,c),
(94,0,l),
(189,0,l),
(194,10,l),
(187,77,o),
(184,197,o),
(184,275,cs),
(184,393,o),
(218,440,o),
(292,440,cs),
(365,440,o),
(389,394,o),
(389,275,cs),
(389,225,o),
(387,55,o),
(379,6,c),
(383,0,l),
(479,0,l),
(484,6,l),
(477,88,o),
(474,130,o),
(474,275,cs),
(474,390,o),
(504,440,o),
(587,440,cs),
(659,440,o),
(679,397,o),
(679,275,cs),
(679,215,o),
(675,125,o),
(675,65,cs),
(675,13,o),
(704,-10,o),
(742,-10,cs)
);
}
);
userData = {
com.typemytype.robofont.guideline.showMeasurements.RPSkcjBNnE = 1;
};
width = 857;
},
{
background = {
shapes = (
{
closed = 1;
nodes = (
(184,374,o),
(215,440,o),
(303,440,c),
(385,440,o),
(409,394,o),
(409,275,c),
(409,196,o),
(405,120,o),
(405,65,cs),
(405,13,o),
(429,-10,o),
(461,-10,c),
(484,-10,o),
(515,-5,o),
(542,-1,c),
(546,64,l),
(452,83,l),
(494,32,l),
(494,365,ls),
(494,471,o),
(435,520,o),
(339,520,c),
(237,520,o),
(184,448,o),
(171,395,c),
(208,439,l),
(174,439,l),
(184,413,l),
(184,458,ls),
(184,499,o),
(170,520,o),
(129,520,c),
(103,520,o),
(69,512,o),
(40,505,c),
(47,440,l),
(108,443,l),
(89,472,l),
(89,472,o),
(99,415,o),
(99,275,cs),
(99,84,o),
(89,10,o),
(89,10,c),
(94,0,l),
(189,0,l),
(194,10,l),
(194,10,o),
(184,82,o),
(184,251,cs)
);
}
);
};
guides = (
{
pos = (409,251);
}
);
layerId = m003;
shapes = (
{
closed = 1;
nodes = (
(762,-10,o),
(794,-4,o),
(813,0,c),
(817,64,l),
(723,83,l),
(764,33,l),
(764,365,ls),
(764,460,o),
(717,520,o),
(618,520,cs),
(529,520,o),
(463,462,o),
(451,395,c),
(495,446,l),
(458,446,l),
(474,390,l),
(474,455,o),
(430,520,o),
(327,520,cs),
(251,520,o),
(191,468,o),
(168,395,c),
(204,447,l),
(168,447,l),
(184,413,l),
(184,458,ls),
(184,497,o),
(172,520,o),
(138,520,cs),
(109,520,o),
(73,513,o),
(40,505,c),
(47,440,l),
(108,443,l),
(89,472,l),
(96,423,o),
(99,334,o),
(99,275,cs),
(99,197,o),
(97,80,o),
(89,10,c),
(94,0,l),
(189,0,l),
(194,10,l),
(187,77,o),
(184,197,o),
(184,275,cs),
(184,393,o),
(218,440,o),
(292,440,cs),
(365,440,o),
(389,394,o),
(389,275,cs),
(389,225,o),
(387,55,o),
(379,6,c),
(383,0,l),
(479,0,l),
(484,6,l),
(477,88,o),
(474,130,o),
(474,275,cs),
(474,390,o),
(504,440,o),
(587,440,cs),
(659,440,o),
(679,397,o),
(679,275,cs),
(679,215,o),
(675,125,o),
(675,65,cs),
(675,13,o),
(704,-10,o),
(742,-10,cs)
);
}
);
userData = {
com.typemytype.robofont.guideline.showMeasurements.RPSkcjBNnE = 1;
};
width = 857;
},
{
background = {
shapes = (
{
closed = 1;
nodes = (
(184,374,o),
(215,440,o),
(303,440,c),
(385,440,o),
(409,394,o),
(409,275,c),
(409,196,o),
(405,120,o),
(405,65,cs),
(405,13,o),
(429,-10,o),
(461,-10,c),
(484,-10,o),
(515,-5,o),
(542,-1,c),
(546,64,l),
(452,83,l),
(494,32,l),
(494,365,ls),
(494,471,o),
(435,520,o),
(339,520,c),
(237,520,o),
(184,448,o),
(171,395,c),
(208,439,l),
(174,439,l),
(184,413,l),
(184,458,ls),
(184,499,o),
(170,520,o),
(129,520,c),
(103,520,o),
(69,512,o),
(40,505,c),
(47,440,l),
(108,443,l),
(89,472,l),
(89,472,o),
(99,415,o),
(99,275,cs),
(99,84,o),
(89,10,o),
(89,10,c),
(94,0,l),
(189,0,l),
(194,10,l),
(194,10,o),
(184,82,o),
(184,251,cs)
);
}
);
};
guides = (
{
pos = (409,251);
}
);
layerId = m004;
shapes = (
{
closed = 1;
nodes = (
(762,-10,o),
(794,-4,o),
(813,0,c),
(817,64,l),
(723,83,l),
(764,33,l),
(764,365,ls),
(764,460,o),
(717,520,o),
(618,520,cs),
(529,520,o),
(463,462,o),
(451,395,c),
(495,446,l),
(458,446,l),
(474,390,l),
(474,455,o),
(430,520,o),
(327,520,cs),
(251,520,o),
(191,468,o),
(168,395,c),
(204,447,l),
(168,447,l),
(184,413,l),
(184,458,ls),
(184,497,o),
(172,520,o),
(138,520,cs),
(109,520,o),
(73,513,o),
(40,505,c),
(47,440,l),
(108,443,l),
(89,472,l),
(96,423,o),
(99,334,o),
(99,275,cs),
(99,197,o),
(97,80,o),
(89,10,c),
(94,0,l),
(189,0,l),
(194,10,l),
(187,77,o),
(184,197,o),
(184,275,cs),
(184,393,o),
(218,440,o),
(292,440,cs),
(365,440,o),
(389,394,o),
(389,275,cs),
(389,225,o),
(387,55,o),
(379,6,c),
(383,0,l),
(479,0,l),
(484,6,l),
(477,88,o),
(474,130,o),
(474,275,cs),
(474,390,o),
(504,440,o),
(587,440,cs),
(659,440,o),
(679,397,o),
(679,275,cs),
(679,215,o),
(675,125,o),
(675,65,cs),
(675,13,o),
(704,-10,o),
(742,-10,cs)
);
}
);
userData = {
com.typemytype.robofont.guideline.showMeasurements.RPSkcjBNnE = 1;
};
width = 857;
}
);
unicode = 109;
}
{
color = (99,255,209,255);
glyphname = n;
layers = (
{
anchors = (
{
name = bottom;
pos = (293,0);
},
{
name = top;
pos = (307,519);
}
);
background = {
shapes = (
{
closed = 1;
nodes = (
(109,155,o),
(110,210,o),
(110,275,cs),
(110,363,o),
(108,429,o),
(102,471,c),
(125,434,l),
(58,431,l),
(51,504,l),
(59,507,o),
(67,509,o),
(75,509,c),
(87,513,o),
(98,515,o),
(110,517,cs),
(121,518,o),
(132,519,o),
(141,519,cs),
(159,519,o),
(172,514,o),
(180,504,cs),
(188,494,o),
(192,479,o),
(192,457,cs),
(192,412,l),
(176,439,l),
(217,439,l),
(179,392,l),
(188,428,o),
(208,458,o),
(238,482,cs),
(267,507,o),
(306,519,o),
(354,519,cs),
(403,519,o),
(440,506,o),
(465,478,cs),
(490,451,o),
(503,410,o),
(503,355,cs),
(503,31,l),
(460,85,l),
(555,65,l),
(551,-1,l),
(529,-4,ls),
(502,-8,o),
(484,-10,o),
(475,-10,cs),
(455,-10,o),
(440,-4,o),
(430,9,cs),
(419,21,o),
(414,40,o),
(414,65,cs),
(416,159,ls),
(417,213,o),
(417,260,o),
(418,300,cs),
(418,336,o),
(414,364,o),
(406,385,cs),
(399,407,o),
(387,422,o),
(372,432,cs),
(357,441,o),
(338,446,o),
(313,446,cs),
(273,446,o),
(243,432,o),
(223,402,cs),
(202,373,o),
(192,331,o),
(192,276,cs),
(192,214,o),
(193,161,o),
(195,115,cs),
(197,70,o),
(199,34,o),
(202,10,c),
(197,0,l),
(105,0,l),
(100,10,l),
(103,30,o),
(105,64,o),
(107,109,cs)
);
}
);
};
layerId = master01;
shapes = (
{
closed = 1;
nodes = (
(484,-10,o),
(515,-5,o),
(542,-1,c),
(546,64,l),
(452,83,l),
(494,32,l),
(494,365,ls),
(494,470,o),
(435,520,o),
(339,520,cs),
(238,520,o),
(184,448,o),
(171,395,c),
(208,446,l),
(174,446,l),
(184,413,l),
(184,458,ls),
(184,499,o),
(170,520,o),
(129,520,cs),
(103,520,o),
(69,512,o),
(40,505,c),
(47,440,l),
(108,443,l),
(89,472,l),
(97,423,o),
(99,330,o),
(99,275,cs),
(99,198,o),
(97,77,o),
(89,10,c),
(94,0,l),
(189,0,l),
(194,10,l),
(187,70,o),
(184,179,o),
(184,251,cs),
(184,373,o),
(215,440,o),
(303,440,cs),
(385,440,o),
(409,393,o),
(409,275,cs),
(409,215,o),
(405,125,o),
(405,65,cs),
(405,13,o),
(429,-10,o),
(461,-10,cs)
);
}
);
width = 586;
},
{
anchors = (
{
name = bottom;
pos = (293,0);
},
{
name = top;
pos = (307,519);
}
);
background = {
shapes = (
{
closed = 1;
nodes = (
(109,155,o),
(110,210,o),
(110,275,cs),
(110,363,o),
(108,429,o),
(102,471,c),
(125,434,l),
(58,431,l),
(51,504,l),
(59,507,o),
(67,509,o),
(75,509,c),
(87,513,o),
(98,515,o),
(110,517,cs),
(121,518,o),
(132,519,o),
(141,519,cs),
(159,519,o),
(172,514,o),
(180,504,cs),
(188,494,o),
(192,479,o),
(192,457,cs),
(192,412,l),
(176,439,l),
(217,439,l),
(179,392,l),
(188,428,o),
(208,458,o),
(238,482,cs),
(267,507,o),
(306,519,o),
(354,519,cs),
(403,519,o),
(440,506,o),
(465,478,cs),
(490,451,o),
(503,410,o),
(503,355,cs),
(503,31,l),
(460,85,l),
(555,65,l),
(551,-1,l),
(529,-4,ls),
(502,-8,o),
(484,-10,o),
(475,-10,cs),
(455,-10,o),
(440,-4,o),
(430,9,cs),
(419,21,o),
(414,40,o),
(414,65,cs),
(416,159,ls),
(417,213,o),
(417,260,o),
(418,300,cs),
(418,336,o),
(414,364,o),
(406,385,cs),
(399,407,o),
(387,422,o),
(372,432,cs),
(357,441,o),
(338,446,o),
(313,446,cs),
(273,446,o),
(243,432,o),
(223,402,cs),
(202,373,o),
(192,331,o),
(192,276,cs),
(192,214,o),
(193,161,o),
(195,115,cs),
(197,70,o),
(199,34,o),
(202,10,c),
(197,0,l),
(105,0,l),
(100,10,l),
(103,30,o),
(105,64,o),
(107,109,cs)
);
}
);
};
layerId = m002;
shapes = (
{
closed = 1;
nodes = (
(484,-10,o),
(515,-5,o),
(542,-1,c),
(546,64,l),
(452,83,l),
(494,32,l),
(494,365,ls),
(494,470,o),
(435,520,o),
(339,520,cs),
(238,520,o),
(184,448,o),
(171,395,c),
(208,446,l),
(174,446,l),
(184,413,l),
(184,458,ls),
(184,499,o),
(170,520,o),
(129,520,cs),
(103,520,o),
(69,512,o),
(40,505,c),
(47,440,l),
(108,443,l),
(89,472,l),
(97,423,o),
(99,330,o),
(99,275,cs),
(99,198,o),
(97,77,o),
(89,10,c),
(94,0,l),
(189,0,l),
(194,10,l),
(187,70,o),
(184,179,o),
(184,251,cs),
(184,373,o),
(215,440,o),
(303,440,cs),
(385,440,o),
(409,393,o),
(409,275,cs),
(409,215,o),
(405,125,o),
(405,65,cs),
(405,13,o),
(429,-10,o),
(461,-10,cs)
);
}
);
width = 586;
},
{
anchors = (
{
name = bottom;
pos = (293,0);
},
{
name = top;
pos = (307,519);
}
);
background = {
shapes = (
{
closed = 1;
nodes = (
(109,155,o),
(110,210,o),
(110,275,cs),
(110,363,o),
(108,429,o),
(102,471,c),
(125,434,l),
(58,431,l),
(51,504,l),
(59,507,o),
(67,509,o),
(75,509,c),
(87,513,o),
(98,515,o),
(110,517,cs),
(121,518,o),
(132,519,o),
(141,519,cs),
(159,519,o),
(172,514,o),
(180,504,cs),
(188,494,o),
(192,479,o),
(192,457,cs),
(192,412,l),
(176,439,l),
(217,439,l),
(179,392,l),
(188,428,o),
(208,458,o),
(238,482,cs),
(267,507,o),
(306,519,o),
(354,519,cs),
(403,519,o),
(440,506,o),
(465,478,cs),
(490,451,o),
(503,410,o),
(503,355,cs),
(503,31,l),
(460,85,l),
(555,65,l),
(551,-1,l),
(529,-4,ls),
(502,-8,o),
(484,-10,o),
(475,-10,cs),
(455,-10,o),
(440,-4,o),
(430,9,cs),
(419,21,o),
(414,40,o),
(414,65,cs),
(416,159,ls),
(417,213,o),
(417,260,o),
(418,300,cs),
(418,336,o),
(414,364,o),
(406,385,cs),
(399,407,o),
(387,422,o),
(372,432,cs),
(357,441,o),
(338,446,o),
(313,446,cs),
(273,446,o),
(243,432,o),
(223,402,cs),
(202,373,o),
(192,331,o),
(192,276,cs),
(192,214,o),
(193,161,o),
(195,115,cs),
(197,70,o),
(199,34,o),
(202,10,c),
(197,0,l),
(105,0,l),
(100,10,l),
(103,30,o),
(105,64,o),
(107,109,cs)
);
}
);
};
layerId = m003;
shapes = (
{
closed = 1;
nodes = (
(484,-10,o),
(515,-5,o),
(542,-1,c),
(546,64,l),
(452,83,l),
(494,32,l),
(494,365,ls),
(494,470,o),
(435,520,o),
(339,520,cs),
(238,520,o),
(184,448,o),
(171,395,c),
(208,446,l),
(174,446,l),
(184,413,l),
(184,458,ls),
(184,499,o),
(170,520,o),
(129,520,cs),
(103,520,o),
(69,512,o),
(40,505,c),
(47,440,l),
(108,443,l),
(89,472,l),
(97,423,o),
(99,330,o),
(99,275,cs),
(99,198,o),
(97,77,o),
(89,10,c),
(94,0,l),
(189,0,l),
(194,10,l),
(187,70,o),
(184,179,o),
(184,251,cs),
(184,373,o),
(215,440,o),
(303,440,cs),
(385,440,o),
(409,393,o),
(409,275,cs),
(409,215,o),
(405,125,o),
(405,65,cs),
(405,13,o),
(429,-10,o),
(461,-10,cs)
);
}
);
width = 586;
},
{
anchors = (
{
name = bottom;
pos = (293,0);
},
{
name = top;
pos = (307,519);
}
);
background = {
shapes = (
{
closed = 1;
nodes = (
(109,155,o),
(110,210,o),
(110,275,cs),
(110,363,o),
(108,429,o),
(102,471,c),
(125,434,l),
(58,431,l),
(51,504,l),
(59,507,o),
(67,509,o),
(75,509,c),
(87,513,o),
(98,515,o),
(110,517,cs),
(121,518,o),
(132,519,o),
(141,519,cs),
(159,519,o),
(172,514,o),
(180,504,cs),
(188,494,o),
(192,479,o),
(192,457,cs),
(192,412,l),
(176,439,l),
(217,439,l),
(179,392,l),
(188,428,o),
(208,458,o),
(238,482,cs),
(267,507,o),
(306,519,o),
(354,519,cs),
(403,519,o),
(440,506,o),
(465,478,cs),
(490,451,o),
(503,410,o),
(503,355,cs),
(503,31,l),
(460,85,l),
(555,65,l),
(551,-1,l),
(529,-4,ls),
(502,-8,o),
(484,-10,o),
(475,-10,cs),
(455,-10,o),
(440,-4,o),
(430,9,cs),
(419,21,o),
(414,40,o),
(414,65,cs),
(416,159,ls),
(417,213,o),
(417,260,o),
(418,300,cs),
(418,336,o),
(414,364,o),
(406,385,cs),
(399,407,o),
(387,422,o),
(372,432,cs),
(357,441,o),
(338,446,o),
(313,446,cs),
(273,446,o),
(243,432,o),
(223,402,cs),
(202,373,o),
(192,331,o),
(192,276,cs),
(192,214,o),
(193,161,o),
(195,115,cs),
(197,70,o),
(199,34,o),
(202,10,c),
(197,0,l),
(105,0,l),
(100,10,l),
(103,30,o),
(105,64,o),
(107,109,cs)
);
}
);
};
layerId = m004;
shapes = (
{
closed = 1;
nodes = (
(484,-10,o),
(515,-5,o),
(542,-1,c),
(546,64,l),
(452,83,l),
(494,32,l),
(494,365,ls),
(494,470,o),
(435,520,o),
(339,520,cs),
(238,520,o),
(184,448,o),
(171,395,c),
(208,446,l),
(174,446,l),
(184,413,l),
(184,458,ls),
(184,499,o),
(170,520,o),
(129,520,cs),
(103,520,o),
(69,512,o),
(40,505,c),
(47,440,l),
(108,443,l),
(89,472,l),
(97,423,o),
(99,330,o),
(99,275,cs),
(99,198,o),
(97,77,o),
(89,10,c),
(94,0,l),
(189,0,l),
(194,10,l),
(187,70,o),
(184,179,o),
(184,251,cs),
(184,373,o),
(215,440,o),
(303,440,cs),
(385,440,o),
(409,393,o),
(409,275,cs),
(409,215,o),
(405,125,o),
(405,65,cs),
(405,13,o),
(429,-10,o),
(461,-10,cs)
);
}
);
width = 586;
}
);
unicode = 110;
}
{
color = (99,255,209,255);
glyphname = o;
layers = (
{
anchors = (
{
name = bottom;
pos = (257,0);
},
{
name = top;
pos = (256,510);
}
);
background = {
shapes = (
{
closed = 1;
nodes = (
(193,-10,o),
(157,1,o),
(125,22,cs),
(94,43,o),
(70,74,o),
(53,113,cs),
(37,153,o),
(29,200,o),
(29,255,cs),
(29,309,o),
(37,356,o),
(53,396,cs),
(70,435,o),
(94,466,o),
(125,487,cs),
(157,509,o),
(193,519,o),
(235,519,cs),
(278,519,o),
(314,509,o),
(345,487,cs),
(376,466,o),
(399,435,o),
(416,396,cs),
(433,356,o),
(441,309,o),
(441,255,cs),
(441,200,o),
(433,153,o),
(416,113,cs),
(399,74,o),
(376,43,o),
(345,22,cs),
(314,1,o),
(278,-10,o),
(235,-10,cs)
);
},
{
closed = 1;
nodes = (
(276,63,o),
(306,78,o),
(325,109,cs),
(344,140,o),
(353,189,o),
(353,255,cs),
(353,320,o),
(344,369,o),
(325,400,cs),
(306,431,o),
(276,446,o),
(235,446,cs),
(195,446,o),
(165,431,o),
(146,400,cs),
(127,369,o),
(117,320,o),
(117,255,cs),
(117,189,o),
(127,141,o),
(146,110,cs),
(165,78,o),
(195,63,o),
(235,63,cs)
);
}
);
};
guides = (
{
pos = (-28,461);
userData = {
UFO.identifier = 7lZhvwE96q;
};
}
);
layerId = master01;
shapes = (
{
closed = 1;
nodes = (
(392,-10,o),
(463,81,o),
(463,255,cs),
(463,429,o),
(392,520,o),
(256,520,cs),
(121,520,o),
(50,429,o),
(50,255,cs),
(50,81,o),
(121,-10,o),
(256,-10,cs)
);
},
{
closed = 1;
nodes = (
(177,65,o),
(140,127,o),
(140,255,cs),
(140,383,o),
(177,445,o),
(256,445,cs),
(336,445,o),
(373,383,o),
(373,255,cs),
(373,127,o),
(336,65,o),
(256,65,cs)
);
}
);
width = 513;
},
{
anchors = (
{
name = bottom;
pos = (242,0);
},
{
name = top;
pos = (241,510);
}
);
background = {
shapes = (
{
closed = 1;
nodes = (
(178,-10,o),
(142,1,o),
(110,22,cs),
(79,43,o),
(55,74,o),
(38,113,cs),
(22,153,o),
(14,200,o),
(14,255,cs),
(14,309,o),
(22,356,o),
(38,396,cs),
(55,435,o),
(79,466,o),
(110,487,cs),
(142,509,o),
(178,519,o),
(220,519,cs),
(263,519,o),
(299,509,o),
(330,487,cs),
(361,466,o),
(384,435,o),
(401,396,cs),
(418,356,o),
(426,309,o),
(426,255,cs),
(426,200,o),
(418,153,o),
(401,113,cs),
(384,74,o),
(361,43,o),
(330,22,cs),
(299,1,o),
(263,-10,o),
(220,-10,cs)
);
},
{
closed = 1;
nodes = (
(261,63,o),
(291,78,o),
(310,109,cs),
(329,140,o),
(338,189,o),
(338,255,cs),
(338,320,o),
(329,369,o),
(310,400,cs),
(291,431,o),
(261,446,o),
(220,446,cs),
(180,446,o),
(150,431,o),
(131,400,cs),
(112,369,o),
(102,320,o),
(102,255,cs),
(102,189,o),
(112,141,o),
(131,110,cs),
(150,78,o),
(180,63,o),
(220,63,cs)
);
}
);
};
guides = (
{
pos = (-43,461);
}
);
layerId = m002;
shapes = (
{
closed = 1;
nodes = (
(377,-10,o),
(448,81,o),
(448,255,cs),
(448,429,o),
(377,520,o),
(241,520,cs),
(106,520,o),
(35,429,o),
(35,255,cs),
(35,81,o),
(106,-10,o),
(241,-10,cs)
);
},
{
closed = 1;
nodes = (
(162,65,o),
(125,127,o),
(125,255,cs),
(125,383,o),
(162,445,o),
(241,445,cs),
(321,445,o),
(358,383,o),
(358,255,cs),
(358,127,o),
(321,65,o),
(241,65,cs)
);
}
);
width = 483;
},
{
anchors = (
{
name = bottom;
pos = (257,0);
},
{
name = top;
pos = (256,510);
}
);
background = {
shapes = (
{
closed = 1;
nodes = (
(193,-10,o),
(157,1,o),
(125,22,cs),
(94,43,o),
(70,74,o),
(53,113,cs),
(37,153,o),
(29,200,o),
(29,255,cs),
(29,309,o),
(37,356,o),
(53,396,cs),
(70,435,o),
(94,466,o),
(125,487,cs),
(157,509,o),
(193,519,o),
(235,519,cs),
(278,519,o),
(314,509,o),
(345,487,cs),
(376,466,o),
(399,435,o),
(416,396,cs),
(433,356,o),
(441,309,o),
(441,255,cs),
(441,200,o),
(433,153,o),
(416,113,cs),
(399,74,o),
(376,43,o),
(345,22,cs),
(314,1,o),
(278,-10,o),
(235,-10,cs)
);
},
{
closed = 1;
nodes = (
(276,63,o),
(306,78,o),
(325,109,cs),
(344,140,o),
(353,189,o),
(353,255,cs),
(353,320,o),
(344,369,o),
(325,400,cs),
(306,431,o),
(276,446,o),
(235,446,cs),
(195,446,o),
(165,431,o),
(146,400,cs),
(127,369,o),
(117,320,o),
(117,255,cs),
(117,189,o),
(127,141,o),
(146,110,cs),
(165,78,o),
(195,63,o),
(235,63,cs)
);
}
);
};
guides = (
{
pos = (-28,461);
}
);
layerId = m003;
shapes = (
{
closed = 1;
nodes = (
(392,-10,o),
(463,81,o),
(463,255,cs),
(463,429,o),
(392,520,o),
(256,520,cs),
(121,520,o),
(50,429,o),
(50,255,cs),
(50,81,o),
(121,-10,o),
(256,-10,cs)
);
},
{
closed = 1;
nodes = (
(177,65,o),
(140,127,o),
(140,255,cs),
(140,383,o),
(177,445,o),
(256,445,cs),
(336,445,o),
(373,383,o),
(373,255,cs),
(373,127,o),
(336,65,o),
(256,65,cs)
);
}
);
width = 513;
},
{
anchors = (
{
name = bottom;
pos = (242,0);
},
{
name = top;
pos = (241,510);
}
);
background = {
shapes = (
{
closed = 1;
nodes = (
(178,-10,o),
(142,1,o),
(110,22,cs),
(79,43,o),
(55,74,o),
(38,113,cs),
(22,153,o),
(14,200,o),
(14,255,cs),
(14,309,o),
(22,356,o),
(38,396,cs),
(55,435,o),
(79,466,o),
(110,487,cs),
(142,509,o),
(178,519,o),
(220,519,cs),
(263,519,o),
(299,509,o),
(330,487,cs),
(361,466,o),
(384,435,o),
(401,396,cs),
(418,356,o),
(426,309,o),
(426,255,cs),
(426,200,o),
(418,153,o),
(401,113,cs),
(384,74,o),
(361,43,o),
(330,22,cs),
(299,1,o),
(263,-10,o),
(220,-10,cs)
);
},
{
closed = 1;
nodes = (
(261,63,o),
(291,78,o),
(310,109,cs),
(329,140,o),
(338,189,o),
(338,255,cs),
(338,320,o),
(329,369,o),
(310,400,cs),
(291,431,o),
(261,446,o),
(220,446,cs),
(180,446,o),
(150,431,o),
(131,400,cs),
(112,369,o),
(102,320,o),
(102,255,cs),
(102,189,o),
(112,141,o),
(131,110,cs),
(150,78,o),
(180,63,o),
(220,63,cs)
);
}
);
};
guides = (
{
pos = (-43,461);
}
);
layerId = m004;
shapes = (
{
closed = 1;
nodes = (
(377,-10,o),
(448,81,o),
(448,255,cs),
(448,429,o),
(377,520,o),
(241,520,cs),
(106,520,o),
(35,429,o),
(35,255,cs),
(35,81,o),
(106,-10,o),
(241,-10,cs)
);
},
{
closed = 1;
nodes = (
(162,65,o),
(125,127,o),
(125,255,cs),
(125,383,o),
(162,445,o),
(241,445,cs),
(321,445,o),
(358,383,o),
(358,255,cs),
(358,127,o),
(321,65,o),
(241,65,cs)
);
}
);
width = 483;
}
);
unicode = 111;
}
{
color = (99,255,209,255);
glyphname = p;
layers = (
{
background = {
shapes = (
{
closed = 1;
nodes = (
(169,-126,o),
(167,-20,o),
(167,235,c),
(167,382,o),
(209,441,o),
(290,441,cs),
(353,441,o),
(387,391,o),
(387,266,cs),
(387,241,ls),
(387,118,o),
(349,71,o),
(284,71,cs),
(236,71,o),
(189,92,o),
(145,119,c),
(145,69,l),
(191,69,l),
(167,82,l),
(180,33,o),
(227,-9,o),
(300,-9,cs),
(397,-9,o),
(482,52,o),
(482,246,cs),
(482,271,ls),
(482,442,o),
(417,520,o),
(312,520,cs),
(218,520,o),
(164,452,o),
(156,390,c),
(193,439,l),
(135,439,l),
(168,418,l),
(168,454,ls),
(168,499,o),
(157,520,o),
(122,520,cs),
(101,520,o),
(57,516,o),
(34,511,c),
(30,446,l),
(123,427,l),
(82,474,l),
(82,189,ls),
(82,-63,o),
(77,-156,o),
(77,-207,c),
(77,-249,o),
(92,-269,o),
(133,-269,cs),
(169,-269,o),
(212,-258,o),
(250,-250,c),
(243,-185,l),
(153,-189,l),
(177,-212,l)
);
}
);
};
layerId = master01;
shapes = (
{
closed = 1;
nodes = (
(199,-220,l),
(204,-210,l),
(187,-5,o),
(187,30,o),
(187,244,cs),
(187,389,o),
(232,440,o),
(307,440,cs),
(374,440,o),
(407,392,o),
(407,277,cs),
(407,252,ls),
(407,133,o),
(368,70,o),
(297,70,cs),
(240,70,o),
(220,86,o),
(169,115,c),
(169,40,l),
(209,40,l),
(166,101,l),
(187,15,o),
(243,-10,o),
(317,-10,cs),
(427,-10,o),
(502,87,o),
(502,256,cs),
(502,281,ls),
(502,442,o),
(442,520,o),
(340,520,cs),
(248,520,o),
(184,472,o),
(166,393,c),
(210,452,l),
(159,452,l),
(188,347,l),
(188,448,ls),
(188,499,o),
(179,520,o),
(136,520,cs),
(106,520,o),
(66,512,o),
(33,504,c),
(40,439,l),
(108,442,l),
(89,472,l),
(98,312,o),
(100,333,o),
(102,164,cs),
(102,131,o),
(103,103,o),
(103,77,cs),
(103,-29,o),
(99,-90,o),
(92,-210,c),
(97,-220,l)
);
}
);
width = 552;
},
{
background = {
shapes = (
{
closed = 1;
nodes = (
(169,-126,o),
(167,-20,o),
(167,235,c),
(167,382,o),
(209,441,o),
(290,441,cs),
(353,441,o),
(387,391,o),
(387,266,cs),
(387,241,ls),
(387,118,o),
(349,71,o),
(284,71,cs),
(236,71,o),
(189,92,o),
(145,119,c),
(145,69,l),
(191,69,l),
(167,82,l),
(180,33,o),
(227,-9,o),
(300,-9,cs),
(397,-9,o),
(482,52,o),
(482,246,cs),
(482,271,ls),
(482,442,o),
(417,520,o),
(312,520,cs),
(218,520,o),
(164,452,o),
(156,390,c),
(193,439,l),
(135,439,l),
(168,418,l),
(168,454,ls),
(168,499,o),
(157,520,o),
(122,520,cs),
(101,520,o),
(57,516,o),
(34,511,c),
(30,446,l),
(123,427,l),
(82,474,l),
(82,189,ls),
(82,-63,o),
(77,-156,o),
(77,-207,c),
(77,-249,o),
(92,-269,o),
(133,-269,cs),
(169,-269,o),
(212,-258,o),
(250,-250,c),
(243,-185,l),
(153,-189,l),
(177,-212,l)
);
}
);
};
layerId = m002;
shapes = (
{
closed = 1;
nodes = (
(199,-220,l),
(204,-210,l),
(187,-5,o),
(187,30,o),
(187,244,cs),
(187,389,o),
(232,440,o),
(307,440,cs),
(374,440,o),
(407,392,o),
(407,277,cs),
(407,252,ls),
(407,133,o),
(368,70,o),
(297,70,cs),
(240,70,o),
(220,86,o),
(169,115,c),
(169,40,l),
(209,40,l),
(166,101,l),
(187,15,o),
(243,-10,o),
(317,-10,cs),
(427,-10,o),
(502,87,o),
(502,256,cs),
(502,281,ls),
(502,442,o),
(442,520,o),
(340,520,cs),
(248,520,o),
(184,472,o),
(166,393,c),
(210,452,l),
(159,452,l),
(188,347,l),
(188,448,ls),
(188,499,o),
(179,520,o),
(136,520,cs),
(106,520,o),
(66,512,o),
(33,504,c),
(40,439,l),
(108,442,l),
(89,472,l),
(98,312,o),
(100,333,o),
(102,164,cs),
(102,131,o),
(103,103,o),
(103,77,cs),
(103,-29,o),
(99,-90,o),
(92,-210,c),
(97,-220,l)
);
}
);
width = 552;
},
{
background = {
shapes = (
{
closed = 1;
nodes = (
(169,-126,o),
(167,-20,o),
(167,235,c),
(167,382,o),
(209,441,o),
(290,441,cs),
(353,441,o),
(387,391,o),
(387,266,cs),
(387,241,ls),
(387,118,o),
(349,71,o),
(284,71,cs),
(236,71,o),
(189,92,o),
(145,119,c),
(145,69,l),
(191,69,l),
(167,82,l),
(180,33,o),
(227,-9,o),
(300,-9,cs),
(397,-9,o),
(482,52,o),
(482,246,cs),
(482,271,ls),
(482,442,o),
(417,520,o),
(312,520,cs),
(218,520,o),
(164,452,o),
(156,390,c),
(193,439,l),
(135,439,l),
(168,418,l),
(168,454,ls),
(168,499,o),
(157,520,o),
(122,520,cs),
(101,520,o),
(57,516,o),
(34,511,c),
(30,446,l),
(123,427,l),
(82,474,l),
(82,189,ls),
(82,-63,o),
(77,-156,o),
(77,-207,c),
(77,-249,o),
(92,-269,o),
(133,-269,cs),
(169,-269,o),
(212,-258,o),
(250,-250,c),
(243,-185,l),
(153,-189,l),
(177,-212,l)
);
}
);
};
layerId = m003;
shapes = (
{
closed = 1;
nodes = (
(199,-220,l),
(204,-210,l),
(187,-5,o),
(187,30,o),
(187,244,cs),
(187,389,o),
(232,440,o),
(307,440,cs),
(374,440,o),
(407,392,o),
(407,277,cs),
(407,252,ls),
(407,133,o),
(368,70,o),
(297,70,cs),
(240,70,o),
(220,86,o),
(169,115,c),
(169,40,l),
(209,40,l),
(166,101,l),
(187,15,o),
(243,-10,o),
(317,-10,cs),
(427,-10,o),
(502,87,o),
(502,256,cs),
(502,281,ls),
(502,442,o),
(442,520,o),
(340,520,cs),
(248,520,o),
(184,472,o),
(166,393,c),
(210,452,l),
(159,452,l),
(188,347,l),
(188,448,ls),
(188,499,o),
(179,520,o),
(136,520,cs),
(106,520,o),
(66,512,o),
(33,504,c),
(40,439,l),
(108,442,l),
(89,472,l),
(98,312,o),
(100,333,o),
(102,164,cs),
(102,131,o),
(103,103,o),
(103,77,cs),
(103,-29,o),
(99,-90,o),
(92,-210,c),
(97,-220,l)
);
}
);
width = 552;
},
{
background = {
shapes = (
{
closed = 1;
nodes = (
(169,-126,o),
(167,-20,o),
(167,235,c),
(167,382,o),
(209,441,o),
(290,441,cs),
(353,441,o),
(387,391,o),
(387,266,cs),
(387,241,ls),
(387,118,o),
(349,71,o),
(284,71,cs),
(236,71,o),
(189,92,o),
(145,119,c),
(145,69,l),
(191,69,l),
(167,82,l),
(180,33,o),
(227,-9,o),
(300,-9,cs),
(397,-9,o),
(482,52,o),
(482,246,cs),
(482,271,ls),
(482,442,o),
(417,520,o),
(312,520,cs),
(218,520,o),
(164,452,o),
(156,390,c),
(193,439,l),
(135,439,l),
(168,418,l),
(168,454,ls),
(168,499,o),
(157,520,o),
(122,520,cs),
(101,520,o),
(57,516,o),
(34,511,c),
(30,446,l),
(123,427,l),
(82,474,l),
(82,189,ls),
(82,-63,o),
(77,-156,o),
(77,-207,c),
(77,-249,o),
(92,-269,o),
(133,-269,cs),
(169,-269,o),
(212,-258,o),
(250,-250,c),
(243,-185,l),
(153,-189,l),
(177,-212,l)
);
}
);
};
layerId = m004;
shapes = (
{
closed = 1;
nodes = (
(199,-220,l),
(204,-210,l),
(187,-5,o),
(187,30,o),
(187,244,cs),
(187,389,o),
(232,440,o),
(307,440,cs),
(374,440,o),
(407,392,o),
(407,277,cs),
(407,252,ls),
(407,133,o),
(368,70,o),
(297,70,cs),
(240,70,o),
(220,86,o),
(169,115,c),
(169,40,l),
(209,40,l),
(166,101,l),
(187,15,o),
(243,-10,o),
(317,-10,cs),
(427,-10,o),
(502,87,o),
(502,256,cs),
(502,281,ls),
(502,442,o),
(442,520,o),
(340,520,cs),
(248,520,o),
(184,472,o),
(166,393,c),
(210,452,l),
(159,452,l),
(188,347,l),
(188,448,ls),
(188,499,o),
(179,520,o),
(136,520,cs),
(106,520,o),
(66,512,o),
(33,504,c),
(40,439,l),
(108,442,l),
(89,472,l),
(98,312,o),
(100,333,o),
(102,164,cs),
(102,131,o),
(103,103,o),
(103,77,cs),
(103,-29,o),
(99,-90,o),
(92,-210,c),
(97,-220,l)
);
}
);
width = 552;
}
);
unicode = 112;
}
{
color = (99,255,209,255);
glyphname = q;
layers = (
{
background = {
shapes = (
{
closed = 1;
nodes = (
(438,-222,o),
(428,-150,o),
(428,121,cs),
(428,392,o),
(438,500,o),
(438,500,c),
(433,510,l),
(388,510,l),
(353,438,l),
(343,438,l),
(343,-189,ls),
(343,-252,o),
(357,-270,o),
(396,-270,cs),
(431,-270,o),
(465,-261,o),
(489,-255,c),
(482,-190,l),
(419,-193,l),
(438,-222,l)
);
},
{
closed = 1;
nodes = (
(122,397,o),
(162,435,o),
(223,435,c),
(280,435,o),
(325,410,o),
(364,388,c),
(376,436,l),
(348,436,l),
(312,491,o),
(274,520,o),
(200,520,c),
(89,520,o),
(27,416,o),
(27,252,cs),
(27,227,ls),
(27,60,o),
(80,-10,o),
(192,-10,c),
(265,-10,o),
(309,25,o),
(338,71,c),
(366,71,l),
(343,255,l),
(343,114,o),
(290,70,o),
(225,70,cs),
(161,70,o),
(122,100,o),
(122,229,cs),
(122,252,ls)
);
}
);
};
layerId = master01;
shapes = (
{
closed = 1;
nodes = (
(449,-230,o),
(481,-223,o),
(506,-217,c),
(508,-152,l),
(414,-143,l),
(458,-176,l),
(452,-66,o),
(451,28,o),
(451,165,cs),
(451,253,o),
(451,412,o),
(461,500,c),
(456,510,l),
(371,510,l),
(366,500,l),
(366,253,ls),
(366,141,o),
(326,70,o),
(251,70,cs),
(173,70,o),
(145,121,o),
(145,247,cs),
(145,272,ls),
(145,387,o),
(176,435,o),
(250,435,cs),
(296,435,o),
(344,413,o),
(388,388,c),
(388,458,l),
(334,458,l),
(384,438,l),
(370,480,o),
(303,520,o),
(233,520,cs),
(124,520,o),
(50,445,o),
(50,269,cs),
(50,244,ls),
(50,67,o),
(107,-10,o),
(230,-10,cs),
(321,-10,o),
(373,58,o),
(387,122,c),
(326,58,l),
(403,58,l),
(366,129,l),
(366,-15,ls),
(366,-57,o),
(360,-120,o),
(360,-156,cs),
(360,-208,o),
(379,-230,o),
(420,-230,cs)
);
}
);
width = 538;
},
{
background = {
shapes = (
{
closed = 1;
nodes = (
(438,-222,o),
(428,-150,o),
(428,121,cs),
(428,392,o),
(438,500,o),
(438,500,c),
(433,510,l),
(388,510,l),
(353,438,l),
(343,438,l),
(343,-189,ls),
(343,-252,o),
(357,-270,o),
(396,-270,cs),
(431,-270,o),
(465,-261,o),
(489,-255,c),
(482,-190,l),
(419,-193,l),
(438,-222,l)
);
},
{
closed = 1;
nodes = (
(122,397,o),
(162,435,o),
(223,435,c),
(280,435,o),
(325,410,o),
(364,388,c),
(376,436,l),
(348,436,l),
(312,491,o),
(274,520,o),
(200,520,c),
(89,520,o),
(27,416,o),
(27,252,cs),
(27,227,ls),
(27,60,o),
(80,-10,o),
(192,-10,c),
(265,-10,o),
(309,25,o),
(338,71,c),
(366,71,l),
(343,255,l),
(343,114,o),
(290,70,o),
(225,70,cs),
(161,70,o),
(122,100,o),
(122,229,cs),
(122,252,ls)
);
}
);
};
layerId = m002;
shapes = (
{
closed = 1;
nodes = (
(449,-230,o),
(481,-223,o),
(506,-217,c),
(508,-152,l),
(414,-143,l),
(458,-176,l),
(452,-66,o),
(451,28,o),
(451,165,cs),
(451,253,o),
(451,412,o),
(461,500,c),
(456,510,l),
(371,510,l),
(366,500,l),
(366,253,ls),
(366,141,o),
(326,70,o),
(251,70,cs),
(173,70,o),
(145,121,o),
(145,247,cs),
(145,272,ls),
(145,387,o),
(176,435,o),
(250,435,cs),
(296,435,o),
(344,413,o),
(388,388,c),
(388,458,l),
(334,458,l),
(384,438,l),
(370,480,o),
(303,520,o),
(233,520,cs),
(124,520,o),
(50,445,o),
(50,269,cs),
(50,244,ls),
(50,67,o),
(107,-10,o),
(230,-10,cs),
(321,-10,o),
(373,58,o),
(387,122,c),
(326,58,l),
(403,58,l),
(366,129,l),
(366,-15,ls),
(366,-57,o),
(360,-120,o),
(360,-156,cs),
(360,-208,o),
(379,-230,o),
(420,-230,cs)
);
}
);
width = 538;
},
{
background = {
shapes = (
{
closed = 1;
nodes = (
(438,-222,o),
(428,-150,o),
(428,121,cs),
(428,392,o),
(438,500,o),
(438,500,c),
(433,510,l),
(388,510,l),
(353,438,l),
(343,438,l),
(343,-189,ls),
(343,-252,o),
(357,-270,o),
(396,-270,cs),
(431,-270,o),
(465,-261,o),
(489,-255,c),
(482,-190,l),
(419,-193,l),
(438,-222,l)
);
},
{
closed = 1;
nodes = (
(122,397,o),
(162,435,o),
(223,435,c),
(280,435,o),
(325,410,o),
(364,388,c),
(376,436,l),
(348,436,l),
(312,491,o),
(274,520,o),
(200,520,c),
(89,520,o),
(27,416,o),
(27,252,cs),
(27,227,ls),
(27,60,o),
(80,-10,o),
(192,-10,c),
(265,-10,o),
(309,25,o),
(338,71,c),
(366,71,l),
(343,255,l),
(343,114,o),
(290,70,o),
(225,70,cs),
(161,70,o),
(122,100,o),
(122,229,cs),
(122,252,ls)
);
}
);
};
layerId = m003;
shapes = (
{
closed = 1;
nodes = (
(449,-230,o),
(481,-223,o),
(506,-217,c),
(508,-152,l),
(414,-143,l),
(458,-176,l),
(452,-66,o),
(451,28,o),
(451,165,cs),
(451,253,o),
(451,412,o),
(461,500,c),
(456,510,l),
(371,510,l),
(366,500,l),
(366,253,ls),
(366,141,o),
(326,70,o),
(251,70,cs),
(173,70,o),
(145,121,o),
(145,247,cs),
(145,272,ls),
(145,387,o),
(176,435,o),
(250,435,cs),
(296,435,o),
(344,413,o),
(388,388,c),
(388,458,l),
(334,458,l),
(384,438,l),
(370,480,o),
(303,520,o),
(233,520,cs),
(124,520,o),
(50,445,o),
(50,269,cs),
(50,244,ls),
(50,67,o),
(107,-10,o),
(230,-10,cs),
(321,-10,o),
(373,58,o),
(387,122,c),
(326,58,l),
(403,58,l),
(366,129,l),
(366,-15,ls),
(366,-57,o),
(360,-120,o),
(360,-156,cs),
(360,-208,o),
(379,-230,o),
(420,-230,cs)
);
}
);
width = 538;
},
{
background = {
shapes = (
{
closed = 1;
nodes = (
(438,-222,o),
(428,-150,o),
(428,121,cs),
(428,392,o),
(438,500,o),
(438,500,c),
(433,510,l),
(388,510,l),
(353,438,l),
(343,438,l),
(343,-189,ls),
(343,-252,o),
(357,-270,o),
(396,-270,cs),
(431,-270,o),
(465,-261,o),
(489,-255,c),
(482,-190,l),
(419,-193,l),
(438,-222,l)
);
},
{
closed = 1;
nodes = (
(122,397,o),
(162,435,o),
(223,435,c),
(280,435,o),
(325,410,o),
(364,388,c),
(376,436,l),
(348,436,l),
(312,491,o),
(274,520,o),
(200,520,c),
(89,520,o),
(27,416,o),
(27,252,cs),
(27,227,ls),
(27,60,o),
(80,-10,o),
(192,-10,c),
(265,-10,o),
(309,25,o),
(338,71,c),
(366,71,l),
(343,255,l),
(343,114,o),
(290,70,o),
(225,70,cs),
(161,70,o),
(122,100,o),
(122,229,cs),
(122,252,ls)
);
}
);
};
layerId = m004;
shapes = (
{
closed = 1;
nodes = (
(449,-230,o),
(481,-223,o),
(506,-217,c),
(508,-152,l),
(414,-143,l),
(458,-176,l),
(452,-66,o),
(451,28,o),
(451,165,cs),
(451,253,o),
(451,412,o),
(461,500,c),
(456,510,l),
(371,510,l),
(366,500,l),
(366,253,ls),
(366,141,o),
(326,70,o),
(251,70,cs),
(173,70,o),
(145,121,o),
(145,247,cs),
(145,272,ls),
(145,387,o),
(176,435,o),
(250,435,cs),
(296,435,o),
(344,413,o),
(388,388,c),
(388,458,l),
(334,458,l),
(384,438,l),
(370,480,o),
(303,520,o),
(233,520,cs),
(124,520,o),
(50,445,o),
(50,269,cs),
(50,244,ls),
(50,67,o),
(107,-10,o),
(230,-10,cs),
(321,-10,o),
(373,58,o),
(387,122,c),
(326,58,l),
(403,58,l),
(366,129,l),
(366,-15,ls),
(366,-57,o),
(360,-120,o),
(360,-156,cs),
(360,-208,o),
(379,-230,o),
(420,-230,cs)
);
}
);
width = 538;
}
);
metricLeft = "=o";
unicode = 113;
}
{
color = (99,255,209,255);
glyphname = r;
layers = (
{
anchors = (
{
name = bottom;
pos = (171,3);
},
{
name = top;
pos = (202,510);
}
);
background = {
shapes = (
{
closed = 1;
nodes = (
(179,374,o),
(210,440,o),
(298,440,c),
(380,440,o),
(404,394,o),
(404,275,c),
(404,196,o),
(400,120,o),
(400,65,cs),
(400,13,o),
(424,-10,o),
(456,-10,c),
(479,-10,o),
(510,-5,o),
(537,-1,c),
(541,64,l),
(447,83,l),
(489,32,l),
(489,365,ls),
(489,471,o),
(430,520,o),
(334,520,c),
(232,520,o),
(179,448,o),
(166,395,c),
(203,439,l),
(169,439,l),
(179,413,l),
(179,458,ls),
(179,499,o),
(165,520,o),
(124,520,c),
(98,520,o),
(64,512,o),
(35,505,c),
(42,440,l),
(103,443,l),
(84,472,l),
(84,472,o),
(94,415,o),
(94,275,cs),
(94,84,o),
(84,10,o),
(84,10,c),
(89,0,l),
(184,0,l),
(189,10,l),
(189,10,o),
(179,82,o),
(179,251,cs)
);
}
);
};
layerId = master01;
shapes = (
{
closed = 1;
nodes = (
(189,0,l),
(194,10,l),
(187,74,o),
(184,213,o),
(184,286,cs),
(184,326,o),
(184,349,o),
(184,393,cs),
(184,425,o),
(184,449,o),
(184,458,c),
(184,497,o),
(171,520,o),
(133,520,cs),
(105,520,o),
(72,513,o),
(40,505,c),
(47,440,l),
(108,443,l),
(89,472,l),
(96,423,o),
(99,334,o),
(99,275,cs),
(99,202,o),
(97,79,o),
(89,10,c),
(94,0,l)
);
},
{
closed = 1;
nodes = (
(180,380,o),
(229,433,o),
(305,433,cs),
(321,433,o),
(339,431,o),
(357,426,c),
(366,432,l),
(376,500,l),
(370,509,l),
(351,517,o),
(334,520,o),
(317,520,cs),
(252,520,o),
(202,466,o),
(177,367,c),
(234,429,l),
(179,429,l),
(179,280,l),
(184,278,l)
);
}
);
width = 416;
},
{
anchors = (
{
name = bottom;
pos = (171,3);
},
{
name = top;
pos = (202,510);
}
);
background = {
shapes = (
{
closed = 1;
nodes = (
(179,374,o),
(210,440,o),
(298,440,c),
(380,440,o),
(404,394,o),
(404,275,c),
(404,196,o),
(400,120,o),
(400,65,cs),
(400,13,o),
(424,-10,o),
(456,-10,c),
(479,-10,o),
(510,-5,o),
(537,-1,c),
(541,64,l),
(447,83,l),
(489,32,l),
(489,365,ls),
(489,471,o),
(430,520,o),
(334,520,c),
(232,520,o),
(179,448,o),
(166,395,c),
(203,439,l),
(169,439,l),
(179,413,l),
(179,458,ls),
(179,499,o),
(165,520,o),
(124,520,c),
(98,520,o),
(64,512,o),
(35,505,c),
(42,440,l),
(103,443,l),
(84,472,l),
(84,472,o),
(94,415,o),
(94,275,cs),
(94,84,o),
(84,10,o),
(84,10,c),
(89,0,l),
(184,0,l),
(189,10,l),
(189,10,o),
(179,82,o),
(179,251,cs)
);
}
);
};
layerId = m002;
shapes = (
{
closed = 1;
nodes = (
(189,0,l),
(194,10,l),
(187,74,o),
(184,213,o),
(184,286,cs),
(184,326,o),
(184,349,o),
(184,393,cs),
(184,425,o),
(184,449,o),
(184,458,c),
(184,497,o),
(171,520,o),
(133,520,cs),
(105,520,o),
(72,513,o),
(40,505,c),
(47,440,l),
(108,443,l),
(89,472,l),
(96,423,o),
(99,334,o),
(99,275,cs),
(99,202,o),
(97,79,o),
(89,10,c),
(94,0,l)
);
},
{
closed = 1;
nodes = (
(180,380,o),
(229,433,o),
(305,433,cs),
(321,433,o),
(339,431,o),
(357,426,c),
(366,432,l),
(376,500,l),
(370,509,l),
(351,517,o),
(334,520,o),
(317,520,cs),
(252,520,o),
(202,466,o),
(177,367,c),
(234,429,l),
(179,429,l),
(179,280,l),
(184,278,l)
);
}
);
width = 416;
},
{
anchors = (
{
name = bottom;
pos = (171,3);
},
{
name = top;
pos = (202,510);
}
);
background = {
shapes = (
{
closed = 1;
nodes = (
(179,374,o),
(210,440,o),
(298,440,c),
(380,440,o),
(404,394,o),
(404,275,c),
(404,196,o),
(400,120,o),
(400,65,cs),
(400,13,o),
(424,-10,o),
(456,-10,c),
(479,-10,o),
(510,-5,o),
(537,-1,c),
(541,64,l),
(447,83,l),
(489,32,l),
(489,365,ls),
(489,471,o),
(430,520,o),
(334,520,c),
(232,520,o),
(179,448,o),
(166,395,c),
(203,439,l),
(169,439,l),
(179,413,l),
(179,458,ls),
(179,499,o),
(165,520,o),
(124,520,c),
(98,520,o),
(64,512,o),
(35,505,c),
(42,440,l),
(103,443,l),
(84,472,l),
(84,472,o),
(94,415,o),
(94,275,cs),
(94,84,o),
(84,10,o),
(84,10,c),
(89,0,l),
(184,0,l),
(189,10,l),
(189,10,o),
(179,82,o),
(179,251,cs)
);
}
);
};
layerId = m003;
shapes = (
{
closed = 1;
nodes = (
(189,0,l),
(194,10,l),
(187,74,o),
(184,213,o),
(184,286,cs),
(184,326,o),
(184,349,o),
(184,393,cs),
(184,425,o),
(184,449,o),
(184,458,c),
(184,497,o),
(171,520,o),
(133,520,cs),
(105,520,o),
(72,513,o),
(40,505,c),
(47,440,l),
(108,443,l),
(89,472,l),
(96,423,o),
(99,334,o),
(99,275,cs),
(99,202,o),
(97,79,o),
(89,10,c),
(94,0,l)
);
},
{
closed = 1;
nodes = (
(180,380,o),
(229,433,o),
(305,433,cs),
(321,433,o),
(339,431,o),
(357,426,c),
(366,432,l),
(376,500,l),
(370,509,l),
(351,517,o),
(334,520,o),
(317,520,cs),
(252,520,o),
(202,466,o),
(177,367,c),
(234,429,l),
(179,429,l),
(179,280,l),
(184,278,l)
);
}
);
width = 416;
},
{
anchors = (
{
name = bottom;
pos = (171,3);
},
{
name = top;
pos = (202,510);
}
);
background = {
shapes = (
{
closed = 1;
nodes = (
(179,374,o),
(210,440,o),
(298,440,c),
(380,440,o),
(404,394,o),
(404,275,c),
(404,196,o),
(400,120,o),
(400,65,cs),
(400,13,o),
(424,-10,o),
(456,-10,c),
(479,-10,o),
(510,-5,o),
(537,-1,c),
(541,64,l),
(447,83,l),
(489,32,l),
(489,365,ls),
(489,471,o),
(430,520,o),
(334,520,c),
(232,520,o),
(179,448,o),
(166,395,c),
(203,439,l),
(169,439,l),
(179,413,l),
(179,458,ls),
(179,499,o),
(165,520,o),
(124,520,c),
(98,520,o),
(64,512,o),
(35,505,c),
(42,440,l),
(103,443,l),
(84,472,l),
(84,472,o),
(94,415,o),
(94,275,cs),
(94,84,o),
(84,10,o),
(84,10,c),
(89,0,l),
(184,0,l),
(189,10,l),
(189,10,o),
(179,82,o),
(179,251,cs)
);
}
);
};
layerId = m004;
shapes = (
{
closed = 1;
nodes = (
(189,0,l),
(194,10,l),
(187,74,o),
(184,213,o),
(184,286,cs),
(184,326,o),
(184,349,o),
(184,393,cs),
(184,425,o),
(184,449,o),
(184,458,c),
(184,497,o),
(171,520,o),
(133,520,cs),
(105,520,o),
(72,513,o),
(40,505,c),
(47,440,l),
(108,443,l),
(89,472,l),
(96,423,o),
(99,334,o),
(99,275,cs),
(99,202,o),
(97,79,o),
(89,10,c),
(94,0,l)
);
},
{
closed = 1;
nodes = (
(180,380,o),
(229,433,o),
(305,433,cs),
(321,433,o),
(339,431,o),
(357,426,c),
(366,432,l),
(376,500,l),
(370,509,l),
(351,517,o),
(334,520,o),
(317,520,cs),
(252,520,o),
(202,466,o),
(177,367,c),
(234,429,l),
(179,429,l),
(179,280,l),
(184,278,l)
);
}
);
width = 416;
}
);
unicode = 114;
}
{
color = (38,219,207,255);
glyphname = s;
layers = (
{
anchors = (
{
name = bottom;
pos = (220,0);
},
{
name = top;
pos = (251,510);
}
);
layerId = master01;
shapes = (
{
closed = 1;
nodes = (
(346,-10,o),
(425,51,o),
(425,137,cs),
(425,337,o),
(164,285,o),
(164,379,cs),
(164,420,o),
(194,446,o),
(254,446,cs),
(294,446,o),
(337,429,o),
(370,403,c),
(377,405,l),
(412,470,l),
(410,477,l),
(364,506,o),
(302,520,o),
(248,520,cs),
(146,520,o),
(74,460,o),
(74,374,cs),
(74,190,o),
(335,242,o),
(335,129,cs),
(335,90,o),
(302,65,o),
(235,65,cs),
(180,65,o),
(122,83,o),
(76,111,c),
(68,108,l),
(39,43,l),
(40,36,l),
(96,8,o),
(168,-10,o),
(233,-10,cs)
);
}
);
width = 470;
},
{
anchors = (
{
name = bottom;
pos = (220,0);
},
{
name = top;
pos = (251,510);
}
);
layerId = m002;
shapes = (
{
closed = 1;
nodes = (
(346,-10,o),
(425,51,o),
(425,137,cs),
(425,337,o),
(164,285,o),
(164,379,cs),
(164,420,o),
(194,446,o),
(254,446,cs),
(294,446,o),
(337,429,o),
(370,403,c),
(377,405,l),
(412,470,l),
(410,477,l),
(364,506,o),
(302,520,o),
(248,520,cs),
(146,520,o),
(74,460,o),
(74,374,cs),
(74,190,o),
(335,242,o),
(335,129,cs),
(335,90,o),
(302,65,o),
(235,65,cs),
(180,65,o),
(122,83,o),
(76,111,c),
(68,108,l),
(39,43,l),
(40,36,l),
(96,8,o),
(168,-10,o),
(233,-10,cs)
);
}
);
width = 470;
},
{
anchors = (
{
name = bottom;
pos = (220,0);
},
{
name = top;
pos = (251,510);
}
);
layerId = m003;
shapes = (
{
closed = 1;
nodes = (
(346,-10,o),
(425,51,o),
(425,137,cs),
(425,337,o),
(164,285,o),
(164,379,cs),
(164,420,o),
(194,446,o),
(254,446,cs),
(294,446,o),
(337,429,o),
(370,403,c),
(377,405,l),
(412,470,l),
(410,477,l),
(364,506,o),
(302,520,o),
(248,520,cs),
(146,520,o),
(74,460,o),
(74,374,cs),
(74,190,o),
(335,242,o),
(335,129,cs),
(335,90,o),
(302,65,o),
(235,65,cs),
(180,65,o),
(122,83,o),
(76,111,c),
(68,108,l),
(39,43,l),
(40,36,l),
(96,8,o),
(168,-10,o),
(233,-10,cs)
);
}
);
width = 470;
},
{
anchors = (
{
name = bottom;
pos = (220,0);
},
{
name = top;
pos = (251,510);
}
);
layerId = m004;
shapes = (
{
closed = 1;
nodes = (
(346,-10,o),
(425,51,o),
(425,137,cs),
(425,337,o),
(164,285,o),
(164,379,cs),
(164,420,o),
(194,446,o),
(254,446,cs),
(294,446,o),
(337,429,o),
(370,403,c),
(377,405,l),
(412,470,l),
(410,477,l),
(364,506,o),
(302,520,o),
(248,520,cs),
(146,520,o),
(74,460,o),
(74,374,cs),
(74,190,o),
(335,242,o),
(335,129,cs),
(335,90,o),
(302,65,o),
(235,65,cs),
(180,65,o),
(122,83,o),
(76,111,c),
(68,108,l),
(39,43,l),
(40,36,l),
(96,8,o),
(168,-10,o),
(233,-10,cs)
);
}
);
width = 470;
}
);
unicode = 115;
}
{
color = (38,219,207,255);
glyphname = u;
layers = (
{
anchors = (
{
name = bottom;
pos = (283,0);
},
{
name = ogonek;
pos = (482,9);
},
{
name = top;
pos = (273,510);
},
{
name = topright;
pos = (550,510);
}
);
layerId = master01;
shapes = (
{
closed = 1;
nodes = (
(345,-10,o),
(380,55,o),
(400,130,c),
(363,60,l),
(401,60,l),
(388,101,l),
(388,57,ls),
(388,13,o),
(403,-10,o),
(448,-10,cs),
(469,-10,o),
(497,-5,o),
(521,1,c),
(525,65,l),
(443,76,l),
(480,39,l),
(479,46,o),
(472,166,o),
(472,235,cs),
(472,312,o),
(474,433,o),
(482,500,c),
(477,510,l),
(382,510,l),
(377,500,l),
(384,440,o),
(387,331,o),
(387,259,cs),
(387,137,o),
(359,70,o),
(278,70,cs),
(200,70,o),
(177,117,o),
(177,235,cs),
(177,295,o),
(181,385,o),
(181,445,cs),
(181,497,o),
(157,520,o),
(125,520,cs),
(102,520,o),
(71,515,o),
(44,511,c),
(40,446,l),
(134,427,l),
(92,478,l),
(92,145,ls),
(92,40,o),
(149,-10,o),
(242,-10,cs)
);
}
);
width = 565;
},
{
anchors = (
{
name = bottom;
pos = (283,0);
},
{
name = ogonek;
pos = (482,9);
},
{
name = top;
pos = (273,510);
},
{
name = topright;
pos = (550,510);
}
);
layerId = m002;
shapes = (
{
closed = 1;
nodes = (
(345,-10,o),
(380,55,o),
(400,130,c),
(363,60,l),
(401,60,l),
(388,101,l),
(388,57,ls),
(388,13,o),
(403,-10,o),
(448,-10,cs),
(469,-10,o),
(497,-5,o),
(521,1,c),
(525,65,l),
(443,76,l),
(480,39,l),
(479,46,o),
(472,166,o),
(472,235,cs),
(472,312,o),
(474,433,o),
(482,500,c),
(477,510,l),
(382,510,l),
(377,500,l),
(384,440,o),
(387,331,o),
(387,259,cs),
(387,137,o),
(359,70,o),
(278,70,cs),
(200,70,o),
(177,117,o),
(177,235,cs),
(177,295,o),
(181,385,o),
(181,445,cs),
(181,497,o),
(157,520,o),
(125,520,cs),
(102,520,o),
(71,515,o),
(44,511,c),
(40,446,l),
(134,427,l),
(92,478,l),
(92,145,ls),
(92,40,o),
(149,-10,o),
(242,-10,cs)
);
}
);
width = 565;
},
{
anchors = (
{
name = bottom;
pos = (283,0);
},
{
name = ogonek;
pos = (482,9);
},
{
name = top;
pos = (273,510);
},
{
name = topright;
pos = (550,510);
}
);
layerId = m003;
shapes = (
{
closed = 1;
nodes = (
(345,-10,o),
(380,55,o),
(400,130,c),
(363,60,l),
(401,60,l),
(388,101,l),
(388,57,ls),
(388,13,o),
(403,-10,o),
(448,-10,cs),
(469,-10,o),
(497,-5,o),
(521,1,c),
(525,65,l),
(443,76,l),
(480,39,l),
(479,46,o),
(472,166,o),
(472,235,cs),
(472,312,o),
(474,433,o),
(482,500,c),
(477,510,l),
(382,510,l),
(377,500,l),
(384,440,o),
(387,331,o),
(387,259,cs),
(387,137,o),
(359,70,o),
(278,70,cs),
(200,70,o),
(177,117,o),
(177,235,cs),
(177,295,o),
(181,385,o),
(181,445,cs),
(181,497,o),
(157,520,o),
(125,520,cs),
(102,520,o),
(71,515,o),
(44,511,c),
(40,446,l),
(134,427,l),
(92,478,l),
(92,145,ls),
(92,40,o),
(149,-10,o),
(242,-10,cs)
);
}
);
width = 565;
},
{
anchors = (
{
name = bottom;
pos = (283,0);
},
{
name = ogonek;
pos = (482,9);
},
{
name = top;
pos = (273,510);
},
{
name = topright;
pos = (550,510);
}
);
layerId = m004;
shapes = (
{
closed = 1;
nodes = (
(345,-10,o),
(380,55,o),
(400,130,c),
(363,60,l),
(401,60,l),
(388,101,l),
(388,57,ls),
(388,13,o),
(403,-10,o),
(448,-10,cs),
(469,-10,o),
(497,-5,o),
(521,1,c),
(525,65,l),
(443,76,l),
(480,39,l),
(479,46,o),
(472,166,o),
(472,235,cs),
(472,312,o),
(474,433,o),
(482,500,c),
(477,510,l),
(382,510,l),
(377,500,l),
(384,440,o),
(387,331,o),
(387,259,cs),
(387,137,o),
(359,70,o),
(278,70,cs),
(200,70,o),
(177,117,o),
(177,235,cs),
(177,295,o),
(181,385,o),
(181,445,cs),
(181,497,o),
(157,520,o),
(125,520,cs),
(102,520,o),
(71,515,o),
(44,511,c),
(40,446,l),
(134,427,l),
(92,478,l),
(92,145,ls),
(92,40,o),
(149,-10,o),
(242,-10,cs)
);
}
);
width = 565;
}
);
unicode = 117;
}
{
glyphname = x;
layers = (
{
layerId = master01;
shapes = (
{
closed = 1;
nodes = (
(455,0,l),
(460,11,l),
(333,168,o),
(194,384,o),
(140,500,c),
(130,510,l),
(23,510,l),
(18,500,l),
(119,373,o),
(261,144,o),
(338,10,c),
(348,0,l)
);
},
{
closed = 1;
nodes = (
(110,0,l),
(120,10,l),
(170,105,o),
(195,144,o),
(262,244,c),
(203,294,l),
(120,157,o),
(87,108,o),
(10,11,c),
(15,0,l)
);
},
{
closed = 1;
nodes = (
(311,315,o),
(370,404,o),
(440,500,c),
(435,510,l),
(338,510,l),
(330,500,l),
(282,392,o),
(235,321,o),
(176,240,c),
(258,221,l)
);
}
);
width = 470;
},
{
layerId = m002;
shapes = (
{
closed = 1;
nodes = (
(455,0,l),
(460,11,l),
(333,168,o),
(194,384,o),
(140,500,c),
(130,510,l),
(23,510,l),
(18,500,l),
(119,373,o),
(261,144,o),
(338,10,c),
(348,0,l)
);
},
{
closed = 1;
nodes = (
(110,0,l),
(120,10,l),
(170,105,o),
(195,144,o),
(262,244,c),
(203,294,l),
(120,157,o),
(87,108,o),
(10,11,c),
(15,0,l)
);
},
{
closed = 1;
nodes = (
(311,315,o),
(370,404,o),
(440,500,c),
(435,510,l),
(338,510,l),
(330,500,l),
(282,392,o),
(235,321,o),
(176,240,c),
(258,221,l)
);
}
);
width = 470;
},
{
layerId = m003;
shapes = (
{
closed = 1;
nodes = (
(455,0,l),
(460,11,l),
(333,168,o),
(194,384,o),
(140,500,c),
(130,510,l),
(23,510,l),
(18,500,l),
(119,373,o),
(261,144,o),
(338,10,c),
(348,0,l)
);
},
{
closed = 1;
nodes = (
(110,0,l),
(120,10,l),
(170,105,o),
(195,144,o),
(262,244,c),
(203,294,l),
(120,157,o),
(87,108,o),
(10,11,c),
(15,0,l)
);
},
{
closed = 1;
nodes = (
(311,315,o),
(370,404,o),
(440,500,c),
(435,510,l),
(338,510,l),
(330,500,l),
(282,392,o),
(235,321,o),
(176,240,c),
(258,221,l)
);
}
);
width = 470;
},
{
layerId = m004;
shapes = (
{
closed = 1;
nodes = (
(455,0,l),
(460,11,l),
(333,168,o),
(194,384,o),
(140,500,c),
(130,510,l),
(23,510,l),
(18,500,l),
(119,373,o),
(261,144,o),
(338,10,c),
(348,0,l)
);
},
{
closed = 1;
nodes = (
(110,0,l),
(120,10,l),
(170,105,o),
(195,144,o),
(262,244,c),
(203,294,l),
(120,157,o),
(87,108,o),
(10,11,c),
(15,0,l)
);
},
{
closed = 1;
nodes = (
(311,315,o),
(370,404,o),
(440,500,c),
(435,510,l),
(338,510,l),
(330,500,l),
(282,392,o),
(235,321,o),
(176,240,c),
(258,221,l)
);
}
);
width = 470;
}
);
unicode = 120;
}
{
glyphname = y;
layers = (
{
anchors = (
{
name = bottom;
pos = (226,0);
},
{
name = top;
pos = (226,510);
}
);
layerId = master01;
shapes = (
{
closed = 1;
nodes = (
(190,-228,o),
(248,-186,o),
(307,9,cs),
(358,176,o),
(387,319,o),
(446,500,c),
(441,510,l),
(436,510,o),
(361,510,o),
(356,510,c),
(349,502,l),
(315,335,o),
(284,198,o),
(229,34,c),
(257,34,l),
(189,202,o),
(142,392,o),
(114,500,c),
(108,510,l),
(106,510,o),
(17,510,o),
(11,510,c),
(7,500,l),
(56,377,o),
(118,173,o),
(166,10,c),
(174,0,l),
(267,0,l),
(244,58,l),
(214,-56,o),
(174,-143,o),
(123,-149,cs),
(114,-150,o),
(105,-151,o),
(98,-151,cs),
(72,-151,o),
(57,-145,o),
(45,-138,c),
(40,-141,l),
(24,-204,l),
(26,-208,l),
(40,-212,o),
(68,-228,o),
(110,-228,cs)
);
}
);
width = 451;
},
{
anchors = (
{
name = bottom;
pos = (226,0);
},
{
name = top;
pos = (226,510);
}
);
layerId = m002;
shapes = (
{
closed = 1;
nodes = (
(190,-228,o),
(248,-186,o),
(307,9,cs),
(358,176,o),
(387,319,o),
(446,500,c),
(441,510,l),
(436,510,o),
(361,510,o),
(356,510,c),
(349,502,l),
(315,335,o),
(284,198,o),
(229,34,c),
(257,34,l),
(189,202,o),
(142,392,o),
(114,500,c),
(108,510,l),
(106,510,o),
(17,510,o),
(11,510,c),
(7,500,l),
(56,377,o),
(118,173,o),
(166,10,c),
(174,0,l),
(267,0,l),
(244,58,l),
(214,-56,o),
(174,-143,o),
(123,-149,cs),
(114,-150,o),
(105,-151,o),
(98,-151,cs),
(72,-151,o),
(57,-145,o),
(45,-138,c),
(40,-141,l),
(24,-204,l),
(26,-208,l),
(40,-212,o),
(68,-228,o),
(110,-228,cs)
);
}
);
width = 451;
},
{
anchors = (
{
name = bottom;
pos = (226,0);
},
{
name = top;
pos = (226,510);
}
);
layerId = m003;
shapes = (
{
closed = 1;
nodes = (
(190,-228,o),
(248,-186,o),
(307,9,cs),
(358,176,o),
(387,319,o),
(446,500,c),
(441,510,l),
(436,510,o),
(361,510,o),
(356,510,c),
(349,502,l),
(315,335,o),
(284,198,o),
(229,34,c),
(257,34,l),
(189,202,o),
(142,392,o),
(114,500,c),
(108,510,l),
(106,510,o),
(17,510,o),
(11,510,c),
(7,500,l),
(56,377,o),
(118,173,o),
(166,10,c),
(174,0,l),
(267,0,l),
(244,58,l),
(214,-56,o),
(174,-143,o),
(123,-149,cs),
(114,-150,o),
(105,-151,o),
(98,-151,cs),
(72,-151,o),
(57,-145,o),
(45,-138,c),
(40,-141,l),
(24,-204,l),
(26,-208,l),
(40,-212,o),
(68,-228,o),
(110,-228,cs)
);
}
);
width = 451;
},
{
anchors = (
{
name = bottom;
pos = (226,0);
},
{
name = top;
pos = (226,510);
}
);
layerId = m004;
shapes = (
{
closed = 1;
nodes = (
(190,-228,o),
(248,-186,o),
(307,9,cs),
(358,176,o),
(387,319,o),
(446,500,c),
(441,510,l),
(436,510,o),
(361,510,o),
(356,510,c),
(349,502,l),
(315,335,o),
(284,198,o),
(229,34,c),
(257,34,l),
(189,202,o),
(142,392,o),
(114,500,c),
(108,510,l),
(106,510,o),
(17,510,o),
(11,510,c),
(7,500,l),
(56,377,o),
(118,173,o),
(166,10,c),
(174,0,l),
(267,0,l),
(244,58,l),
(214,-56,o),
(174,-143,o),
(123,-149,cs),
(114,-150,o),
(105,-151,o),
(98,-151,cs),
(72,-151,o),
(57,-145,o),
(45,-138,c),
(40,-141,l),
(24,-204,l),
(26,-208,l),
(40,-212,o),
(68,-228,o),
(110,-228,cs)
);
}
);
width = 451;
}
);
unicode = 121;
}
{
glyphname = z;
layers = (
{
anchors = (
{
name = bottom;
pos = (220,4);
},
{
name = center;
pos = (220,255);
},
{
name = top;
pos = (220,510);
}
);
layerId = master01;
shapes = (
{
closed = 1;
nodes = (
(60,2,o),
(116,4,o),
(181,4,cs),
(195,4,o),
(210,4,o),
(225,4,cs),
(266,4,o),
(407,2,o),
(420,0,c),
(425,10,l),
(425,81,l),
(420,90,l),
(322,84,o),
(260,82,o),
(119,82,c),
(164,59,l),
(224,193,o),
(338,373,o),
(420,500,c),
(415,510,l),
(378,508,o),
(326,506,o),
(261,506,cs),
(247,506,o),
(233,506,o),
(218,506,cs),
(177,506,o),
(66,508,o),
(53,510,c),
(48,500,l),
(48,429,l),
(53,420,l),
(152,427,o),
(191,428,o),
(324,428,c),
(286,486,l),
(252,370,o),
(128,168,o),
(18,11,c),
(23,0,l)
);
}
);
width = 440;
},
{
anchors = (
{
name = bottom;
pos = (220,4);
},
{
name = center;
pos = (220,255);
},
{
name = top;
pos = (220,510);
}
);
layerId = m002;
shapes = (
{
closed = 1;
nodes = (
(60,2,o),
(116,4,o),
(181,4,cs),
(195,4,o),
(210,4,o),
(225,4,cs),
(266,4,o),
(407,2,o),
(420,0,c),
(425,10,l),
(425,81,l),
(420,90,l),
(322,84,o),
(260,82,o),
(119,82,c),
(164,59,l),
(224,193,o),
(338,373,o),
(420,500,c),
(415,510,l),
(378,508,o),
(326,506,o),
(261,506,cs),
(247,506,o),
(233,506,o),
(218,506,cs),
(177,506,o),
(66,508,o),
(53,510,c),
(48,500,l),
(48,429,l),
(53,420,l),
(152,427,o),
(191,428,o),
(324,428,c),
(286,486,l),
(252,370,o),
(128,168,o),
(18,11,c),
(23,0,l)
);
}
);
width = 440;
},
{
anchors = (
{
name = bottom;
pos = (220,4);
},
{
name = center;
pos = (220,255);
},
{
name = top;
pos = (220,510);
}
);
layerId = m003;
shapes = (
{
closed = 1;
nodes = (
(60,2,o),
(116,4,o),
(181,4,cs),
(195,4,o),
(210,4,o),
(225,4,cs),
(266,4,o),
(407,2,o),
(420,0,c),
(425,10,l),
(425,81,l),
(420,90,l),
(322,84,o),
(260,82,o),
(119,82,c),
(164,59,l),
(224,193,o),
(338,373,o),
(420,500,c),
(415,510,l),
(378,508,o),
(326,506,o),
(261,506,cs),
(247,506,o),
(233,506,o),
(218,506,cs),
(177,506,o),
(66,508,o),
(53,510,c),
(48,500,l),
(48,429,l),
(53,420,l),
(152,427,o),
(191,428,o),
(324,428,c),
(286,486,l),
(252,370,o),
(128,168,o),
(18,11,c),
(23,0,l)
);
}
);
width = 440;
},
{
anchors = (
{
name = bottom;
pos = (220,4);
},
{
name = center;
pos = (220,255);
},
{
name = top;
pos = (220,510);
}
);
layerId = m004;
shapes = (
{
closed = 1;
nodes = (
(60,2,o),
(116,4,o),
(181,4,cs),
(195,4,o),
(210,4,o),
(225,4,cs),
(266,4,o),
(407,2,o),
(420,0,c),
(425,10,l),
(425,81,l),
(420,90,l),
(322,84,o),
(260,82,o),
(119,82,c),
(164,59,l),
(224,193,o),
(338,373,o),
(420,500,c),
(415,510,l),
(378,508,o),
(326,506,o),
(261,506,cs),
(247,506,o),
(233,506,o),
(218,506,cs),
(177,506,o),
(66,508,o),
(53,510,c),
(48,500,l),
(48,429,l),
(53,420,l),
(152,427,o),
(191,428,o),
(324,428,c),
(286,486,l),
(252,370,o),
(128,168,o),
(18,11,c),
(23,0,l)
);
}
);
width = 440;
}
);
unicode = 122;
}
{
glyphname = periodcentered;
layers = (
{
layerId = master01;
shapes = (
{
closed = 1;
nodes = (
(202,250,o),
(165,217,o),
(141,217,cs),
(117,217,o),
(80,250,o),
(80,279,cs),
(80,308,o),
(117,341,o),
(141,341,cs),
(165,341,o),
(202,308,o),
(202,279,cs)
);
}
);
width = 282;
},
{
layerId = m002;
shapes = (
{
closed = 1;
nodes = (
(202,250,o),
(165,217,o),
(141,217,cs),
(117,217,o),
(80,250,o),
(80,279,cs),
(80,308,o),
(117,341,o),
(141,341,cs),
(165,341,o),
(202,308,o),
(202,279,cs)
);
}
);
width = 282;
},
{
layerId = m003;
shapes = (
{
closed = 1;
nodes = (
(202,250,o),
(165,217,o),
(141,217,cs),
(117,217,o),
(80,250,o),
(80,279,cs),
(80,308,o),
(117,341,o),
(141,341,cs),
(165,341,o),
(202,308,o),
(202,279,cs)
);
}
);
width = 282;
},
{
layerId = m004;
shapes = (
{
closed = 1;
nodes = (
(202,250,o),
(165,217,o),
(141,217,cs),
(117,217,o),
(80,250,o),
(80,279,cs),
(80,308,o),
(117,341,o),
(141,341,cs),
(165,341,o),
(202,308,o),
(202,279,cs)
);
}
);
width = 282;
}
);
unicode = 183;
}
{
glyphname = Eogonek;
layers = (
{
anchors = (
{
name = _ogonek;
pos = (404,9);
}
);
layerId = master01;
shapes = (
{
pos = (-5,0);
ref = E;
},
{
closed = 1;
nodes = (
(336,-11,o),
(298,-76,o),
(298,-129,cs),
(298,-175,o),
(326,-212,o),
(380,-212,cs),
(402,-212,o),
(428,-206,o),
(459,-192,c),
(462,-184,l),
(453,-136,l),
(446,-131,l),
(405,-136,o),
(388,-123,o),
(388,-99,cs),
(388,-62,o),
(435,-6,o),
(440,0,c),
(412,20,l)
);
}
);
width = 485;
},
{
anchors = (
{
name = _ogonek;
pos = (404,9);
}
);
layerId = m002;
shapes = (
{
pos = (-5,0);
ref = E;
},
{
closed = 1;
nodes = (
(336,-11,o),
(298,-76,o),
(298,-129,cs),
(298,-175,o),
(326,-212,o),
(380,-212,cs),
(402,-212,o),
(428,-206,o),
(459,-192,c),
(462,-184,l),
(453,-136,l),
(446,-131,l),
(405,-136,o),
(388,-123,o),
(388,-99,cs),
(388,-62,o),
(435,-6,o),
(440,0,c),
(412,20,l)
);
}
);
width = 485;
},
{
anchors = (
{
name = _ogonek;
pos = (404,9);
}
);
layerId = m003;
shapes = (
{
pos = (-5,0);
ref = E;
},
{
closed = 1;
nodes = (
(336,-11,o),
(298,-76,o),
(298,-129,cs),
(298,-175,o),
(326,-212,o),
(380,-212,cs),
(402,-212,o),
(428,-206,o),
(459,-192,c),
(462,-184,l),
(453,-136,l),
(446,-131,l),
(405,-136,o),
(388,-123,o),
(388,-99,cs),
(388,-62,o),
(435,-6,o),
(440,0,c),
(412,20,l)
);
}
);
width = 485;
},
{
anchors = (
{
name = _ogonek;
pos = (404,9);
}
);
layerId = m004;
shapes = (
{
pos = (-5,0);
ref = E;
},
{
closed = 1;
nodes = (
(336,-11,o),
(298,-76,o),
(298,-129,cs),
(298,-175,o),
(326,-212,o),
(380,-212,cs),
(402,-212,o),
(428,-206,o),
(459,-192,c),
(462,-184,l),
(453,-136,l),
(446,-131,l),
(405,-136,o),
(388,-123,o),
(388,-99,cs),
(388,-62,o),
(435,-6,o),
(440,0,c),
(412,20,l)
);
}
);
width = 485;
}
);
unicode = 280;
}
{
glyphname = Iogonek;
layers = (
{
layerId = master01;
shapes = (
{
pos = (-5,0);
ref = I;
},
{
closed = 1;
nodes = (
(278,-11,o),
(240,-76,o),
(240,-129,cs),
(240,-175,o),
(268,-212,o),
(322,-212,cs),
(344,-212,o),
(370,-206,o),
(401,-192,c),
(404,-187,l),
(393,-134,l),
(388,-131,l),
(347,-136,o),
(330,-123,o),
(330,-99,cs),
(330,-62,o),
(377,-6,o),
(382,0,c),
(354,20,l)
);
}
);
width = 431;
},
{
layerId = m002;
shapes = (
{
pos = (-5,0);
ref = I;
},
{
closed = 1;
nodes = (
(278,-11,o),
(240,-76,o),
(240,-129,cs),
(240,-175,o),
(268,-212,o),
(322,-212,cs),
(344,-212,o),
(370,-206,o),
(401,-192,c),
(404,-187,l),
(393,-134,l),
(388,-131,l),
(347,-136,o),
(330,-123,o),
(330,-99,cs),
(330,-62,o),
(377,-6,o),
(382,0,c),
(354,20,l)
);
}
);
width = 431;
},
{
layerId = m003;
shapes = (
{
pos = (-5,0);
ref = I;
},
{
closed = 1;
nodes = (
(278,-11,o),
(240,-76,o),
(240,-129,cs),
(240,-175,o),
(268,-212,o),
(322,-212,cs),
(344,-212,o),
(370,-206,o),
(401,-192,c),
(404,-187,l),
(393,-134,l),
(388,-131,l),
(347,-136,o),
(330,-123,o),
(330,-99,cs),
(330,-62,o),
(377,-6,o),
(382,0,c),
(354,20,l)
);
}
);
width = 431;
},
{
layerId = m004;
shapes = (
{
pos = (-5,0);
ref = I;
},
{
closed = 1;
nodes = (
(278,-11,o),
(240,-76,o),
(240,-129,cs),
(240,-175,o),
(268,-212,o),
(322,-212,cs),
(344,-212,o),
(370,-206,o),
(401,-192,c),
(404,-187,l),
(393,-134,l),
(388,-131,l),
(347,-136,o),
(330,-123,o),
(330,-99,cs),
(330,-62,o),
(377,-6,o),
(382,0,c),
(354,20,l)
);
}
);
width = 431;
}
);
unicode = 302;
}
{
glyphname = tcaron;
layers = (
{
layerId = master01;
shapes = (
{
pos = (-5,0);
ref = t;
},
{
closed = 1;
nodes = (
(337,563,l),
(347,570,l),
(354,650,o),
(357,697,o),
(368,771,c),
(363,781,l),
(274,781,l),
(269,771,l),
(281,570,l),
(290,563,l)
);
}
);
width = 379;
},
{
layerId = m002;
shapes = (
{
pos = (-5,0);
ref = t;
},
{
closed = 1;
nodes = (
(337,563,l),
(347,570,l),
(354,650,o),
(357,697,o),
(368,771,c),
(363,781,l),
(274,781,l),
(269,771,l),
(281,570,l),
(290,563,l)
);
}
);
width = 379;
},
{
layerId = m003;
shapes = (
{
pos = (-5,0);
ref = t;
},
{
closed = 1;
nodes = (
(337,563,l),
(347,570,l),
(354,650,o),
(357,697,o),
(368,771,c),
(363,781,l),
(274,781,l),
(269,771,l),
(281,570,l),
(290,563,l)
);
}
);
width = 379;
},
{
layerId = m004;
shapes = (
{
pos = (-5,0);
ref = t;
},
{
closed = 1;
nodes = (
(337,563,l),
(347,570,l),
(354,650,o),
(357,697,o),
(368,771,c),
(363,781,l),
(274,781,l),
(269,771,l),
(281,570,l),
(290,563,l)
);
}
);
width = 379;
}
);
metricRight = "=t";
unicode = 357;
}
{
glyphname = Uogonek;
layers = (
{
anchors = (
{
name = bottom;
pos = (332,0);
},
{
name = ogonek;
pos = (410,3);
},
{
name = top;
pos = (332,700);
},
{
name = topright;
pos = (648,700);
}
);
layerId = master01;
shapes = (
{
closed = 1;
nodes = (
(515,51,o),
(581,112,o),
(583,306,cs),
(584,433,o),
(587,561,o),
(593,690,c),
(584,700,l),
(490,700,l),
(481,691,l),
(487,557,o),
(488,422,o),
(488,287,cs),
(488,154,o),
(443,79,o),
(334,79,cs),
(223,79,o),
(179,154,o),
(179,296,cs),
(179,444,o),
(181,561,o),
(186,691,c),
(177,700,l),
(79,700,l),
(70,690,l),
(75,562,o),
(80,434,o),
(80,306,cs),
(80,84,o),
(164,-11,o),
(332,-11,cs),
(353,-11,o),
(367,-5,o),
(385,-1,c),
(359,20,l),
(283,-11,o),
(245,-76,o),
(245,-129,cs),
(245,-175,o),
(273,-212,o),
(327,-212,cs),
(349,-212,o),
(375,-206,o),
(406,-192,c),
(409,-187,l),
(398,-134,l),
(393,-131,l),
(352,-136,o),
(335,-123,o),
(335,-90,cs),
(335,-62,o),
(352,-27,o),
(392,-8,cs)
);
}
);
width = 663;
},
{
anchors = (
{
name = bottom;
pos = (332,0);
},
{
name = ogonek;
pos = (410,3);
},
{
name = top;
pos = (332,700);
},
{
name = topright;
pos = (648,700);
}
);
layerId = m002;
shapes = (
{
closed = 1;
nodes = (
(515,51,o),
(581,112,o),
(583,306,cs),
(584,433,o),
(587,561,o),
(593,690,c),
(584,700,l),
(490,700,l),
(481,691,l),
(487,557,o),
(488,422,o),
(488,287,cs),
(488,154,o),
(443,79,o),
(334,79,cs),
(223,79,o),
(179,154,o),
(179,296,cs),
(179,444,o),
(181,561,o),
(186,691,c),
(177,700,l),
(79,700,l),
(70,690,l),
(75,562,o),
(80,434,o),
(80,306,cs),
(80,84,o),
(164,-11,o),
(332,-11,cs),
(353,-11,o),
(367,-5,o),
(385,-1,c),
(359,20,l),
(283,-11,o),
(245,-76,o),
(245,-129,cs),
(245,-175,o),
(273,-212,o),
(327,-212,cs),
(349,-212,o),
(375,-206,o),
(406,-192,c),
(409,-187,l),
(398,-134,l),
(393,-131,l),
(352,-136,o),
(335,-123,o),
(335,-90,cs),
(335,-62,o),
(352,-27,o),
(392,-8,cs)
);
}
);
width = 663;
},
{
anchors = (
{
name = bottom;
pos = (332,0);
},
{
name = ogonek;
pos = (410,3);
},
{
name = top;
pos = (332,700);
},
{
name = topright;
pos = (648,700);
}
);
layerId = m003;
shapes = (
{
closed = 1;
nodes = (
(515,51,o),
(581,112,o),
(583,306,cs),
(584,433,o),
(587,561,o),
(593,690,c),
(584,700,l),
(490,700,l),
(481,691,l),
(487,557,o),
(488,422,o),
(488,287,cs),
(488,154,o),
(443,79,o),
(334,79,cs),
(223,79,o),
(179,154,o),
(179,296,cs),
(179,444,o),
(181,561,o),
(186,691,c),
(177,700,l),
(79,700,l),
(70,690,l),
(75,562,o),
(80,434,o),
(80,306,cs),
(80,84,o),
(164,-11,o),
(332,-11,cs),
(353,-11,o),
(367,-5,o),
(385,-1,c),
(359,20,l),
(283,-11,o),
(245,-76,o),
(245,-129,cs),
(245,-175,o),
(273,-212,o),
(327,-212,cs),
(349,-212,o),
(375,-206,o),
(406,-192,c),
(409,-187,l),
(398,-134,l),
(393,-131,l),
(352,-136,o),
(335,-123,o),
(335,-90,cs),
(335,-62,o),
(352,-27,o),
(392,-8,cs)
);
}
);
width = 663;
},
{
anchors = (
{
name = bottom;
pos = (332,0);
},
{
name = ogonek;
pos = (410,3);
},
{
name = top;
pos = (332,700);
},
{
name = topright;
pos = (648,700);
}
);
layerId = m004;
shapes = (
{
closed = 1;
nodes = (
(515,51,o),
(581,112,o),
(583,306,cs),
(584,433,o),
(587,561,o),
(593,690,c),
(584,700,l),
(490,700,l),
(481,691,l),
(487,557,o),
(488,422,o),
(488,287,cs),
(488,154,o),
(443,79,o),
(334,79,cs),
(223,79,o),
(179,154,o),
(179,296,cs),
(179,444,o),
(181,561,o),
(186,691,c),
(177,700,l),
(79,700,l),
(70,690,l),
(75,562,o),
(80,434,o),
(80,306,cs),
(80,84,o),
(164,-11,o),
(332,-11,cs),
(353,-11,o),
(367,-5,o),
(385,-1,c),
(359,20,l),
(283,-11,o),
(245,-76,o),
(245,-129,cs),
(245,-175,o),
(273,-212,o),
(327,-212,cs),
(349,-212,o),
(375,-206,o),
(406,-192,c),
(409,-187,l),
(398,-134,l),
(393,-131,l),
(352,-136,o),
(335,-123,o),
(335,-90,cs),
(335,-62,o),
(352,-27,o),
(392,-8,cs)
);
}
);
width = 663;
}
);
unicode = 370;
}
{
glyphname = caron;
layers = (
{
anchors = (
{
name = _top;
pos = (184,516);
}
);
layerId = master01;
shapes = (
{
closed = 1;
nodes = (
(176,661,o),
(144,692,o),
(94,772,c),
(83,772,l),
(31,734,l),
(30,725,l),
(83,661,o),
(118,617,o),
(142,579,c),
(226,579,l),
(250,617,o),
(285,661,o),
(338,725,c),
(337,734,l),
(285,772,l),
(274,772,l),
(223,692,o),
(192,661,o),
(171,633,c),
(197,633,l)
);
}
);
width = 366;
},
{
anchors = (
{
name = _top;
pos = (184,516);
}
);
layerId = m002;
shapes = (
{
closed = 1;
nodes = (
(176,661,o),
(144,692,o),
(94,772,c),
(83,772,l),
(31,734,l),
(30,725,l),
(83,661,o),
(118,617,o),
(142,579,c),
(226,579,l),
(250,617,o),
(285,661,o),
(338,725,c),
(337,734,l),
(285,772,l),
(274,772,l),
(223,692,o),
(192,661,o),
(171,633,c),
(197,633,l)
);
}
);
width = 366;
},
{
anchors = (
{
name = _top;
pos = (184,516);
}
);
layerId = m003;
shapes = (
{
closed = 1;
nodes = (
(176,661,o),
(144,692,o),
(94,772,c),
(83,772,l),
(31,734,l),
(30,725,l),
(83,661,o),
(118,617,o),
(142,579,c),
(226,579,l),
(250,617,o),
(285,661,o),
(338,725,c),
(337,734,l),
(285,772,l),
(274,772,l),
(223,692,o),
(192,661,o),
(171,633,c),
(197,633,l)
);
}
);
width = 366;
},
{
anchors = (
{
name = _top;
pos = (184,516);
}
);
layerId = m004;
shapes = (
{
closed = 1;
nodes = (
(176,661,o),
(144,692,o),
(94,772,c),
(83,772,l),
(31,734,l),
(30,725,l),
(83,661,o),
(118,617,o),
(142,579,c),
(226,579,l),
(250,617,o),
(285,661,o),
(338,725,c),
(337,734,l),
(285,772,l),
(274,772,l),
(223,692,o),
(192,661,o),
(171,633,c),
(197,633,l)
);
}
);
width = 366;
}
);
unicode = 711;
}
{
glyphname = dotaccent;
layers = (
{
anchors = (
{
name = _top;
pos = (91,510);
}
);
layerId = master01;
shapes = (
{
closed = 1;
nodes = (
(157,625,o),
(157,673,cs),
(157,702,o),
(146,749,o),
(100,749,cs),
(75,749,o),
(25,741,o),
(25,694,cs),
(25,662,o),
(37,617,o),
(85,617,cs),
(110,617,o)
);
}
);
width = 182;
},
{
anchors = (
{
name = _top;
pos = (91,510);
}
);
layerId = m002;
shapes = (
{
closed = 1;
nodes = (
(157,625,o),
(157,673,cs),
(157,702,o),
(146,749,o),
(100,749,cs),
(75,749,o),
(25,741,o),
(25,694,cs),
(25,662,o),
(37,617,o),
(85,617,cs),
(110,617,o)
);
}
);
width = 182;
},
{
anchors = (
{
name = _top;
pos = (91,510);
}
);
layerId = m003;
shapes = (
{
closed = 1;
nodes = (
(157,625,o),
(157,673,cs),
(157,702,o),
(146,749,o),
(100,749,cs),
(75,749,o),
(25,741,o),
(25,694,cs),
(25,662,o),
(37,617,o),
(85,617,cs),
(110,617,o)
);
}
);
width = 182;
},
{
anchors = (
{
name = _top;
pos = (91,510);
}
);
layerId = m004;
shapes = (
{
closed = 1;
nodes = (
(157,625,o),
(157,673,cs),
(157,702,o),
(146,749,o),
(100,749,cs),
(75,749,o),
(25,741,o),
(25,694,cs),
(25,662,o),
(37,617,o),
(85,617,cs),
(110,617,o)
);
}
);
width = 182;
}
);
unicode = 729;
}
{
glyphname = ogonek;
layers = (
{
anchors = (
{
name = _ogonek;
pos = (410,0);
}
);
layerId = master01;
shapes = (
{
closed = 1;
nodes = (
(300,-20,o),
(262,-85,o),
(262,-138,cs),
(262,-184,o),
(290,-221,o),
(344,-221,cs),
(366,-221,o),
(392,-215,o),
(423,-201,c),
(410,-140,l),
(369,-145,o),
(352,-127,o),
(352,-101,cs),
(352,-71,o),
(375,-31,o),
(410,0,c),
(376,11,l)
);
}
);
width = 600;
},
{
anchors = (
{
name = _ogonek;
pos = (410,0);
}
);
layerId = m002;
shapes = (
{
closed = 1;
nodes = (
(300,-20,o),
(262,-85,o),
(262,-138,cs),
(262,-184,o),
(290,-221,o),
(344,-221,cs),
(366,-221,o),
(392,-215,o),
(423,-201,c),
(410,-140,l),
(369,-145,o),
(352,-127,o),
(352,-101,cs),
(352,-71,o),
(375,-31,o),
(410,0,c),
(376,11,l)
);
}
);
width = 600;
},
{
anchors = (
{
name = _ogonek;
pos = (410,0);
}
);
layerId = m003;
shapes = (
{
closed = 1;
nodes = (
(300,-20,o),
(262,-85,o),
(262,-138,cs),
(262,-184,o),
(290,-221,o),
(344,-221,cs),
(366,-221,o),
(392,-215,o),
(423,-201,c),
(410,-140,l),
(369,-145,o),
(352,-127,o),
(352,-101,cs),
(352,-71,o),
(375,-31,o),
(410,0,c),
(376,11,l)
);
}
);
width = 600;
},
{
anchors = (
{
name = _ogonek;
pos = (410,0);
}
);
layerId = m004;
shapes = (
{
closed = 1;
nodes = (
(300,-20,o),
(262,-85,o),
(262,-138,cs),
(262,-184,o),
(290,-221,o),
(344,-221,cs),
(366,-221,o),
(392,-215,o),
(423,-201,c),
(410,-140,l),
(369,-145,o),
(352,-127,o),
(352,-101,cs),
(352,-71,o),
(375,-31,o),
(410,0,c),
(376,11,l)
);
}
);
width = 600;
}
);
unicode = 731;
}
{
glyphname = hungarumlaut;
layers = (
{
anchors = (
{
name = _top;
pos = (113,510);
}
);
layerId = master01;
shapes = (
{
closed = 1;
nodes = (
(26,573,l),
(189,749,l),
(187,759,l),
(120,808,l),
(109,807,l),
(-21,605,l),
(-20,598,l),
(18,569,l)
);
},
{
closed = 1;
nodes = (
(196,573,l),
(359,749,l),
(357,759,l),
(290,808,l),
(279,807,l),
(149,605,l),
(150,598,l),
(188,569,l)
);
}
);
width = 371;
},
{
anchors = (
{
name = _top;
pos = (113,510);
}
);
layerId = m002;
shapes = (
{
closed = 1;
nodes = (
(26,573,l),
(189,749,l),
(187,759,l),
(120,808,l),
(109,807,l),
(-21,605,l),
(-20,598,l),
(18,569,l)
);
},
{
closed = 1;
nodes = (
(196,573,l),
(359,749,l),
(357,759,l),
(290,808,l),
(279,807,l),
(149,605,l),
(150,598,l),
(188,569,l)
);
}
);
width = 371;
},
{
anchors = (
{
name = _top;
pos = (113,510);
}
);
layerId = m003;
shapes = (
{
closed = 1;
nodes = (
(26,573,l),
(189,749,l),
(187,759,l),
(120,808,l),
(109,807,l),
(-21,605,l),
(-20,598,l),
(18,569,l)
);
},
{
closed = 1;
nodes = (
(196,573,l),
(359,749,l),
(357,759,l),
(290,808,l),
(279,807,l),
(149,605,l),
(150,598,l),
(188,569,l)
);
}
);
width = 371;
},
{
anchors = (
{
name = _top;
pos = (113,510);
}
);
layerId = m004;
shapes = (
{
closed = 1;
nodes = (
(26,573,l),
(189,749,l),
(187,759,l),
(120,808,l),
(109,807,l),
(-21,605,l),
(-20,598,l),
(18,569,l)
);
},
{
closed = 1;
nodes = (
(196,573,l),
(359,749,l),
(357,759,l),
(290,808,l),
(279,807,l),
(149,605,l),
(150,598,l),
(188,569,l)
);
}
);
width = 371;
}
);
unicode = 733;
}
{
glyphname = gravecomb;
layers = (
{
anchors = (
{
name = _top;
pos = (166,510);
}
);
layerId = master01;
shapes = (
{
closed = 1;
nodes = (
(235,605,l),
(236,613,l),
(77,813,l),
(67,813,l),
(2,752,l),
(0,742,l),
(189,571,l),
(196,569,l)
);
}
);
width = 236;
},
{
anchors = (
{
name = _top;
pos = (166,510);
}
);
layerId = m002;
shapes = (
{
closed = 1;
nodes = (
(235,605,l),
(236,613,l),
(77,813,l),
(67,813,l),
(2,752,l),
(0,742,l),
(189,571,l),
(196,569,l)
);
}
);
width = 236;
},
{
anchors = (
{
name = _top;
pos = (166,510);
}
);
layerId = m003;
shapes = (
{
closed = 1;
nodes = (
(235,605,l),
(236,613,l),
(77,813,l),
(67,813,l),
(2,752,l),
(0,742,l),
(189,571,l),
(196,569,l)
);
}
);
width = 236;
},
{
anchors = (
{
name = _top;
pos = (166,510);
}
);
layerId = m004;
shapes = (
{
closed = 1;
nodes = (
(235,605,l),
(236,613,l),
(77,813,l),
(67,813,l),
(2,752,l),
(0,742,l),
(189,571,l),
(196,569,l)
);
}
);
width = 236;
}
);
unicode = 768;
}
{
glyphname = circumflexcomb;
layers = (
{
anchors = (
{
name = _top;
pos = (153,517);
}
);
layerId = master01;
shapes = (
{
closed = 1;
nodes = (
(141,718,l),
(162,690,o),
(193,659,o),
(244,579,c),
(255,579,l),
(307,617,l),
(308,626,l),
(255,690,o),
(220,734,o),
(196,772,c),
(112,772,l),
(88,734,o),
(53,690,o),
(0,626,c),
(1,617,l),
(53,579,l),
(64,579,l),
(114,659,o),
(146,690,o),
(167,718,c)
);
}
);
width = 308;
},
{
anchors = (
{
name = _top;
pos = (153,517);
}
);
layerId = m002;
shapes = (
{
closed = 1;
nodes = (
(141,718,l),
(162,690,o),
(193,659,o),
(244,579,c),
(255,579,l),
(307,617,l),
(308,626,l),
(255,690,o),
(220,734,o),
(196,772,c),
(112,772,l),
(88,734,o),
(53,690,o),
(0,626,c),
(1,617,l),
(53,579,l),
(64,579,l),
(114,659,o),
(146,690,o),
(167,718,c)
);
}
);
width = 308;
},
{
anchors = (
{
name = _top;
pos = (153,517);
}
);
layerId = m003;
shapes = (
{
closed = 1;
nodes = (
(141,718,l),
(162,690,o),
(193,659,o),
(244,579,c),
(255,579,l),
(307,617,l),
(308,626,l),
(255,690,o),
(220,734,o),
(196,772,c),
(112,772,l),
(88,734,o),
(53,690,o),
(0,626,c),
(1,617,l),
(53,579,l),
(64,579,l),
(114,659,o),
(146,690,o),
(167,718,c)
);
}
);
width = 308;
},
{
anchors = (
{
name = _top;
pos = (153,517);
}
);
layerId = m004;
shapes = (
{
closed = 1;
nodes = (
(141,718,l),
(162,690,o),
(193,659,o),
(244,579,c),
(255,579,l),
(307,617,l),
(308,626,l),
(255,690,o),
(220,734,o),
(196,772,c),
(112,772,l),
(88,734,o),
(53,690,o),
(0,626,c),
(1,617,l),
(53,579,l),
(64,579,l),
(114,659,o),
(146,690,o),
(167,718,c)
);
}
);
width = 308;
}
);
unicode = 770;
}
